<svg width="43" height="43" viewBox="0 0 43 43" fill="none" xmlns="http://www.w3.org/2000/svg">
<path opacity="0.5" d="M40.301 22.7896C40.54 33.4881 31.1096 42.925 20.4381 42.704C10.0425 42.7593 1.09922 34.2615 0.575256 23.8577C-0.252057 12.7634 9.33467 2.63585 20.4289 2.87525C20.6863 2.87525 20.8886 3.08703 20.8886 3.33564V22.3293H39.8506C40.0988 22.3293 40.301 22.5318 40.301 22.7896Z" fill="white"/>
<path d="M42.8131 20.2816C42.8131 20.5302 42.6109 20.7328 42.3535 20.7328H22.9319C22.6837 20.7328 22.4814 20.5302 22.4814 20.2816V0.827572C22.4814 0.569757 22.6837 0.367188 22.9319 0.367188C33.8975 0.367188 42.8131 9.29773 42.8131 20.2816Z" fill="white"/>
</svg>
