<svg width="40" height="40" viewBox="0 0 40 40" fill="none" xmlns="http://www.w3.org/2000/svg">
<path d="M38.3782 32.4342H10.7923C9.69715 32.4342 8.64687 31.9991 7.8725 31.2247C7.09812 30.4504 6.66309 29.4001 6.66309 28.305C6.66309 27.2098 7.09812 26.1596 7.8725 25.3852C8.64687 24.6108 9.69715 24.1758 10.7923 24.1758H34.6809C34.7802 24.1758 34.8776 24.2031 34.9623 24.2548C35.0471 24.3065 35.116 24.3805 35.1615 24.4688L38.8588 31.6461C38.9012 31.7285 38.9218 31.8204 38.9184 31.913C38.9151 32.0057 38.888 32.0959 38.8398 32.175C38.7915 32.2542 38.7237 32.3196 38.6429 32.365C38.5621 32.4103 38.4709 32.4342 38.3782 32.4342ZM10.7923 25.2547C9.98387 25.2547 9.20857 25.5758 8.63694 26.1475C8.06531 26.7191 7.74417 27.4944 7.74417 28.3028C7.74417 29.1112 8.06531 29.8865 8.63694 30.4581C9.20857 31.0298 9.98387 31.3509 10.7923 31.3509H37.4917L34.3512 25.2547H10.7923Z" fill="#2AB939"/>
<path d="M10.7923 32.4342C9.9756 32.4342 9.17726 32.192 8.49822 31.7383C7.81918 31.2845 7.28993 30.6397 6.9774 29.8851C6.66488 29.1306 6.5831 28.3004 6.74243 27.4994C6.90175 26.6984 7.29502 25.9627 7.8725 25.3852C8.44998 24.8077 9.18573 24.4144 9.98671 24.2551C10.7877 24.0958 11.6179 24.1776 12.3724 24.4901C13.127 24.8026 13.7719 25.3319 14.2256 26.0109C14.6793 26.69 14.9215 27.4883 14.9215 28.305C14.9203 29.3997 14.4849 30.4494 13.7108 31.2235C12.9367 31.9976 11.8871 32.433 10.7923 32.4342ZM10.7923 25.2569C10.1894 25.2569 9.6001 25.4356 9.09884 25.7706C8.59758 26.1055 8.2069 26.5815 7.97619 27.1385C7.74549 27.6955 7.68513 28.3084 7.80274 28.8996C7.92035 29.4909 8.21065 30.034 8.63694 30.4603C9.06322 30.8866 9.60634 31.1769 10.1976 31.2945C10.7889 31.4121 11.4018 31.3518 11.9587 31.1211C12.5157 30.8904 12.9918 30.4997 13.3267 29.9984C13.6616 29.4972 13.8404 28.9078 13.8404 28.305C13.8401 27.4965 13.5189 26.7211 12.9474 26.1492C12.3759 25.5773 11.6008 25.2556 10.7923 25.2547V25.2569Z" fill="#2AB939"/>
<path d="M10.7919 30.5927C10.3385 30.5926 9.89535 30.458 9.51843 30.2061C9.14152 29.9541 8.84777 29.596 8.67435 29.1771C8.50092 28.7582 8.4556 28.2973 8.54412 27.8527C8.63263 27.408 8.85101 26.9996 9.17163 26.6791C9.49225 26.3585 9.90073 26.1402 10.3454 26.0518C10.7901 25.9634 11.251 26.0088 11.6698 26.1824C12.0887 26.3559 12.4467 26.6497 12.6986 27.0267C12.9504 27.4037 13.0849 27.8469 13.0849 28.3002C13.0842 28.9081 12.8423 29.4909 12.4124 29.9206C11.9826 30.3504 11.3998 30.5921 10.7919 30.5927ZM10.7919 27.0889C10.5523 27.089 10.3182 27.1601 10.119 27.2933C9.91991 27.4265 9.76474 27.6157 9.67314 27.8371C9.58153 28.0584 9.55762 28.302 9.60442 28.5369C9.65123 28.7718 9.76664 28.9876 9.93607 29.157C10.1055 29.3263 10.3213 29.4417 10.5563 29.4884C10.7913 29.5351 11.0348 29.511 11.2561 29.4193C11.4774 29.3276 11.6666 29.1724 11.7997 28.9732C11.9328 28.774 12.0038 28.5398 12.0038 28.3002C12.0038 27.9788 11.8761 27.6705 11.6489 27.4431C11.4216 27.2158 11.1134 27.088 10.7919 27.0878V27.0889Z" fill="#2AB939"/>
<path d="M30.1259 30.5927C29.6725 30.5926 29.2293 30.458 28.8524 30.2061C28.4755 29.9541 28.1818 29.596 28.0083 29.1771C27.8349 28.7582 27.7896 28.2973 27.8781 27.8527C27.9666 27.408 28.185 26.9996 28.5056 26.6791C28.8262 26.3585 29.2347 26.1402 29.6794 26.0518C30.1241 25.9634 30.585 26.0088 31.0038 26.1824C31.4227 26.3559 31.7807 26.6497 32.0325 27.0267C32.2844 27.4037 32.4188 27.8469 32.4188 28.3002C32.4181 28.9081 32.1763 29.4909 31.7464 29.9206C31.3166 30.3504 30.7337 30.5921 30.1259 30.5927ZM30.1259 27.0889C29.8863 27.089 29.6522 27.1601 29.453 27.2933C29.2539 27.4265 29.0987 27.6157 29.0071 27.8371C28.9155 28.0584 28.8916 28.302 28.9384 28.5369C28.9852 28.7718 29.1006 28.9876 29.2701 29.157C29.4395 29.3263 29.6553 29.4417 29.8903 29.4884C30.1253 29.5351 30.3688 29.511 30.5901 29.4193C30.8114 29.3276 31.0006 29.1724 31.1337 28.9732C31.2667 28.774 31.3378 28.5398 31.3378 28.3002C31.3376 27.9788 31.2099 27.6706 30.9827 27.4433C30.7555 27.2159 30.4473 27.0881 30.1259 27.0878V27.0889Z" fill="#2AB939"/>
<path d="M30.1247 32.4342C29.3081 32.4341 28.5098 32.1918 27.8308 31.738C27.1519 31.2842 26.6227 30.6393 26.3103 29.8848C25.9978 29.1302 25.9161 28.3 26.0755 27.4991C26.2349 26.6981 26.6282 25.9624 27.2057 25.385C27.7832 24.8076 28.5189 24.4144 29.3199 24.2551C30.1209 24.0958 30.9511 24.1776 31.7056 24.4902C32.4601 24.8027 33.1049 25.3319 33.5586 26.011C34.0123 26.69 34.2545 27.4883 34.2545 28.305C34.2532 29.3998 33.8177 30.4494 33.0434 31.2235C32.2692 31.9976 31.2196 32.433 30.1247 32.4342ZM30.1247 25.2569C29.5219 25.257 28.9326 25.4358 28.4315 25.7708C27.9303 26.1058 27.5397 26.5819 27.309 27.1389C27.0784 27.6959 27.0181 28.3087 27.1358 28.9C27.2535 29.4912 27.5438 30.0343 27.9701 30.4605C28.3964 30.8867 28.9396 31.177 29.5308 31.2945C30.1221 31.4121 30.7349 31.3517 31.2919 31.121C31.8488 30.8903 32.3248 30.4996 32.6597 29.9984C32.9946 29.4971 33.1734 28.9078 33.1734 28.305C33.173 27.4964 32.8517 26.721 32.2801 26.1492C31.7085 25.5773 30.9333 25.2556 30.1247 25.2547V25.2569Z" fill="#2AB939"/>
<path d="M31.0563 25.2542H15.2876C15.1443 25.2542 15.0068 25.1972 14.9054 25.0959C14.804 24.9945 14.7471 24.857 14.7471 24.7137V21.1428C14.7478 20.5302 14.9915 19.9428 15.4247 19.5096C15.8579 19.0764 16.4452 18.8327 17.0579 18.832H29.286C29.8986 18.8327 30.486 19.0764 30.9192 19.5096C31.3524 19.9428 31.5961 20.5302 31.5968 21.1428V24.7137C31.5968 24.857 31.5399 24.9945 31.4385 25.0959C31.3371 25.1972 31.1996 25.2542 31.0563 25.2542ZM15.8282 24.1731H30.5157V21.1428C30.5153 20.8168 30.3856 20.5043 30.1551 20.2738C29.9245 20.0432 29.612 19.9135 29.286 19.9131H17.0579C16.7319 19.9135 16.4193 20.0432 16.1888 20.2738C15.9583 20.5043 15.8286 20.8168 15.8282 21.1428V24.1731Z" fill="#2AB939"/>
<path d="M25.9262 19.9135H20.4165C20.2732 19.9135 20.1357 19.8565 20.0343 19.7551C19.9329 19.6538 19.876 19.5163 19.876 19.3729V17.6973C19.8763 17.3062 20.0318 16.9312 20.3084 16.6547C20.585 16.3782 20.96 16.2228 21.3511 16.2227H24.9944C25.3851 16.2231 25.7597 16.3785 26.036 16.6549C26.3123 16.9313 26.4676 17.3059 26.4679 17.6967V19.3724C26.4679 19.4435 26.454 19.5139 26.4268 19.5797C26.3996 19.6454 26.3597 19.7051 26.3094 19.7553C26.259 19.8056 26.1993 19.8454 26.1336 19.8726C26.0678 19.8997 25.9974 19.9136 25.9262 19.9135ZM20.9571 18.8324H25.3857V17.6973C25.3857 17.5931 25.3444 17.4932 25.2708 17.4196C25.1972 17.3459 25.0974 17.3044 24.9933 17.3043H21.3511C21.2469 17.3044 21.1471 17.3459 21.0734 17.4195C20.9997 17.4932 20.9583 17.5931 20.9581 17.6973L20.9571 18.8324Z" fill="#2AB939"/>
<path d="M13.609 25.2538C13.5087 25.254 13.4103 25.2262 13.3248 25.1736C13.2394 25.121 13.1703 25.0456 13.1252 24.956L6.46684 11.7095C6.43606 11.6474 6.38851 11.5951 6.32957 11.5586C6.27063 11.5221 6.20265 11.5029 6.13332 11.503H3.04792C2.78697 11.5073 2.52777 11.4597 2.28542 11.3628C2.04308 11.2659 1.82244 11.1218 1.63637 10.9388C1.4503 10.7558 1.30253 10.5376 1.20165 10.2969C1.10078 10.0562 1.04883 9.79779 1.04883 9.5368C1.04883 9.27581 1.10078 9.01744 1.20165 8.77673C1.30253 8.53603 1.4503 8.31781 1.63637 8.1348C1.82244 7.95179 2.04308 7.80766 2.28542 7.71079C2.52777 7.61392 2.78697 7.56626 3.04792 7.57058H8.01278C8.26154 7.57014 8.50561 7.6382 8.71824 7.7673C8.93086 7.8964 9.10384 8.08156 9.21819 8.30247L15.7674 20.8933C15.8015 20.9564 15.8227 21.0256 15.8298 21.0969C15.8368 21.1683 15.8296 21.2403 15.8086 21.3089C15.7876 21.3774 15.7531 21.4411 15.7072 21.4962C15.6613 21.5513 15.605 21.5967 15.5413 21.6298C15.4777 21.6629 15.4082 21.683 15.3367 21.689C15.2653 21.6949 15.1933 21.6866 15.1251 21.6645C15.0569 21.6424 14.9938 21.6069 14.9394 21.5602C14.8851 21.5134 14.8405 21.4563 14.8085 21.3922L8.25873 8.80139C8.23576 8.75583 8.20062 8.71752 8.15721 8.69071C8.1138 8.66389 8.06381 8.64963 8.01278 8.6495H3.04792C2.92984 8.64658 2.81237 8.66732 2.70243 8.71049C2.59249 8.75366 2.49229 8.81839 2.40775 8.90087C2.3232 8.98335 2.25602 9.08192 2.21014 9.19076C2.16427 9.2996 2.14064 9.41652 2.14064 9.53464C2.14064 9.65275 2.16427 9.76967 2.21014 9.87851C2.25602 9.98736 2.3232 10.0859 2.40775 10.1684C2.49229 10.2509 2.59249 10.3156 2.70243 10.3588C2.81237 10.402 2.92984 10.4227 3.04792 10.4198H6.13332C6.40274 10.4194 6.6669 10.4943 6.89609 10.6359C7.12528 10.7775 7.3104 10.9803 7.43062 11.2214L14.0912 24.4706C14.1555 24.5986 14.1663 24.7469 14.1213 24.883C14.0763 25.019 13.9791 25.1316 13.8512 25.196C13.7761 25.2341 13.6932 25.2539 13.609 25.2538Z" fill="#2AB939"/>
</svg>
