<svg width="67" height="59" viewBox="0 0 67 59" fill="none" xmlns="http://www.w3.org/2000/svg">
<path d="M37.5003 27.0469C36.6624 22.41 35.2176 17.8321 33.2173 13.4723C32.1418 11.1281 30.763 8.69712 28.5075 7.45585C26.6873 6.45433 24.5249 6.39765 22.6635 6.97238C20.8026 7.5471 19.2082 8.69995 17.8012 10.0058C15.797 11.866 14.0247 14.3452 14.2686 17.225C14.4572 19.4519 15.8229 21.4986 17.3005 23.2789C20.7755 27.4658 25.1629 30.9022 30.0003 33.2249C32.4094 30.5661 34.5537 29.0959 37.5003 27.0469Z" fill="white" stroke="#2AB939" stroke-width="1.14483" stroke-miterlimit="10" stroke-linecap="round" stroke-linejoin="round"/>
<path d="M22.647 13.9453C22.599 19.836 26.1226 25.934 31.3682 29.0395" stroke="#2AB939" stroke-width="1.14483" stroke-miterlimit="10" stroke-linecap="round" stroke-linejoin="round"/>
<path d="M54.6436 38.5322C57.8262 36.1324 60.6694 33.2792 63.061 30.0854C64.5222 28.1339 65.8563 25.9336 65.989 23.4959C66.1606 20.3377 64.1027 17.2487 61.2244 15.9627C58.3462 14.6766 54.8339 15.1318 52.2159 16.8911C49.6876 18.5897 48.0091 21.3443 47.0572 24.2452C46.1053 27.146 45.8118 30.2169 45.5498 33.2594C49.1321 34.525 51.5327 36.3461 54.6436 38.5322Z" fill="white" stroke="#2AB939" stroke-width="1.14483" stroke-miterlimit="10" stroke-linecap="round" stroke-linejoin="round"/>
<path d="M60.4091 23.6562C56.085 25.3186 52.3598 28.5046 50.0371 32.5259" stroke="#2AB939" stroke-width="1.14483" stroke-miterlimit="10" stroke-linecap="round" stroke-linejoin="round"/>
<path d="M46.1288 33.9782C49.6738 28.9536 52.5487 23.4535 54.654 17.67C55.786 14.56 56.6933 11.106 55.5856 7.98755C54.6913 5.47044 52.5549 3.53032 50.1261 2.43755C47.6972 1.34478 44.99 1.02058 42.3286 1.00074C38.5357 0.972965 34.3922 1.72113 31.9108 4.60098C29.9918 6.8279 29.4351 9.91463 29.2448 12.8529C28.7965 19.7637 29.9839 26.7755 32.6809 33.1496C37.6385 32.7914 41.2033 33.3026 46.1288 33.9782Z" fill="white" stroke="#2AB939" stroke-width="1.14483" stroke-miterlimit="10" stroke-linecap="round" stroke-linejoin="round"/>
<path d="M43.5011 8.87891C37.871 14.2912 35.6607 23.0135 38.0308 30.4685" stroke="#2AB939" stroke-width="1.14483" stroke-miterlimit="10" stroke-linecap="round" stroke-linejoin="round"/>
<path d="M18.3411 45.7315C16.1522 46.6593 14.3789 48.5297 13.5642 50.7702C13.1972 51.7802 13.0741 53.0532 13.8408 53.8037C14.7244 54.6686 16.242 54.2945 17.2204 53.5395C18.1989 52.7846 18.9368 51.7179 20.018 51.1211C20.897 50.6353 21.9201 50.5072 22.8968 50.276C23.8735 50.0447 24.8858 49.6593 25.4696 48.8397C26.3481 47.6058 25.7028 45.9905 24.4246 45.4804C22.5535 44.7345 20.1591 44.9612 18.3411 45.7315Z" fill="white" stroke="#2AB939" stroke-width="1.14483" stroke-miterlimit="10" stroke-linecap="round" stroke-linejoin="round"/>
<path d="M63.8346 46.6943C60.5905 40.4489 57.116 33.9399 51.2855 30.0211C47.2702 27.3226 42.3086 26.0746 37.5 26.5535C34.9842 26.804 32.5193 27.5272 30.2541 28.6512C28.4413 29.5507 25.9729 30.8412 24.9402 32.6663C22.7 36.6242 21.1536 40.8955 22.6288 45.4406C24.042 49.793 27.9325 53.2368 32.4108 54.0983C35.9864 54.7864 39.6912 53.9181 43.0793 52.5804C46.4674 51.2428 49.659 49.4382 53.06 48.1351C56.4611 46.8315 60.193 46.0386 63.746 46.8349" fill="white"/>
<path d="M63.8346 46.6943C60.5905 40.4489 57.116 33.9399 51.2855 30.0211C47.2702 27.3226 42.3086 26.0746 37.5 26.5535C34.9842 26.804 32.5193 27.5272 30.2541 28.6512C28.4413 29.5507 25.9729 30.8412 24.9402 32.6663C22.7 36.6242 21.1536 40.8955 22.6288 45.4406C24.042 49.793 27.9325 53.2368 32.4108 54.0983C35.9864 54.7864 39.6912 53.9181 43.0793 52.5804C46.4674 51.2428 49.659 49.4382 53.06 48.1351C56.4611 46.8315 60.193 46.0386 63.746 46.8349" stroke="#2AB939" stroke-width="1.14483" stroke-miterlimit="10" stroke-linecap="round" stroke-linejoin="round"/>
<path d="M39.2072 26.457C44.8096 36.6927 39.4483 50.6198 30.7373 53.6487" stroke="#2AB939" stroke-width="1.14483" stroke-miterlimit="10" stroke-linecap="round" stroke-linejoin="round"/>
<path d="M46.6288 27.6875C51.2375 36.369 50.6577 44.7076 43.0781 52.5831" stroke="#2AB939" stroke-width="1.14483" stroke-miterlimit="10" stroke-linecap="round" stroke-linejoin="round"/>
<path d="M56.9607 35.3672C59.2303 40.5442 59.6295 44.7124 56.5977 47.03" stroke="#2AB939" stroke-width="1.14483" stroke-miterlimit="10" stroke-linecap="round" stroke-linejoin="round"/>
<path d="M32.0298 47.2275C30.2024 47.6515 28.6366 48.946 27.6785 50.5653C26.7204 52.1846 26.3359 54.1032 26.367 55.9861C26.3771 56.6096 26.4646 57.3011 26.9372 57.7052C27.4933 58.1807 28.3842 58.0373 28.9522 57.5754C29.5202 57.114 29.8369 56.4169 30.1158 55.7396C30.3947 55.0617 30.6686 54.356 31.1835 53.8357C31.9581 53.0524 33.12 52.837 34.2057 52.6613C35.2908 52.4856 36.4527 52.2736 37.2307 51.4943C40.0458 48.6762 33.9957 46.7718 32.0298 47.2275Z" fill="white" stroke="#2AB939" stroke-width="1.14483" stroke-miterlimit="10" stroke-linecap="round" stroke-linejoin="round"/>
<path d="M12.6937 29.0054C11.1959 25.5203 8.40682 22.2017 5.16666 19.892C4.31526 20.1352 3.36506 20.2366 2.50406 19.9255C1.64307 19.6143 0.922088 18.8004 1.00678 17.9712C1.1084 16.9759 2.31775 16.3859 3.40401 16.5185C4.49028 16.6511 5.44444 17.3063 6.28398 17.9927C9.60713 20.7093 12.0732 24.3238 13.2589 28.2148C13.0325 28.4517 12.9196 28.7691 12.6937 29.0054Z" fill="white" stroke="#2AB939" stroke-width="1.14483" stroke-miterlimit="10" stroke-linecap="round" stroke-linejoin="round"/>
<path d="M14.985 24.0652C10.8138 24.7998 6.91817 27.0567 4.84444 30.517C2.77071 33.9772 2.76112 38.6538 5.25885 42.041C7.6064 45.2246 11.7126 46.8796 15.7094 47.4538C19.7541 48.0347 23.9963 47.6471 27.5036 45.8333C31.0113 44.0196 33.6813 40.6665 34.0291 36.8424C34.9561 26.6441 23.6232 22.5445 14.985 24.0652Z" fill="white" stroke="#2AB939" stroke-width="1.14483" stroke-miterlimit="10"/>
<path d="M21.9687 37.9853L21.9687 37.9854C22.094 38.3994 22.5292 38.6312 22.9402 38.5059L21.9687 37.9853ZM21.9687 37.9853C21.8432 37.571 22.0763 37.1337 22.487 37.0078C22.898 36.8825 23.3331 37.1144 23.4584 37.5283C23.5841 37.9434 23.3506 38.3805 22.9403 38.5059L21.9687 37.9853Z" fill="#1F4E3D" stroke="#2AB939" stroke-width="0.572416"/>
<path d="M12.2504 37.8721C12.3761 38.2871 12.1426 38.7243 11.7323 38.8496L11.7322 38.8496C11.3216 38.9749 10.8866 38.7429 10.7607 38.3289C10.6352 37.9142 10.8684 37.4775 11.279 37.3515C11.69 37.2262 12.1251 37.4581 12.2504 37.8721Z" fill="#1F4E3D" stroke="#2AB939" stroke-width="0.572416"/>
<path d="M14.2656 42.6703C16.9039 44.1451 20.4038 43.8895 22.8016 42.0469C22.6102 42.1109 22.4183 42.1744 22.2269 42.2384" stroke="#2AB939" stroke-width="1.14483" stroke-miterlimit="10" stroke-linecap="round" stroke-linejoin="round"/>
<path d="M26.4681 27.9683C24.5931 23.4334 21.2761 19.2114 17.4014 16.2698C16.0458 16.7289 14.5073 16.8966 13.2477 16.0714C12.7351 15.7358 12.3404 15.2291 12.1699 14.6391C11.6166 12.7251 13.5701 11.426 15.2526 11.5972C16.6539 11.74 17.8638 12.6225 18.9241 13.5543C22.9863 17.1233 25.9746 21.907 27.4132 27.13C27.4956 27.4298 27.4476 27.7518 27.2856 28.0176C27.2833 28.0216 27.2811 28.0255 27.2783 28.0295C27.0835 28.3486 26.6109 28.3146 26.4681 27.9683Z" fill="white" stroke="#2AB939" stroke-width="1.14483" stroke-miterlimit="10" stroke-linecap="round" stroke-linejoin="round"/>
</svg>
