<svg width="40" height="40" viewBox="0 0 40 40" fill="none" xmlns="http://www.w3.org/2000/svg">
<path d="M34.5939 38.92H28.648C28.5046 38.92 28.3671 38.863 28.2657 38.7617C28.1644 38.6603 28.1074 38.5228 28.1074 38.3794V8.10917C28.1074 8.03137 28.1242 7.95448 28.1566 7.88376L31.1296 1.39728C31.1727 1.30321 31.2419 1.2235 31.329 1.16762C31.4161 1.11174 31.5175 1.08203 31.6209 1.08203C31.7244 1.08203 31.8257 1.11174 31.9128 1.16762C31.9999 1.2235 32.0692 1.30321 32.1123 1.39728L35.0853 7.88376C35.1177 7.95448 35.1345 8.03137 35.1344 8.10917V38.3794C35.1344 38.5228 35.0775 38.6603 34.9761 38.7617C34.8748 38.863 34.7373 38.92 34.5939 38.92ZM29.1885 37.8389H34.0534V8.22701L31.6209 2.91998L29.1885 8.22701V37.8389Z" fill="#2AB939"/>
<path d="M22.9728 38.92H17.0269C16.8835 38.92 16.746 38.863 16.6446 38.7617C16.5433 38.6603 16.4863 38.5228 16.4863 38.3794V8.10917C16.4863 8.03137 16.5031 7.95448 16.5355 7.88376L19.5085 1.39728C19.5516 1.30321 19.6209 1.2235 19.7079 1.16762C19.795 1.11174 19.8964 1.08203 19.9998 1.08203C20.1033 1.08203 20.2046 1.11174 20.2917 1.16762C20.3788 1.2235 20.4481 1.30321 20.4912 1.39728L23.4642 7.88376C23.4966 7.95448 23.5134 8.03137 23.5134 8.10917V38.3794C23.5134 38.5228 23.4564 38.6603 23.355 38.7617C23.2537 38.863 23.1162 38.92 22.9728 38.92ZM17.5674 37.8389H22.4323V8.22701L19.9998 2.91998L17.5674 8.22701V37.8389Z" fill="#2AB939"/>
<path d="M11.3517 38.92H5.40577C5.26241 38.92 5.12493 38.863 5.02356 38.7617C4.92218 38.6603 4.86523 38.5228 4.86523 38.3794V8.10917C4.86522 8.03137 4.882 7.95448 4.91442 7.88376L7.8874 1.39728C7.93053 1.30321 7.99976 1.2235 8.08685 1.16762C8.17395 1.11174 8.27526 1.08203 8.37875 1.08203C8.48223 1.08203 8.58354 1.11174 8.67064 1.16762C8.75774 1.2235 8.82697 1.30321 8.8701 1.39728L11.8431 7.88376C11.8755 7.95448 11.8923 8.03137 11.8923 8.10917V38.3794C11.8923 38.5228 11.8353 38.6603 11.7339 38.7617C11.6326 38.863 11.4951 38.92 11.3517 38.92ZM5.94632 37.8389H10.8112V8.22701L8.37875 2.91998L5.94632 8.22701V37.8389Z" fill="#2AB939"/>
<path d="M28.6488 15.1358H22.9732C22.8298 15.1358 22.6923 15.0788 22.5909 14.9774C22.4896 14.8761 22.4326 14.7386 22.4326 14.5952C22.4326 14.4519 22.4896 14.3144 22.5909 14.213C22.6923 14.1116 22.8298 14.0547 22.9732 14.0547H28.6488C28.7922 14.0547 28.9297 14.1116 29.0311 14.213C29.1324 14.3144 29.1894 14.4519 29.1894 14.5952C29.1894 14.7386 29.1324 14.8761 29.0311 14.9774C28.9297 15.0788 28.7922 15.1358 28.6488 15.1358Z" fill="#2AB939"/>
<path d="M28.6488 11.8936H22.9732C22.8298 11.8936 22.6923 11.8366 22.5909 11.7353C22.4896 11.6339 22.4326 11.4964 22.4326 11.353C22.4326 11.2097 22.4896 11.0722 22.5909 10.9708C22.6923 10.8694 22.8298 10.8125 22.9732 10.8125H28.6488C28.7922 10.8125 28.9297 10.8694 29.0311 10.9708C29.1324 11.0722 29.1894 11.2097 29.1894 11.353C29.1894 11.4964 29.1324 11.6339 29.0311 11.7353C28.9297 11.8366 28.7922 11.8936 28.6488 11.8936Z" fill="#2AB939"/>
<path d="M5.40538 15.1368H2.17349C1.88389 15.1364 1.60627 15.0212 1.40149 14.8164C1.19672 14.6116 1.08148 14.334 1.08105 14.0444V11.9049C1.08148 11.6153 1.19672 11.3377 1.40149 11.1329C1.60627 10.9282 1.88389 10.8129 2.17349 10.8125H5.40538C5.54874 10.8125 5.68623 10.8694 5.7876 10.9708C5.88897 11.0722 5.94592 11.2097 5.94592 11.353C5.94592 11.4964 5.88897 11.6339 5.7876 11.7353C5.68623 11.8366 5.54874 11.8936 5.40538 11.8936H2.17349L2.16214 14.0444L5.40538 14.0557C5.54874 14.0557 5.68623 14.1127 5.7876 14.2141C5.88897 14.3154 5.94592 14.4529 5.94592 14.5963C5.94592 14.7396 5.88897 14.8771 5.7876 14.9785C5.68623 15.0799 5.54874 15.1368 5.40538 15.1368Z" fill="#2AB939"/>
<path d="M17.0268 15.1358H11.3511C11.2077 15.1358 11.0702 15.0788 10.9689 14.9774C10.8675 14.8761 10.8105 14.7386 10.8105 14.5952C10.8105 14.4519 10.8675 14.3144 10.9689 14.213C11.0702 14.1116 11.2077 14.0547 11.3511 14.0547H17.0268C17.1701 14.0547 17.3076 14.1116 17.409 14.213C17.5104 14.3144 17.5673 14.4519 17.5673 14.5952C17.5673 14.7386 17.5104 14.8761 17.409 14.9774C17.3076 15.0788 17.1701 15.1358 17.0268 15.1358Z" fill="#2AB939"/>
<path d="M17.0268 11.8936H11.3511C11.2077 11.8936 11.0702 11.8366 10.9689 11.7353C10.8675 11.6339 10.8105 11.4964 10.8105 11.353C10.8105 11.2097 10.8675 11.0722 10.9689 10.9708C11.0702 10.8694 11.2077 10.8125 11.3511 10.8125H17.0268C17.1701 10.8125 17.3076 10.8694 17.409 10.9708C17.5104 11.0722 17.5673 11.2097 17.5673 11.353C17.5673 11.4964 17.5104 11.6339 17.409 11.7353C17.3076 11.8366 17.1701 11.8936 17.0268 11.8936Z" fill="#2AB939"/>
<path d="M37.8271 15.1368H34.5952C34.4519 15.1368 34.3144 15.0799 34.213 14.9785C34.1116 14.8771 34.0547 14.7396 34.0547 14.5963C34.0547 14.4529 34.1116 14.3154 34.213 14.2141C34.3144 14.1127 34.4519 14.0557 34.5952 14.0557H37.8271L37.8385 11.9049L34.5952 11.8936C34.4519 11.8936 34.3144 11.8366 34.213 11.7353C34.1116 11.6339 34.0547 11.4964 34.0547 11.353C34.0547 11.2097 34.1116 11.0722 34.213 10.9708C34.3144 10.8694 34.4519 10.8125 34.5952 10.8125H37.8271C38.1167 10.8129 38.3943 10.9282 38.5991 11.1329C38.8039 11.3377 38.9191 11.6153 38.9196 11.9049V14.0444C38.9191 14.334 38.8039 14.6116 38.5991 14.8164C38.3943 15.0212 38.1167 15.1364 37.8271 15.1368Z" fill="#2AB939"/>
<path d="M28.6488 24.3233H22.9732C22.8298 24.3233 22.6923 24.2663 22.5909 24.1649C22.4896 24.0636 22.4326 23.9261 22.4326 23.7827C22.4326 23.6394 22.4896 23.5019 22.5909 23.4005C22.6923 23.2991 22.8298 23.2422 22.9732 23.2422H28.6488C28.7922 23.2422 28.9297 23.2991 29.0311 23.4005C29.1324 23.5019 29.1894 23.6394 29.1894 23.7827C29.1894 23.9261 29.1324 24.0636 29.0311 24.1649C28.9297 24.2663 28.7922 24.3233 28.6488 24.3233Z" fill="#2AB939"/>
<path d="M28.6488 21.0811H22.9732C22.8298 21.0811 22.6923 21.0241 22.5909 20.9228C22.4896 20.8214 22.4326 20.6839 22.4326 20.5405C22.4326 20.3972 22.4896 20.2597 22.5909 20.1583C22.6923 20.0569 22.8298 20 22.9732 20H28.6488C28.7922 20 28.9297 20.0569 29.0311 20.1583C29.1324 20.2597 29.1894 20.3972 29.1894 20.5405C29.1894 20.6839 29.1324 20.8214 29.0311 20.9228C28.9297 21.0241 28.7922 21.0811 28.6488 21.0811Z" fill="#2AB939"/>
<path d="M5.40538 24.3243H2.17349C1.88389 24.3239 1.60627 24.2087 1.40149 24.0039C1.19672 23.7991 1.08148 23.5215 1.08105 23.2319V21.0924C1.08148 20.8028 1.19672 20.5252 1.40149 20.3204C1.60627 20.1157 1.88389 20.0004 2.17349 20H5.40538C5.54874 20 5.68623 20.0569 5.7876 20.1583C5.88897 20.2597 5.94592 20.3972 5.94592 20.5405C5.94592 20.6839 5.88897 20.8214 5.7876 20.9228C5.68623 21.0241 5.54874 21.0811 5.40538 21.0811H2.17349L2.16214 23.2319L5.40538 23.2432C5.54874 23.2432 5.68623 23.3002 5.7876 23.4016C5.88897 23.5029 5.94592 23.6404 5.94592 23.7838C5.94592 23.9271 5.88897 24.0646 5.7876 24.166C5.68623 24.2674 5.54874 24.3243 5.40538 24.3243Z" fill="#2AB939"/>
<path d="M17.0268 24.3233H11.3511C11.2077 24.3233 11.0702 24.2663 10.9689 24.1649C10.8675 24.0636 10.8105 23.9261 10.8105 23.7827C10.8105 23.6394 10.8675 23.5019 10.9689 23.4005C11.0702 23.2991 11.2077 23.2422 11.3511 23.2422H17.0268C17.1701 23.2422 17.3076 23.2991 17.409 23.4005C17.5104 23.5019 17.5673 23.6394 17.5673 23.7827C17.5673 23.9261 17.5104 24.0636 17.409 24.1649C17.3076 24.2663 17.1701 24.3233 17.0268 24.3233Z" fill="#2AB939"/>
<path d="M17.0268 21.0811H11.3511C11.2077 21.0811 11.0702 21.0241 10.9689 20.9228C10.8675 20.8214 10.8105 20.6839 10.8105 20.5405C10.8105 20.3972 10.8675 20.2597 10.9689 20.1583C11.0702 20.0569 11.2077 20 11.3511 20H17.0268C17.1701 20 17.3076 20.0569 17.409 20.1583C17.5104 20.2597 17.5673 20.3972 17.5673 20.5405C17.5673 20.6839 17.5104 20.8214 17.409 20.9228C17.3076 21.0241 17.1701 21.0811 17.0268 21.0811Z" fill="#2AB939"/>
<path d="M37.8261 24.3243H34.5943C34.4509 24.3243 34.3134 24.2674 34.212 24.166C34.1107 24.0646 34.0537 23.9271 34.0537 23.7838C34.0537 23.6404 34.1107 23.5029 34.212 23.4016C34.3134 23.3002 34.4509 23.2432 34.5943 23.2432H37.8261L37.8375 21.0924L34.5943 21.0811C34.4509 21.0811 34.3134 21.0241 34.212 20.9228C34.1107 20.8214 34.0537 20.6839 34.0537 20.5405C34.0537 20.3972 34.1107 20.2597 34.212 20.1583C34.3134 20.0569 34.4509 20 34.5943 20H37.8261C38.1157 20.0004 38.3934 20.1157 38.5981 20.3204C38.8029 20.5252 38.9181 20.8028 38.9186 21.0924V23.2319C38.9181 23.5215 38.8029 23.7991 38.5981 24.0039C38.3934 24.2087 38.1157 24.3239 37.8261 24.3243Z" fill="#2AB939"/>
<path d="M28.6488 33.5147H22.9732C22.8298 33.5147 22.6923 33.4577 22.5909 33.3564C22.4896 33.255 22.4326 33.1175 22.4326 32.9741C22.4326 32.8308 22.4896 32.6933 22.5909 32.5919C22.6923 32.4905 22.8298 32.4336 22.9732 32.4336H28.6488C28.7922 32.4336 28.9297 32.4905 29.0311 32.5919C29.1324 32.6933 29.1894 32.8308 29.1894 32.9741C29.1894 33.1175 29.1324 33.255 29.0311 33.3564C28.9297 33.4577 28.7922 33.5147 28.6488 33.5147Z" fill="#2AB939"/>
<path d="M28.6488 30.2686H22.9732C22.8298 30.2686 22.6923 30.2116 22.5909 30.1103C22.4896 30.0089 22.4326 29.8714 22.4326 29.728C22.4326 29.5847 22.4896 29.4472 22.5909 29.3458C22.6923 29.2444 22.8298 29.1875 22.9732 29.1875H28.6488C28.7922 29.1875 28.9297 29.2444 29.0311 29.3458C29.1324 29.4472 29.1894 29.5847 29.1894 29.728C29.1894 29.8714 29.1324 30.0089 29.0311 30.1103C28.9297 30.2116 28.7922 30.2686 28.6488 30.2686Z" fill="#2AB939"/>
<path d="M5.40538 33.5118H2.17349C1.88389 33.5114 1.60627 33.3962 1.40149 33.1914C1.19672 32.9866 1.08148 32.709 1.08105 32.4194V30.2799C1.08148 29.9903 1.19672 29.7127 1.40149 29.5079C1.60627 29.3032 1.88389 29.1879 2.17349 29.1875H5.40538C5.54874 29.1875 5.68623 29.2444 5.7876 29.3458C5.88897 29.4472 5.94592 29.5847 5.94592 29.728C5.94592 29.8714 5.88897 30.0089 5.7876 30.1103C5.68623 30.2116 5.54874 30.2686 5.40538 30.2686H2.17349L2.16214 32.4194L5.40538 32.4307C5.54874 32.4307 5.68623 32.4877 5.7876 32.5891C5.88897 32.6904 5.94592 32.8279 5.94592 32.9713C5.94592 33.1146 5.88897 33.2521 5.7876 33.3535C5.68623 33.4549 5.54874 33.5118 5.40538 33.5118Z" fill="#2AB939"/>
<path d="M17.0268 33.5147H11.3511C11.2077 33.5147 11.0702 33.4577 10.9689 33.3564C10.8675 33.255 10.8105 33.1175 10.8105 32.9741C10.8105 32.8308 10.8675 32.6933 10.9689 32.5919C11.0702 32.4905 11.2077 32.4336 11.3511 32.4336H17.0268C17.1701 32.4336 17.3076 32.4905 17.409 32.5919C17.5104 32.6933 17.5673 32.8308 17.5673 32.9741C17.5673 33.1175 17.5104 33.255 17.409 33.3564C17.3076 33.4577 17.1701 33.5147 17.0268 33.5147Z" fill="#2AB939"/>
<path d="M17.0268 30.2686H11.3511C11.2077 30.2686 11.0702 30.2116 10.9689 30.1103C10.8675 30.0089 10.8105 29.8714 10.8105 29.728C10.8105 29.5847 10.8675 29.4472 10.9689 29.3458C11.0702 29.2444 11.2077 29.1875 11.3511 29.1875H17.0268C17.1701 29.1875 17.3076 29.2444 17.409 29.3458C17.5104 29.4472 17.5673 29.5847 17.5673 29.728C17.5673 29.8714 17.5104 30.0089 17.409 30.1103C17.3076 30.2116 17.1701 30.2686 17.0268 30.2686Z" fill="#2AB939"/>
<path d="M37.8271 33.5118H34.5952C34.4519 33.5118 34.3144 33.4549 34.213 33.3535C34.1116 33.2521 34.0547 33.1146 34.0547 32.9713C34.0547 32.8279 34.1116 32.6904 34.213 32.5891C34.3144 32.4877 34.4519 32.4307 34.5952 32.4307H37.8271L37.8385 30.2799L34.5952 30.2686C34.4519 30.2686 34.3144 30.2116 34.213 30.1103C34.1116 30.0089 34.0547 29.8714 34.0547 29.728C34.0547 29.5847 34.1116 29.4472 34.213 29.3458C34.3144 29.2444 34.4519 29.1875 34.5952 29.1875H37.8271C38.1167 29.1879 38.3943 29.3032 38.5991 29.5079C38.8039 29.7127 38.9191 29.9903 38.9196 30.2799V32.4194C38.9191 32.709 38.8039 32.9866 38.5991 33.1914C38.3943 33.3962 38.1167 33.5114 37.8271 33.5118Z" fill="#2AB939"/>
</svg>
