<svg width="40" height="40" viewBox="0 0 40 40" fill="none" xmlns="http://www.w3.org/2000/svg">
<path d="M16.0172 38.9205H15.8124C7.74265 38.8124 2.22427 32.2778 1.99346 32.0015C1.91818 31.9118 1.8741 31.8 1.86786 31.683C1.86162 31.566 1.89356 31.4502 1.95887 31.3529C4.2113 27.9578 8.32806 25.1226 9.89995 24.1156C3.48914 18.3129 1.62427 12.7761 1.20049 9.11236C0.72319 4.99019 1.8886 2.3156 1.93887 2.20371C1.9932 2.08162 2.09083 1.98399 2.21292 1.92965C2.32427 1.88046 4.99779 0.718301 9.11562 1.19776C12.7767 1.62317 18.3097 3.4929 24.1135 9.90371C25.121 8.33182 27.9556 4.21776 31.3513 1.96209C31.4481 1.89801 31.5631 1.86683 31.679 1.87316C31.795 1.87949 31.9058 1.92299 31.9951 1.99722C32.2735 2.22803 38.8021 7.74317 38.914 15.8124C38.9837 21.0826 36.2848 26.1594 30.8897 30.9053C26.2108 36.2243 21.2075 38.9205 16.0172 38.9205ZM3.09562 31.6097C4.27779 32.8837 9.22643 37.7524 15.8378 37.8394C20.7767 37.9107 25.5756 35.3221 30.1016 30.167C30.1169 30.1493 30.1333 30.1327 30.1508 30.1172C35.3124 25.5853 37.8967 20.7805 37.8324 15.8372C37.7448 9.22749 32.8789 4.281 31.6059 3.09884C27.8043 5.80154 24.687 11.0253 24.6556 11.0794C24.612 11.1529 24.5517 11.215 24.4794 11.2606C24.4072 11.3062 24.3252 11.3341 24.2401 11.3419C24.155 11.3497 24.0693 11.3373 23.99 11.3055C23.9106 11.2738 23.84 11.2237 23.7837 11.1594C13.6648 -0.430887 4.31779 2.31127 2.85022 2.84046C2.32427 4.30533 -0.407621 13.6945 11.1556 23.7853C11.2201 23.8416 11.2704 23.9124 11.3022 23.9918C11.334 24.0713 11.3465 24.1572 11.3387 24.2424C11.3308 24.3277 11.3028 24.4098 11.257 24.4821C11.2111 24.5544 11.1488 24.6148 11.0751 24.6583C11.0216 24.6918 5.79995 27.8075 3.09562 31.6097Z" fill="#2AB939"/>
<path d="M36.9973 37.5423C36.854 37.5423 36.7165 37.4853 36.6152 37.384L14.4892 15.2575C14.4376 15.2076 14.3964 15.148 14.3681 15.082C14.3398 15.0161 14.3249 14.9451 14.3242 14.8734C14.3236 14.8016 14.3373 14.7304 14.3645 14.664C14.3916 14.5976 14.4318 14.5372 14.4825 14.4864C14.5333 14.4357 14.5936 14.3956 14.6601 14.3684C14.7265 14.3412 14.7977 14.3275 14.8695 14.3281C14.9412 14.3288 15.0122 14.3437 15.0781 14.372C15.1441 14.4003 15.2037 14.4415 15.2536 14.4931L37.3795 36.6196C37.4551 36.6952 37.5065 36.7915 37.5274 36.8964C37.5482 37.0012 37.5375 37.1099 37.4966 37.2086C37.4557 37.3074 37.3865 37.3918 37.2976 37.4512C37.2087 37.5106 37.1042 37.5423 36.9973 37.5423Z" fill="#2AB939"/>
<path d="M21.3715 21.912H14.3374C14.1941 21.912 14.0566 21.8551 13.9552 21.7537C13.8538 21.6523 13.7969 21.5148 13.7969 21.3715C13.7969 21.2281 13.8538 21.0906 13.9552 20.9892C14.0566 20.8879 14.1941 20.8309 14.3374 20.8309H20.8309V14.3374C20.8309 14.1941 20.8879 14.0566 20.9892 13.9552C21.0906 13.8538 21.2281 13.7969 21.3715 13.7969C21.5148 13.7969 21.6523 13.8538 21.7537 13.9552C21.8551 14.0566 21.912 14.1941 21.912 14.3374V21.3715C21.912 21.5148 21.8551 21.6523 21.7537 21.7537C21.6523 21.8551 21.5148 21.912 21.3715 21.912Z" fill="#2AB939"/>
<path d="M26.3109 26.8534H19.2769C19.1335 26.8534 18.996 26.7965 18.8947 26.6951C18.7933 26.5937 18.7363 26.4562 18.7363 26.3129C18.7363 26.1695 18.7933 26.032 18.8947 25.9307C18.996 25.8293 19.1335 25.7723 19.2769 25.7723H25.7704V19.2788C25.7704 19.1355 25.8273 18.998 25.9287 18.8966C26.0301 18.7952 26.1676 18.7383 26.3109 18.7383C26.4543 18.7383 26.5918 18.7952 26.6931 18.8966C26.7945 18.998 26.8515 19.1355 26.8515 19.2788V26.3129C26.8515 26.4562 26.7945 26.5937 26.6931 26.6951C26.5918 26.7965 26.4543 26.8534 26.3109 26.8534Z" fill="#2AB939"/>
</svg>
