<svg width="40" height="40" viewBox="0 0 40 40" fill="none" xmlns="http://www.w3.org/2000/svg">
<path d="M5.56754 33.6644H2.70268C2.2726 33.6644 1.86013 33.4935 1.55602 33.1894C1.2519 32.8853 1.08105 32.4728 1.08105 32.0427V19.6919C1.08105 19.2619 1.2519 18.8494 1.55602 18.5453C1.86013 18.2412 2.2726 18.0703 2.70268 18.0703H5.56754C5.99762 18.0703 6.41009 18.2412 6.7142 18.5453C7.01831 18.8494 7.18916 19.2619 7.18916 19.6919V32.0427C7.18916 32.4728 7.01831 32.8853 6.7142 33.1894C6.41009 33.4935 5.99762 33.6644 5.56754 33.6644ZM2.70268 19.1514C2.55932 19.1514 2.42183 19.2083 2.32046 19.3097C2.21909 19.4111 2.16214 19.5486 2.16214 19.6919V32.0427C2.16214 32.1861 2.21909 32.3236 2.32046 32.425C2.42183 32.5263 2.55932 32.5833 2.70268 32.5833H5.56754C5.7109 32.5833 5.84839 32.5263 5.94976 32.425C6.05113 32.3236 6.10808 32.1861 6.10808 32.0427V19.6919C6.10808 19.5486 6.05113 19.4111 5.94976 19.3097C5.84839 19.2083 5.7109 19.1514 5.56754 19.1514H2.70268Z" fill="#2AB939"/>
<path d="M24.3576 28.2473H14.9862C14.8429 28.2473 14.7054 28.1904 14.604 28.089C14.5026 27.9876 14.4457 27.8502 14.4457 27.7068C14.4457 27.5634 14.5026 27.4259 14.604 27.3246C14.7054 27.2232 14.8429 27.1663 14.9862 27.1663H24.3576C24.7493 27.1663 25.1249 27.0107 25.4018 26.7337C25.6788 26.4568 25.8343 26.0812 25.8343 25.6895C25.8343 25.2978 25.6788 24.9222 25.4018 24.6453C25.1249 24.3683 24.7493 24.2127 24.3576 24.2127H21.0143C20.4341 24.2127 19.8605 24.0887 19.332 23.849C18.8035 23.6093 18.3324 23.2595 17.95 22.823C17.5825 22.4035 17.1295 22.0674 16.6216 21.837C16.1136 21.6067 15.5624 21.4875 15.0046 21.4873H6.64894C6.50558 21.4873 6.36809 21.4304 6.26672 21.329C6.16535 21.2276 6.1084 21.0902 6.1084 20.9468C6.1084 20.8034 6.16535 20.6659 6.26672 20.5646C6.36809 20.4632 6.50558 20.4063 6.64894 20.4063H15.0046C15.7162 20.406 16.4195 20.5577 17.0677 20.8513C17.7159 21.1448 18.2939 21.5734 18.763 22.1084C19.044 22.4291 19.3901 22.686 19.7784 22.8621C20.1666 23.0382 20.588 23.1294 21.0143 23.1295H24.3576C25.036 23.1295 25.6866 23.399 26.1663 23.8787C26.6459 24.3584 26.9154 25.009 26.9154 25.6873C26.9154 26.3657 26.6459 27.0163 26.1663 27.496C25.6866 27.9757 25.036 28.2452 24.3576 28.2452V28.2473Z" fill="#2AB939"/>
<path d="M19.902 35.2272C18.5591 35.2273 17.228 34.9782 15.976 34.4926L6.46251 31.0148C6.33131 30.9631 6.22551 30.8622 6.16768 30.7336C6.10984 30.605 6.10455 30.4588 6.15293 30.3264C6.20131 30.1939 6.29954 30.0856 6.42665 30.0246C6.55376 29.9636 6.6997 29.9546 6.83332 29.9996L16.3544 33.4807C17.6628 33.9897 19.0654 34.2109 20.467 34.1294C21.8685 34.0479 23.236 33.6655 24.4766 33.0083L37.696 26.0088C37.0861 25.4291 36.3266 25.0309 35.5028 24.859C34.679 24.6871 33.8237 24.7484 33.0328 25.0359L25.9787 27.6137C25.9116 27.6401 25.8399 27.6529 25.7678 27.6512C25.6957 27.6495 25.6247 27.6333 25.5589 27.6038C25.4931 27.5742 25.4339 27.5317 25.3848 27.4789C25.3357 27.4261 25.2976 27.364 25.2729 27.2962C25.2481 27.2285 25.2372 27.1565 25.2407 27.0844C25.2442 27.0124 25.2621 26.9418 25.2933 26.8768C25.3245 26.8118 25.3685 26.7536 25.4225 26.7059C25.4765 26.6581 25.5396 26.6216 25.6079 26.5986L32.662 24.0202C33.6631 23.6569 34.747 23.586 35.7869 23.8157C36.8269 24.0454 37.78 24.5663 38.5349 25.3175L38.6636 25.4467C38.7599 25.5429 38.8322 25.6604 38.8749 25.7897C38.9175 25.919 38.9291 26.0565 38.909 26.1912C38.8888 26.3258 38.8373 26.4539 38.7586 26.565C38.6799 26.6761 38.5763 26.7672 38.456 26.831L24.9847 33.9661C23.4188 34.7951 21.6738 35.2281 19.902 35.2272Z" fill="#2AB939"/>
<path d="M30.714 25.6844C30.6989 25.6852 30.6837 25.6852 30.6686 25.6844C30.5258 25.6726 30.3935 25.6045 30.3008 25.4951C30.2082 25.3857 30.1628 25.244 30.1746 25.1012C30.1951 24.8563 30.2108 24.6066 30.2108 24.3569C30.2105 22.8349 29.688 21.3592 28.7306 20.1761C27.7733 18.9929 26.439 18.1741 24.9507 17.8562C23.4623 17.5384 21.9099 17.7408 20.5528 18.4297C19.1957 19.1185 18.116 20.2521 17.494 21.6412C17.466 21.7072 17.425 21.767 17.3736 21.817C17.3222 21.867 17.2613 21.9063 17.1946 21.9326C17.1278 21.9589 17.0565 21.9716 16.9848 21.9701C16.9131 21.9685 16.8424 21.9527 16.7768 21.9235C16.7113 21.8943 16.6522 21.8524 16.603 21.8002C16.5539 21.748 16.5156 21.6865 16.4904 21.6193C16.4652 21.5521 16.4537 21.4806 16.4565 21.4089C16.4592 21.3372 16.4762 21.2668 16.5065 21.2017C17.2291 19.5866 18.484 18.2683 20.0615 17.467C21.6391 16.6657 23.4438 16.4299 25.1742 16.7989C26.9047 17.1679 28.4562 18.1195 29.5696 19.4946C30.683 20.8698 31.291 22.5853 31.2919 24.3547C31.2919 24.6347 31.2751 24.9142 31.2519 25.1888C31.2406 25.3237 31.1791 25.4496 31.0795 25.5414C30.9799 25.6332 30.8495 25.6842 30.714 25.6844Z" fill="#2AB939"/>
<path d="M23.8493 17.7127C23.8367 17.7127 23.8242 17.7127 23.812 17.7127C23.6691 17.7029 23.5359 17.6367 23.4418 17.5288C23.3476 17.4208 23.3002 17.2799 23.3098 17.137C23.5958 12.9414 24.679 9.70838 26.5282 7.52676C27.5891 6.252 28.9912 5.30588 30.5704 4.79919C30.638 4.77754 30.7092 4.76942 30.7799 4.77529C30.8507 4.78116 30.9196 4.80091 30.9827 4.83341C31.0458 4.86591 31.1019 4.91053 31.1478 4.96471C31.1937 5.01889 31.2284 5.08158 31.2501 5.14919C31.2717 5.2168 31.2799 5.28802 31.274 5.35877C31.2681 5.42952 31.2484 5.49842 31.2159 5.56154C31.1834 5.62466 31.1388 5.68076 31.0846 5.72664C31.0304 5.77251 30.9677 5.80727 30.9001 5.82892C29.5135 6.27365 28.2825 7.10451 27.3514 8.22405C25.6541 10.2241 24.6569 13.2511 24.3866 17.2084C24.3774 17.3448 24.3169 17.4727 24.2172 17.5663C24.1175 17.6599 23.986 17.7122 23.8493 17.7127Z" fill="#2AB939"/>
<path d="M21.1851 14.3113C20.3944 14.3121 19.6103 14.1672 18.8722 13.8837C17.9279 13.5064 17.0792 12.9241 16.3874 12.1788C15.6956 11.4335 15.1781 10.5438 14.8722 9.57398C14.8308 9.45382 14.8332 9.32293 14.8787 9.20431C14.9243 9.08569 15.0102 8.98691 15.1214 8.92533C15.9922 8.39542 16.9729 8.07213 17.9881 7.98027C19.0034 7.88841 20.0262 8.03043 20.978 8.39542C21.9298 8.76041 22.7853 9.33867 23.4788 10.0858C24.1723 10.8329 24.6854 11.729 24.9787 12.7053C25.02 12.8254 25.0178 12.9563 24.9723 13.0749C24.9269 13.1935 24.8411 13.2923 24.73 13.354C23.6491 13.9694 22.429 14.2989 21.1851 14.3113ZM16.0597 9.65722C16.3358 10.3889 16.7636 11.0538 17.3151 11.6082C17.8666 12.1627 18.5292 12.5941 19.2593 12.8741C19.9895 13.1541 20.7706 13.2764 21.5514 13.2329C22.3322 13.1893 23.095 12.981 23.7895 12.6215C23.5135 11.8898 23.0858 11.2247 22.5343 10.6702C21.9829 10.1156 21.3203 9.68416 20.5901 9.40413C19.8599 9.1241 19.0786 9.00188 18.2978 9.0455C17.517 9.08912 16.7542 9.2976 16.0597 9.65722Z" fill="#2AB939"/>
<path d="M29.683 11.9323C28.87 11.9214 28.0694 11.7306 27.3388 11.3736C26.6083 11.0165 25.9658 10.5022 25.4576 9.86744C25.3759 9.77007 25.3311 9.647 25.3311 9.51987C25.3311 9.39274 25.3759 9.26967 25.4576 9.1723C25.9634 8.53266 26.6049 8.01334 27.3358 7.65185C28.0667 7.29036 28.8688 7.09573 29.6841 7.08203H29.6987C30.5117 7.09273 31.3123 7.2834 32.0429 7.64033C32.7735 7.99726 33.4159 8.51159 33.9241 9.14636C34.0058 9.24372 34.0507 9.36679 34.0507 9.49392C34.0507 9.62106 34.0058 9.74412 33.9241 9.84149C33.418 10.4812 32.7761 11.0004 32.0448 11.3616C31.3135 11.7228 30.511 11.917 29.6955 11.9301L29.683 11.9323ZM26.6019 9.51663C27.0014 9.93221 27.4795 10.2642 28.0085 10.4933C28.5374 10.7224 29.1066 10.8441 29.683 10.8512H29.6944C30.2726 10.8425 30.8433 10.7185 31.373 10.4864C31.9027 10.2544 32.3808 9.91899 32.7792 9.49987C32.3796 9.08455 31.9014 8.75276 31.3725 8.52375C30.8436 8.29474 30.2745 8.17307 29.6982 8.16581H29.6868C29.1089 8.17422 28.5385 8.29782 28.009 8.5294C27.4795 8.76098 27.0015 9.09587 26.603 9.51446L26.6019 9.51663Z" fill="#2AB939"/>
</svg>
