<svg width="65" height="66" viewBox="0 0 65 66" fill="none" xmlns="http://www.w3.org/2000/svg">
<path d="M30.3112 38.9416C30.1288 38.9416 29.9509 38.8849 29.8022 38.7792C29.6535 38.6735 29.5414 38.5242 29.4814 38.3519C29.4215 38.1797 29.4166 37.993 29.4676 37.8179C29.5185 37.6427 29.6227 37.4878 29.7657 37.3745C44.4663 25.7281 62.5697 34.3309 62.7497 34.4188C62.8535 34.4693 62.9464 34.5398 63.023 34.6262C63.0995 34.7126 63.1583 34.8132 63.196 34.9224C63.2337 35.0315 63.2495 35.147 63.2426 35.2622C63.2356 35.3775 63.2061 35.4902 63.1555 35.5941C63.105 35.6979 63.0345 35.7907 62.9481 35.8673C62.8617 35.9439 62.7611 36.0027 62.6519 36.0404C62.5428 36.078 62.4273 36.0939 62.3121 36.0869C62.1968 36.08 62.0841 36.0504 61.9803 35.9999C61.809 35.9173 44.6762 27.802 30.8567 38.7536C30.7012 38.8759 30.509 38.9421 30.3112 38.9416Z" fill="white"/>
<path d="M35.0143 41.5733C34.8367 41.573 34.6633 41.5187 34.5171 41.4178C21.1148 32.1931 3.04309 36.8652 2.86214 36.9135C2.63698 36.9736 2.39717 36.9418 2.19546 36.8251C1.99375 36.7084 1.84667 36.5163 1.78657 36.2912C1.72646 36.066 1.75826 35.8262 1.87497 35.6245C1.99168 35.4228 2.18374 35.2757 2.4089 35.2156C3.18011 35.0101 21.4495 30.2923 35.5132 39.9712C35.6678 40.0774 35.7842 40.2304 35.8456 40.4076C35.9069 40.5848 35.91 40.777 35.8542 40.9561C35.7984 41.1352 35.6868 41.2917 35.5357 41.4027C35.3846 41.5138 35.2019 41.5736 35.0143 41.5733Z" fill="white"/>
<path d="M43.3411 49.1586C43.1632 49.1588 42.9894 49.1049 42.8428 49.0041C42.6961 48.9033 42.5836 48.7604 42.52 48.5942C42.4564 48.4281 42.4447 48.2465 42.4866 48.0736C42.5284 47.9006 42.6218 47.7445 42.7544 47.6258C49.8921 41.233 62.1077 44.8958 62.6233 45.0548C62.7336 45.0887 62.8361 45.144 62.925 45.2175C63.0139 45.2911 63.0874 45.3814 63.1414 45.4834C63.1954 45.5853 63.2288 45.6969 63.2397 45.8118C63.2505 45.9266 63.2387 46.0425 63.2048 46.1528C63.1709 46.263 63.1156 46.3656 63.042 46.4545C62.9685 46.5434 62.8782 46.6169 62.7762 46.6709C62.6742 46.7249 62.5627 46.7583 62.4478 46.7692C62.3329 46.78 62.2171 46.7682 62.1068 46.7343C61.99 46.6982 50.3225 43.2058 43.9244 48.9302C43.7651 49.0762 43.5572 49.1576 43.3411 49.1586Z" fill="white"/>
<path d="M4.29886 57.7687C4.08454 57.7687 3.87373 57.7582 3.66555 57.7389C3.43678 57.7133 3.2272 57.5989 3.08189 57.4204C2.93658 57.2419 2.86716 57.0134 2.88858 56.7842C2.90999 56.555 3.02052 56.3434 3.19638 56.1949C3.37224 56.0463 3.59938 55.9728 3.82893 55.99C5.84042 56.1727 8.43515 55.1011 11.3189 52.877C20.454 45.8386 32.125 43.6708 42.5487 47.0797C44.925 47.8349 47.2265 48.8078 49.4238 49.9863C49.524 50.0434 49.612 50.1197 49.6828 50.2108C49.7536 50.3019 49.8057 50.4061 49.8362 50.5173C49.8667 50.6286 49.875 50.7447 49.8606 50.8592C49.8462 50.9737 49.8094 51.0842 49.7523 51.1844C49.6952 51.2846 49.6189 51.3727 49.5278 51.4434C49.4367 51.5142 49.3325 51.5663 49.2213 51.5968C49.11 51.6273 48.9939 51.6356 48.8794 51.6212C48.7649 51.6068 48.6544 51.57 48.5542 51.5129C46.4583 50.3965 44.2657 49.4719 42.0033 48.7504C36.9914 47.1878 31.6736 46.8737 26.5127 47.8354C21.3517 48.7971 16.504 51.0055 12.3914 54.2684C9.37677 56.5935 6.65819 57.7687 4.29886 57.7687Z" fill="white"/>
<path d="M16.1256 51.6243C16.0045 51.6243 15.8847 51.5992 15.7738 51.5507C15.6628 51.5022 15.5631 51.4312 15.4809 51.3423C10.417 45.8604 3.33115 49.3387 3.0325 49.4881C2.8266 49.5788 2.59372 49.5871 2.38189 49.5112C2.17006 49.4353 1.99544 49.281 1.89404 49.0801C1.79264 48.8793 1.7722 48.6471 1.83694 48.4316C1.90168 48.2161 2.04665 48.0337 2.24196 47.9219C2.3298 47.878 10.8026 43.682 16.7747 50.1477C16.8907 50.2731 16.9676 50.4296 16.996 50.598C17.0244 50.7664 17.0031 50.9395 16.9347 51.096C16.8663 51.2525 16.7537 51.3857 16.6108 51.4792C16.4679 51.5727 16.3008 51.6225 16.13 51.6225L16.1256 51.6243Z" fill="white"/>
<path d="M62.3645 64.3697C62.2242 64.3698 62.0859 64.3363 61.9612 64.2719C61.8365 64.2076 61.729 64.1143 61.6478 63.9999C54.2509 53.5779 32.6428 55.6764 32.4259 55.6992C32.31 55.7135 32.1924 55.7045 32.0801 55.6727C31.9677 55.641 31.8628 55.5872 31.7715 55.5144C31.6802 55.4417 31.6043 55.3514 31.5482 55.249C31.4922 55.1466 31.4571 55.034 31.4451 54.9179C31.4331 54.8018 31.4443 54.6844 31.4782 54.5727C31.512 54.4609 31.5678 54.3571 31.6423 54.2671C31.7168 54.1772 31.8084 54.103 31.9119 54.049C32.0154 53.9949 32.1286 53.962 32.2449 53.9521C36.3411 53.6106 40.4613 53.6859 44.5422 54.177C53.4701 55.2653 59.7083 58.2281 63.083 62.9836C63.1762 63.1152 63.2314 63.2699 63.2425 63.4308C63.2537 63.5916 63.2203 63.7524 63.1461 63.8956C63.0719 64.0387 62.9597 64.1587 62.8218 64.2423C62.684 64.326 62.5258 64.37 62.3645 64.3697Z" fill="white"/>
<path d="M27.4931 24.0154C26.1002 24.0152 24.7387 23.602 23.5806 22.828C22.4225 22.054 21.5199 20.954 20.987 19.6671C20.4541 18.3802 20.3148 16.9641 20.5866 15.598C20.8585 14.2319 21.5293 12.9771 22.5143 11.9922C23.4993 11.0073 24.7542 10.3366 26.1203 10.065C27.4865 9.79327 28.9025 9.9328 30.1894 10.4659C31.4763 10.999 32.5761 11.9017 33.35 13.0598C34.1238 14.218 34.5368 15.5796 34.5368 16.9725C34.5348 18.8399 33.792 20.6302 32.4714 21.9506C31.1509 23.2709 29.3605 24.0135 27.4931 24.0154ZM27.4931 11.6864C26.4477 11.6866 25.4258 11.9968 24.5566 12.5777C23.6874 13.1587 23.01 13.9843 22.6101 14.9502C22.2101 15.9162 22.1055 16.979 22.3096 18.0043C22.5137 19.0297 23.0172 19.9715 23.7565 20.7107C24.4958 21.4498 25.4377 21.9532 26.4631 22.1571C27.4884 22.361 28.5513 22.2563 29.5171 21.8561C30.483 21.456 31.3085 20.7785 31.8893 19.9092C32.4701 19.04 32.7801 18.018 32.7801 16.9725C32.7794 15.5703 32.2222 14.2257 31.231 13.2339C30.2397 12.2422 28.8954 11.6843 27.4931 11.6829V11.6864Z" fill="white"/>
<path d="M27.4936 8.29337C27.2607 8.29337 27.0372 8.20083 26.8725 8.0361C26.7078 7.87137 26.6152 7.64795 26.6152 7.41499V3.33932C26.6152 3.22397 26.638 3.10974 26.6821 3.00318C26.7262 2.89661 26.7909 2.79977 26.8725 2.71821C26.9541 2.63664 27.0509 2.57194 27.1575 2.5278C27.264 2.48366 27.3783 2.46094 27.4936 2.46094C27.609 2.46094 27.7232 2.48366 27.8298 2.5278C27.9363 2.57194 28.0332 2.63664 28.1147 2.71821C28.1963 2.79977 28.261 2.89661 28.3051 3.00318C28.3493 3.10974 28.372 3.22397 28.372 3.33932V7.41499C28.372 7.64795 28.2794 7.87137 28.1147 8.0361C27.95 8.20083 27.7266 8.29337 27.4936 8.29337Z" fill="white"/>
<path d="M22.7186 9.57336C22.5642 9.57351 22.4126 9.53299 22.2789 9.45589C22.1452 9.37879 22.0342 9.26782 21.957 9.13417L19.9174 5.60309C19.801 5.40123 19.7694 5.16136 19.8298 4.93626C19.8902 4.71116 20.0375 4.51926 20.2394 4.40278C20.4412 4.2863 20.6811 4.25478 20.9062 4.31515C21.1313 4.37553 21.3232 4.52285 21.4397 4.72471L23.4784 8.25579C23.5554 8.38925 23.596 8.54064 23.5961 8.69475C23.5961 8.84887 23.5556 9.00028 23.4786 9.13378C23.4016 9.26728 23.2909 9.37818 23.1575 9.45534C23.024 9.5325 22.8727 9.5732 22.7186 9.57336Z" fill="white"/>
<path d="M19.2197 13.0699C19.0656 13.0702 18.9142 13.0299 18.7806 12.9531L15.2486 10.9135C15.0485 10.7962 14.9029 10.6045 14.8436 10.3802C14.7843 10.156 14.8162 9.9174 14.9321 9.71653C15.0481 9.51565 15.2388 9.3688 15.4627 9.30803C15.6865 9.24726 15.9253 9.27749 16.127 9.39214L19.6589 11.4309C19.8264 11.5275 19.9572 11.6768 20.0312 11.8554C20.1052 12.034 20.1182 12.2321 20.0682 12.4189C20.0181 12.6056 19.9078 12.7707 19.7544 12.8884C19.601 13.0061 19.4131 13.0699 19.2197 13.0699Z" fill="white"/>
<path d="M17.9411 17.8466H13.8628C13.6298 17.8466 13.4064 17.7541 13.2416 17.5893C13.0769 17.4246 12.9844 17.2012 12.9844 16.9682C12.9844 16.7353 13.0769 16.5118 13.2416 16.3471C13.4064 16.1824 13.6298 16.0898 13.8628 16.0898H17.9411C18.174 16.0898 18.3974 16.1824 18.5622 16.3471C18.7269 16.5118 18.8194 16.7353 18.8194 16.9682C18.8194 17.2012 18.7269 17.4246 18.5622 17.5893C18.3974 17.7541 18.174 17.8466 17.9411 17.8466Z" fill="white"/>
<path d="M15.6894 24.6625C15.4958 24.6629 15.3075 24.5992 15.1538 24.4815C15.0001 24.3637 14.8896 24.1984 14.8395 24.0114C14.7894 23.8244 14.8025 23.626 14.8768 23.4472C14.9511 23.2684 15.0824 23.1191 15.2502 23.0226L18.7822 20.9839C18.8821 20.9253 18.9927 20.8871 19.1074 20.8714C19.2222 20.8557 19.339 20.8629 19.451 20.8925C19.563 20.9221 19.668 20.9735 19.76 21.0439C19.852 21.1143 19.9292 21.2021 19.9871 21.3025C20.0451 21.4028 20.0826 21.5136 20.0975 21.6284C20.1124 21.7433 20.1045 21.86 20.0741 21.9718C20.0438 22.0836 19.9916 22.1883 19.9206 22.2798C19.8497 22.3714 19.7613 22.448 19.6606 22.5052L16.1277 24.5413C15.995 24.6198 15.8437 24.6617 15.6894 24.6625Z" fill="white"/>
<path d="M20.6782 29.6544C20.524 29.6544 20.3725 29.6138 20.239 29.5367C20.1055 29.4596 19.9946 29.3487 19.9175 29.2152C19.8404 29.0817 19.7998 28.9302 19.7998 28.776C19.7998 28.6218 19.8404 28.4704 19.9175 28.3368L21.9597 24.8075C22.017 24.7068 22.0936 24.6184 22.1851 24.5475C22.2767 24.4765 22.3814 24.4243 22.4932 24.394C22.605 24.3636 22.7216 24.3557 22.8365 24.3706C22.9514 24.3855 23.0622 24.423 23.1625 24.481C23.2628 24.5389 23.3507 24.6161 23.4211 24.7081C23.4914 24.8001 23.5429 24.9052 23.5725 25.0171C23.6021 25.1291 23.6093 25.2459 23.5936 25.3607C23.5779 25.4754 23.5397 25.586 23.4811 25.6859L21.4423 29.2179C21.3646 29.3514 21.253 29.4621 21.1189 29.5387C20.9847 29.6154 20.8327 29.6553 20.6782 29.6544Z" fill="white"/>
<path d="M27.4936 31.4822C27.2607 31.4822 27.0372 31.3897 26.8725 31.225C26.7078 31.0602 26.6152 30.8368 26.6152 30.6039V26.5229C26.6152 26.2899 26.7078 26.0665 26.8725 25.9018C27.0372 25.7371 27.2607 25.6445 27.4936 25.6445C27.7266 25.6445 27.95 25.7371 28.1147 25.9018C28.2794 26.0665 28.372 26.2899 28.372 26.5229V30.6039C28.372 30.8368 28.2794 31.0602 28.1147 31.225C27.95 31.3897 27.7266 31.4822 27.4936 31.4822Z" fill="white"/>
<path d="M34.3104 29.6544C34.1561 29.6546 34.0045 29.614 33.8708 29.5369C33.7371 29.4598 33.626 29.3489 33.5489 29.2152L31.5093 25.6859C31.4507 25.586 31.4125 25.4754 31.3968 25.3607C31.3811 25.2459 31.3882 25.1291 31.4179 25.0171C31.4475 24.9052 31.4989 24.8001 31.5693 24.7081C31.6397 24.6161 31.7275 24.5389 31.8279 24.481C31.9282 24.423 32.039 24.3855 32.1538 24.3706C32.2687 24.3557 32.3854 24.3636 32.4972 24.394C32.609 24.4243 32.7137 24.4765 32.8052 24.5475C32.8968 24.6184 32.9734 24.7068 33.0306 24.8075L35.0702 28.3395C35.1473 28.4729 35.1879 28.6243 35.1879 28.7784C35.188 28.9326 35.1474 29.084 35.0705 29.2175C34.9935 29.351 34.8827 29.4619 34.7493 29.539C34.6159 29.6162 34.4645 29.6569 34.3104 29.657V29.6544Z" fill="white"/>
<path d="M39.2979 24.6645C39.1437 24.6645 38.9922 24.6239 38.8587 24.5468L35.3267 22.5072C35.1266 22.3899 34.981 22.1982 34.9218 21.974C34.8625 21.7497 34.8943 21.5111 35.0103 21.3103C35.1262 21.1094 35.317 20.9626 35.5408 20.9018C35.7647 20.841 36.0035 20.8712 36.2051 20.9859L39.7371 23.0246C39.9049 23.1211 40.0362 23.2704 40.1105 23.4492C40.1848 23.628 40.1979 23.8263 40.1478 24.0134C40.0977 24.2004 39.9873 24.3657 39.8335 24.4834C39.6798 24.6012 39.4915 24.6649 39.2979 24.6645Z" fill="white"/>
<path d="M41.1247 17.8466H37.0463C36.8134 17.8466 36.59 17.7541 36.4252 17.5893C36.2605 17.4246 36.168 17.2012 36.168 16.9682C36.168 16.7353 36.2605 16.5118 36.4252 16.3471C36.59 16.1824 36.8134 16.0898 37.0463 16.0898H41.1247C41.3576 16.0898 41.581 16.1824 41.7458 16.3471C41.9105 16.5118 42.003 16.7353 42.003 16.9682C42.003 17.2012 41.9105 17.4246 41.7458 17.5893C41.581 17.7541 41.3576 17.8466 41.1247 17.8466Z" fill="white"/>
<path d="M35.768 13.0699C35.5746 13.0699 35.3867 13.0061 35.2333 12.8884C35.0799 12.7707 34.9696 12.6056 34.9196 12.4189C34.8695 12.2321 34.8825 12.034 34.9565 11.8554C35.0305 11.6768 35.1614 11.5275 35.3288 11.4309L38.8599 9.39214C39.0615 9.27749 39.3003 9.24726 39.5242 9.30803C39.748 9.3688 39.9387 9.51565 40.0547 9.71653C40.1707 9.9174 40.2025 10.156 40.1432 10.3802C40.0839 10.6045 39.9384 10.7962 39.7383 10.9135L36.2063 12.9531C36.0729 13.0297 35.9218 13.07 35.768 13.0699Z" fill="white"/>
<path d="M32.2691 9.57413C32.115 9.57398 31.9636 9.53327 31.8302 9.45612C31.6968 9.37896 31.586 9.26806 31.5091 9.13456C31.4321 9.00105 31.3916 8.84964 31.3916 8.69553C31.3916 8.54142 31.4322 8.39003 31.5093 8.25657L33.5489 4.72549C33.6061 4.62478 33.6827 4.5364 33.7743 4.46543C33.8658 4.39445 33.9705 4.34229 34.0823 4.31194C34.1941 4.28158 34.3108 4.27365 34.4257 4.28858C34.5406 4.30351 34.6513 4.34101 34.7517 4.39894C34.852 4.45686 34.9399 4.53405 35.0102 4.62607C35.0806 4.71809 35.1321 4.82312 35.1617 4.93511C35.1913 5.04711 35.1984 5.16385 35.1827 5.27862C35.1671 5.39339 35.1288 5.50393 35.0702 5.60386L33.0271 9.13495C32.9503 9.26809 32.8398 9.37872 32.7068 9.45579C32.5737 9.53286 32.4228 9.57367 32.2691 9.57413Z" fill="white"/>
</svg>
