<svg width="45" height="45" viewBox="0 0 45 45" fill="none" xmlns="http://www.w3.org/2000/svg">
<path d="M24.8224 17.4911C24.7229 17.4911 24.6249 17.4666 24.5371 17.4199C24.4493 17.3732 24.3742 17.3056 24.3186 17.2231C24.2629 17.1406 24.2284 17.0458 24.2179 16.9468C24.2075 16.8479 24.2215 16.7479 24.2587 16.6556C27.3394 9.00862 26.1104 4.52504 24.1219 3.00964C23.6649 2.63398 23.0916 2.42862 22.5 2.42862C21.9085 2.42862 21.3352 2.63398 20.8782 3.00964C18.8897 4.52504 17.6607 9.00862 20.7414 16.6556C20.7712 16.7297 20.7862 16.8089 20.7854 16.8888C20.7846 16.9687 20.768 17.0476 20.7367 17.1211C20.7054 17.1946 20.6599 17.2612 20.6029 17.3172C20.5458 17.3731 20.4783 17.4172 20.4042 17.447C20.3301 17.4769 20.2508 17.4918 20.171 17.491C20.0911 17.4902 20.0121 17.4737 19.9386 17.4424C19.8651 17.411 19.7985 17.3656 19.7426 17.3085C19.6867 17.2515 19.6426 17.1839 19.6128 17.1098C16.2809 8.83957 17.7009 3.90234 20.1412 2.04274C20.8095 1.50445 21.6419 1.21094 22.5 1.21094C23.3582 1.21094 24.1906 1.50445 24.8589 2.04274C27.2992 3.90234 28.7192 8.83714 25.3873 17.1098C25.342 17.2225 25.264 17.3191 25.1633 17.3871C25.0626 17.455 24.9439 17.4913 24.8224 17.4911Z" fill="white"/>
<path d="M8.43444 27.347C5.23336 27.347 3.11957 26.2749 2.04079 24.8586C1.5025 24.1903 1.20898 23.3579 1.20898 22.4997C1.20898 21.6416 1.5025 20.8092 2.04079 20.1409C3.90039 17.6999 8.83579 16.2806 17.1079 19.6124C17.182 19.6423 17.2495 19.6864 17.3066 19.7423C17.3636 19.7982 17.4091 19.8648 17.4404 19.9383C17.4717 20.0118 17.4882 20.0908 17.489 20.1707C17.4898 20.2505 17.4749 20.3298 17.4451 20.4039C17.4153 20.478 17.3711 20.5455 17.3152 20.6026C17.2593 20.6596 17.1927 20.7051 17.1192 20.7364C17.0457 20.7677 16.9668 20.7843 16.8869 20.7851C16.807 20.7859 16.7277 20.7709 16.6536 20.7411C9.00667 17.6604 4.5237 18.8894 3.00768 20.8779C2.63203 21.3349 2.42667 21.9082 2.42667 22.4997C2.42667 23.0913 2.63203 23.6646 3.00768 24.1216C4.52309 26.1101 9.00667 27.3397 16.6536 24.2584C16.7277 24.2286 16.807 24.2136 16.8869 24.2144C16.9668 24.2152 17.0457 24.2318 17.1192 24.2631C17.1927 24.2944 17.2593 24.3399 17.3152 24.3969C17.3711 24.454 17.4153 24.5215 17.4451 24.5956C17.4749 24.6697 17.4898 24.749 17.489 24.8288C17.4882 24.9087 17.4717 24.9877 17.4404 25.0612C17.4091 25.1346 17.3636 25.2013 17.3066 25.2572C17.2495 25.3131 17.182 25.3572 17.1079 25.387C14.3668 26.5832 11.4235 27.2483 8.43444 27.347Z" fill="white"/>
<path d="M22.5 43.7919C21.6434 43.7829 20.8139 43.4903 20.1412 42.96C17.7009 41.1004 16.2809 36.1656 19.6128 27.8929C19.6426 27.8188 19.6867 27.7513 19.7426 27.6942C19.7985 27.6372 19.8651 27.5917 19.9386 27.5604C20.0121 27.5291 20.0911 27.5126 20.171 27.5117C20.2508 27.5109 20.3301 27.5259 20.4042 27.5557C20.4783 27.5855 20.5458 27.6297 20.6029 27.6856C20.6599 27.7415 20.7054 27.8081 20.7367 27.8816C20.768 27.9551 20.7846 28.034 20.7854 28.1139C20.7862 28.1938 20.7712 28.2731 20.7414 28.3472C17.6607 35.9941 18.8897 40.4777 20.8782 41.9931C21.3352 42.3688 21.9085 42.5741 22.5 42.5741C23.0916 42.5741 23.6649 42.3688 24.1219 41.9931C26.1104 40.4777 27.3394 35.9941 24.2587 28.3472C24.1985 28.1975 24.2001 28.03 24.2634 27.8816C24.3266 27.7332 24.4462 27.6159 24.5959 27.5557C24.7456 27.4955 24.913 27.4972 25.0615 27.5604C25.2099 27.6236 25.3271 27.7432 25.3873 27.8929C28.7192 36.1632 27.2992 41.1004 24.8589 42.96C24.1861 43.4903 23.3567 43.7829 22.5 43.7919Z" fill="white"/>
<path d="M36.5656 27.347C33.5765 27.2486 30.6332 26.5835 27.8922 25.387C27.7425 25.3268 27.6229 25.2096 27.5597 25.0612C27.4964 24.9127 27.4947 24.7453 27.555 24.5956C27.6152 24.4459 27.7324 24.3263 27.8809 24.2631C28.0293 24.1998 28.1968 24.1982 28.3464 24.2584C35.994 27.3391 40.477 26.1101 41.9924 24.1216C42.368 23.6646 42.5734 23.0913 42.5734 22.4997C42.5734 21.9082 42.368 21.3349 41.9924 20.8779C40.477 18.8894 35.994 17.6604 28.3464 20.7411C28.2723 20.7709 28.1931 20.7859 28.1132 20.7851C28.0333 20.7843 27.9544 20.7677 27.8809 20.7364C27.8074 20.7051 27.7408 20.6596 27.6849 20.6026C27.6289 20.5455 27.5848 20.478 27.555 20.4039C27.5252 20.3298 27.5102 20.2505 27.511 20.1707C27.5118 20.0908 27.5284 20.0118 27.5597 19.9383C27.591 19.8648 27.6365 19.7982 27.6935 19.7423C27.7506 19.6864 27.8181 19.6423 27.8922 19.6124C36.1624 16.2806 41.0997 17.6999 42.9593 20.1409C43.4976 20.8092 43.7911 21.6416 43.7911 22.4997C43.7911 23.3579 43.4976 24.1903 42.9593 24.8586C41.8805 26.2749 39.7661 27.347 36.5656 27.347Z" fill="white"/>
<path d="M28.1129 20.7801C27.9727 20.7801 27.8368 20.7317 27.7282 20.6431C27.6197 20.5544 27.545 20.431 27.517 20.2937C27.489 20.1563 27.5092 20.0135 27.5744 19.8894C27.6395 19.7653 27.7455 19.6675 27.8745 19.6126C35.4612 16.3841 37.7635 12.3457 37.4285 9.86763C37.3712 9.27838 37.111 8.72734 36.6924 8.30872C36.2738 7.89009 35.7227 7.6299 35.1335 7.57263C32.6603 7.23756 28.617 9.54047 25.3885 17.1266C25.3572 17.2001 25.3118 17.2667 25.2547 17.3226C25.1977 17.3785 25.1302 17.4226 25.0561 17.4524C24.982 17.4822 24.9028 17.4971 24.8229 17.4963C24.7431 17.4955 24.6642 17.479 24.5907 17.4477C24.5172 17.4164 24.4506 17.3709 24.3947 17.3139C24.3389 17.2569 24.2947 17.1894 24.2649 17.1153C24.2351 17.0412 24.2202 16.962 24.221 16.8821C24.2218 16.8022 24.2383 16.7233 24.2696 16.6499C27.762 8.4404 32.2535 5.95445 35.2964 6.36736C36.1501 6.45919 36.9466 6.8403 37.5537 7.4474C38.1608 8.05449 38.5419 8.85102 38.6337 9.70466C39.0442 12.7452 36.5583 17.2391 28.3512 20.7315C28.2759 20.7638 28.1948 20.7803 28.1129 20.7801Z" fill="white"/>
<path d="M34.6512 38.6774C31.6441 38.6774 27.523 35.9969 24.2696 28.3517C24.2064 28.2034 24.2047 28.0359 24.2649 27.8863C24.3251 27.7367 24.4423 27.6171 24.5907 27.5539C24.7391 27.4907 24.9065 27.489 25.0561 27.5492C25.2057 27.6094 25.3253 27.7266 25.3885 27.875C28.617 35.4629 32.6585 37.7652 35.1335 37.4302C35.7227 37.3729 36.2738 37.1127 36.6924 36.6941C37.111 36.2755 37.3712 35.7244 37.4285 35.1352C37.7635 32.6571 35.4612 28.6187 27.8745 25.3902C27.7261 25.327 27.6089 25.2074 27.5487 25.0578C27.4885 24.9082 27.4902 24.7408 27.5534 24.5924C27.6166 24.444 27.7362 24.3268 27.8858 24.2666C28.0354 24.2064 28.2029 24.2081 28.3512 24.2713C36.5607 27.7637 39.0442 32.257 38.6337 35.2981C38.5419 36.1518 38.1608 36.9483 37.5537 37.5554C36.9466 38.1625 36.1501 38.5436 35.2964 38.6354C35.0826 38.6641 34.867 38.6781 34.6512 38.6774Z" fill="white"/>
<path d="M10.3489 38.6747C10.1331 38.675 9.91754 38.6606 9.7037 38.6315C8.85006 38.5397 8.05354 38.1586 7.44644 37.5515C6.83935 36.9444 6.45823 36.1479 6.3664 35.2942C5.95593 32.2537 8.44188 27.7598 16.6489 24.2674C16.7224 24.2361 16.8013 24.2196 16.8811 24.2188C16.961 24.218 17.0402 24.2329 17.1143 24.2627C17.1884 24.2925 17.2559 24.3367 17.3129 24.3925C17.37 24.4484 17.4154 24.515 17.4467 24.5885C17.478 24.662 17.4946 24.7409 17.4954 24.8207C17.4962 24.9006 17.4813 24.9798 17.4514 25.0539C17.4216 25.128 17.3775 25.1955 17.3216 25.2525C17.2657 25.3096 17.1991 25.355 17.1257 25.3863C9.5389 28.616 7.23661 32.6544 7.57167 35.1325C7.62894 35.7217 7.88914 36.2728 8.30776 36.6914C8.72638 37.11 9.27743 37.3702 9.86667 37.4275C12.3447 37.7626 16.3838 35.4596 19.6116 27.8735C19.6748 27.7251 19.7944 27.6079 19.944 27.5477C20.0181 27.5179 20.0973 27.503 20.1772 27.5038C20.2571 27.5046 20.336 27.5211 20.4094 27.5524C20.4829 27.5837 20.5495 27.6292 20.6054 27.6862C20.6613 27.7433 20.7054 27.8108 20.7352 27.8848C20.765 27.9589 20.78 28.0382 20.7792 28.118C20.7784 28.1979 20.7618 28.2768 20.7305 28.3503C17.4778 35.9948 13.356 38.6747 10.3489 38.6747Z" fill="white"/>
<path d="M16.8871 20.7802C16.8051 20.7804 16.724 20.7639 16.6487 20.7316C8.43923 17.2392 5.95572 12.7459 6.36619 9.70474C6.45802 8.8511 6.83914 8.05458 7.44623 7.44748C8.05332 6.84039 8.84985 6.45927 9.70349 6.36744C12.744 5.95393 17.2379 8.44231 20.7303 16.6499C20.7935 16.7983 20.7952 16.9657 20.735 17.1154C20.6748 17.265 20.5576 17.3846 20.4092 17.4478C20.2609 17.511 20.0934 17.5127 19.9438 17.4525C19.7942 17.3923 19.6746 17.2751 19.6114 17.1267C16.3829 9.54055 12.3445 7.23765 9.86646 7.57271C9.27722 7.62998 8.72617 7.89018 8.30755 8.3088C7.88893 8.72742 7.62873 9.27847 7.57146 9.86771C7.23639 12.3458 9.53869 16.3842 17.1254 19.6126C17.2544 19.6676 17.3604 19.7654 17.4256 19.8895C17.4907 20.0136 17.511 20.1564 17.4829 20.2938C17.4549 20.4311 17.3803 20.5545 17.2717 20.6432C17.1631 20.7318 17.0272 20.7802 16.8871 20.7802Z" fill="white"/>
<path d="M22.5 29.1909C21.177 29.1909 19.8837 28.7986 18.7837 28.0635C17.6836 27.3285 16.8263 26.2838 16.32 25.0615C15.8137 23.8392 15.6812 22.4943 15.9393 21.1967C16.1974 19.8991 16.8345 18.7072 17.77 17.7717C18.7055 16.8362 19.8974 16.1991 21.195 15.941C22.4926 15.6829 23.8375 15.8154 25.0598 16.3217C26.2821 16.828 27.3268 17.6853 28.0618 18.7854C28.7969 19.8854 29.1892 21.1787 29.1892 22.5017C29.1871 24.2751 28.4817 25.9753 27.2276 27.2294C25.9736 28.4834 24.2734 29.1888 22.5 29.1909ZM22.5 17.0287C21.4175 17.0287 20.3594 17.3497 19.4594 17.9511C18.5593 18.5525 17.8579 19.4072 17.4436 20.4073C17.0294 21.4073 16.921 22.5078 17.1322 23.5694C17.3433 24.6311 17.8646 25.6063 18.63 26.3717C19.3954 27.1371 20.3706 27.6583 21.4323 27.8695C22.4939 28.0807 23.5943 27.9723 24.5944 27.5581C25.5945 27.1438 26.4492 26.4423 27.0506 25.5423C27.652 24.6423 27.973 23.5841 27.973 22.5017C27.9712 21.0507 27.394 19.6597 26.368 18.6337C25.342 17.6077 23.951 17.0305 22.5 17.0287Z" fill="white"/>
</svg>
