<svg width="45" height="45" viewBox="0 0 45 45" fill="none" xmlns="http://www.w3.org/2000/svg">
<path d="M20.9847 26.3255C20.8584 26.3256 20.7353 26.2863 20.6323 26.2131C20.5294 26.14 20.4518 26.0366 20.4103 25.9173C20.3687 25.7981 20.3654 25.6688 20.4007 25.5476C20.4359 25.4263 20.5081 25.319 20.6071 25.2407C30.7844 17.1778 43.3175 23.1336 43.4422 23.1944C43.514 23.2294 43.5783 23.2781 43.6313 23.338C43.6843 23.3978 43.725 23.4675 43.7511 23.543C43.7772 23.6186 43.7882 23.6985 43.7834 23.7783C43.7786 23.8581 43.7581 23.9361 43.7231 24.008C43.6881 24.0799 43.6393 24.1442 43.5795 24.1972C43.5197 24.2502 43.45 24.2909 43.3745 24.317C43.2989 24.3431 43.219 24.354 43.1392 24.3492C43.0594 24.3444 42.9813 24.3239 42.9094 24.289C42.7909 24.2318 30.9297 18.6135 21.3624 26.1954C21.2547 26.28 21.1217 26.3259 20.9847 26.3255Z" fill="white"/>
<path d="M24.2405 28.1496C24.1175 28.1494 23.9975 28.1118 23.8963 28.042C14.6178 21.6556 2.10654 24.8902 1.98127 24.9236C1.8254 24.9652 1.65937 24.9432 1.51973 24.8624C1.38008 24.7816 1.27826 24.6486 1.23665 24.4928C1.19504 24.3369 1.21705 24.1709 1.29785 24.0312C1.37865 23.8916 1.51161 23.7897 1.66749 23.7481C2.20141 23.6058 14.8495 20.3397 24.5859 27.0404C24.6929 27.114 24.7735 27.2199 24.816 27.3426C24.8584 27.4653 24.8605 27.5983 24.8219 27.7223C24.7833 27.8463 24.7061 27.9546 24.6014 28.0315C24.4968 28.1084 24.3703 28.1498 24.2405 28.1496Z" fill="white"/>
<path d="M30.0052 33.3976C29.882 33.3978 29.7617 33.3605 29.6602 33.2907C29.5586 33.2209 29.4807 33.122 29.4367 33.0069C29.3926 32.8919 29.3846 32.7662 29.4136 32.6465C29.4425 32.5268 29.5072 32.4187 29.5989 32.3365C34.5404 27.9107 42.9974 30.4465 43.3544 30.5566C43.4307 30.58 43.5017 30.6183 43.5632 30.6692C43.6248 30.7201 43.6757 30.7827 43.7131 30.8533C43.7504 30.9238 43.7736 31.0011 43.7811 31.0806C43.7886 31.1601 43.7804 31.2404 43.7569 31.3167C43.7334 31.393 43.6952 31.464 43.6442 31.5256C43.5933 31.5871 43.5308 31.638 43.4602 31.6754C43.3896 31.7128 43.3124 31.7359 43.2329 31.7434C43.1533 31.751 43.0731 31.7427 42.9968 31.7193C42.9159 31.6943 34.8384 29.2765 30.4089 33.2395C30.2987 33.3406 30.1547 33.397 30.0052 33.3976Z" fill="white"/>
<path d="M2.97606 39.3597C2.82768 39.3597 2.68174 39.3524 2.53761 39.339C2.37924 39.3213 2.23414 39.2422 2.13354 39.1186C2.03294 38.995 1.98488 38.8368 1.99971 38.6781C2.01453 38.5195 2.09105 38.373 2.2128 38.2701C2.33455 38.1673 2.49181 38.1164 2.65072 38.1283C4.04329 38.2548 5.83964 37.5129 7.83606 35.9732C14.1604 31.1004 22.2403 29.5996 29.4567 31.9597C31.1019 32.4824 32.6952 33.156 34.2164 33.9719C34.2858 34.0114 34.3467 34.0642 34.3957 34.1273C34.4447 34.1904 34.4808 34.2625 34.5019 34.3395C34.523 34.4165 34.5288 34.497 34.5188 34.5762C34.5088 34.6554 34.4834 34.7319 34.4438 34.8013C34.4043 34.8707 34.3515 34.9317 34.2884 34.9807C34.2253 35.0296 34.1532 35.0657 34.0762 35.0868C33.9992 35.108 33.9188 35.1137 33.8395 35.1037C33.7603 35.0938 33.6838 35.0683 33.6144 35.0288C32.1634 34.2559 30.6454 33.6158 29.0791 33.1163C25.6094 32.0345 21.9278 31.817 18.3549 32.4828C14.7819 33.1486 11.4258 34.6775 8.57856 36.9364C6.49153 38.5461 4.60944 39.3597 2.97606 39.3597Z" fill="white"/>
<path d="M11.1637 35.1077C11.0799 35.1077 10.9969 35.0903 10.9201 35.0567C10.8433 35.0231 10.7743 34.974 10.7174 34.9125C7.21162 31.1173 2.30601 33.5254 2.09925 33.6288C1.95671 33.6916 1.79548 33.6973 1.64883 33.6448C1.50218 33.5922 1.38129 33.4854 1.31109 33.3463C1.24089 33.2073 1.22674 33.0466 1.27156 32.8974C1.31638 32.7482 1.41674 32.6219 1.55196 32.5445C1.61277 32.5141 7.47858 29.6092 11.6131 34.0854C11.6934 34.1723 11.7466 34.2806 11.7663 34.3972C11.786 34.5138 11.7712 34.6336 11.7239 34.7419C11.6765 34.8503 11.5986 34.9425 11.4996 35.0072C11.4007 35.072 11.285 35.1064 11.1668 35.1065L11.1637 35.1077Z" fill="white"/>
<path d="M43.1756 43.9278C43.0784 43.9279 42.9827 43.9047 42.8964 43.8601C42.81 43.8156 42.7356 43.751 42.6794 43.6718C37.5585 36.4566 22.599 37.9094 22.4488 37.9252C22.3686 37.935 22.2872 37.9288 22.2094 37.9068C22.1316 37.8849 22.059 37.8476 21.9958 37.7972C21.9326 37.7469 21.88 37.6844 21.8412 37.6135C21.8024 37.5426 21.7782 37.4647 21.7698 37.3843C21.7615 37.3039 21.7693 37.2226 21.7927 37.1453C21.8162 37.0679 21.8548 36.996 21.9064 36.9337C21.9579 36.8715 22.0214 36.8201 22.093 36.7827C22.1646 36.7452 22.243 36.7225 22.3236 36.7157C25.1594 36.4792 28.0118 36.5314 30.8371 36.8713C37.0179 37.6248 41.3367 39.6759 43.673 42.9682C43.7375 43.0593 43.7757 43.1664 43.7834 43.2778C43.7911 43.3891 43.768 43.5005 43.7167 43.5996C43.6653 43.6987 43.5876 43.7817 43.4922 43.8396C43.3968 43.8975 43.2872 43.928 43.1756 43.9278Z" fill="white"/>
<path d="M19.0339 15.9938C18.0696 15.9937 17.127 15.7076 16.3252 15.1718C15.5235 14.636 14.8986 13.8744 14.5297 12.9835C14.1607 12.0925 14.0643 11.1122 14.2525 10.1664C14.4407 9.22063 14.9051 8.3519 15.587 7.67007C16.2689 6.98823 17.1377 6.52392 18.0835 6.33583C19.0293 6.14775 20.0096 6.24434 20.9005 6.6134C21.7914 6.98245 22.5529 7.6074 23.0886 8.40921C23.6244 9.21102 23.9103 10.1537 23.9103 11.118C23.9089 12.4108 23.3946 13.6502 22.4804 14.5643C21.5662 15.4784 20.3267 15.9925 19.0339 15.9938ZM19.0339 7.45841C18.3101 7.45853 17.6026 7.67326 17.0009 8.07545C16.3992 8.47765 15.9302 9.04924 15.6533 9.71796C15.3764 10.3867 15.304 11.1225 15.4453 11.8323C15.5866 12.5422 15.9352 13.1942 16.447 13.7059C16.9588 14.2177 17.6109 14.5662 18.3208 14.7073C19.0307 14.8485 19.7664 14.776 20.4351 14.499C21.1038 14.222 21.6753 13.7529 22.0774 13.1511C22.4795 12.5493 22.6941 11.8418 22.6941 11.118C22.6936 10.1472 22.3079 9.21634 21.6216 8.52973C20.9354 7.84313 20.0047 7.45694 19.0339 7.45597V7.45841Z" fill="white"/>
<path d="M19.0339 5.10815C18.8726 5.10815 18.7179 5.04408 18.6039 4.93004C18.4899 4.816 18.4258 4.66132 18.4258 4.50004V1.67842C18.4258 1.59856 18.4415 1.51949 18.4721 1.44571C18.5026 1.37193 18.5474 1.30489 18.6039 1.24842C18.6604 1.19196 18.7274 1.14716 18.8012 1.1166C18.875 1.08604 18.954 1.07031 19.0339 1.07031C19.1137 1.07031 19.1928 1.08604 19.2666 1.1166C19.3404 1.14716 19.4074 1.19196 19.4639 1.24842C19.5204 1.30489 19.5651 1.37193 19.5957 1.44571C19.6263 1.51949 19.642 1.59856 19.642 1.67842V4.50004C19.642 4.66132 19.5779 4.816 19.4639 4.93004C19.3498 5.04408 19.1952 5.10815 19.0339 5.10815Z" fill="white"/>
<path d="M15.7282 5.997C15.6214 5.9971 15.5164 5.96905 15.4238 5.91568C15.3313 5.8623 15.2544 5.78548 15.201 5.69295L13.789 3.24835C13.7083 3.1086 13.6865 2.94254 13.7283 2.7867C13.7701 2.63086 13.8721 2.49801 14.0118 2.41737C14.1516 2.33673 14.3176 2.31491 14.4735 2.35671C14.6293 2.3985 14.7622 2.50049 14.8428 2.64024L16.2542 5.08484C16.3076 5.17724 16.3357 5.28204 16.3357 5.38874C16.3357 5.49543 16.3077 5.60025 16.2544 5.69268C16.2011 5.7851 16.1244 5.86188 16.032 5.91529C15.9397 5.96871 15.8349 5.99689 15.7282 5.997Z" fill="white"/>
<path d="M13.3059 8.41468C13.1992 8.41486 13.0944 8.38697 13.0019 8.3338L10.5567 6.92178C10.4181 6.84056 10.3173 6.70785 10.2763 6.55261C10.2353 6.39736 10.2573 6.23218 10.3376 6.09311C10.4179 5.95404 10.5499 5.85238 10.7049 5.81031C10.8599 5.76823 11.0252 5.78917 11.1648 5.86853L13.61 7.27995C13.7259 7.34689 13.8165 7.4502 13.8677 7.57388C13.9189 7.69755 13.9279 7.83467 13.8933 7.96397C13.8586 8.09327 13.7823 8.20752 13.6761 8.28901C13.5699 8.3705 13.4398 8.41468 13.3059 8.41468Z" fill="white"/>
<path d="M12.4206 11.724H9.59712C9.43584 11.724 9.28117 11.66 9.16712 11.5459C9.05308 11.4319 8.98901 11.2772 8.98901 11.1159C8.98901 10.9546 9.05308 10.8 9.16712 10.6859C9.28117 10.5719 9.43584 10.5078 9.59712 10.5078H12.4206C12.5818 10.5078 12.7365 10.5719 12.8506 10.6859C12.9646 10.8 13.0287 10.9546 13.0287 11.1159C13.0287 11.2772 12.9646 11.4319 12.8506 11.5459C12.7365 11.66 12.5818 11.724 12.4206 11.724Z" fill="white"/>
<path d="M10.8621 16.4428C10.728 16.443 10.5976 16.3989 10.4912 16.3174C10.3848 16.2359 10.3083 16.1215 10.2736 15.992C10.239 15.8625 10.248 15.7252 10.2995 15.6014C10.3509 15.4776 10.4418 15.3742 10.558 15.3074L13.0032 13.896C13.0724 13.8554 13.1489 13.829 13.2284 13.8181C13.3078 13.8072 13.3887 13.8122 13.4662 13.8327C13.5437 13.8532 13.6164 13.8888 13.6802 13.9375C13.7439 13.9863 13.7973 14.0471 13.8374 14.1165C13.8775 14.186 13.9035 14.2627 13.9138 14.3422C13.9241 14.4218 13.9186 14.5025 13.8976 14.5799C13.8766 14.6573 13.8405 14.7298 13.7914 14.7932C13.7422 14.8566 13.681 14.9096 13.6113 14.9492L11.1655 16.3588C11.0736 16.4132 10.9689 16.4421 10.8621 16.4428Z" fill="white"/>
<path d="M14.3154 19.8975C14.2086 19.8975 14.1038 19.8694 14.0113 19.816C13.9189 19.7626 13.8421 19.6858 13.7887 19.5934C13.7354 19.501 13.7073 19.3961 13.7073 19.2894C13.7073 19.1826 13.7354 19.0777 13.7887 18.9853L15.2026 16.5419C15.2422 16.4722 15.2953 16.411 15.3587 16.3619C15.422 16.3127 15.4945 16.2766 15.5719 16.2556C15.6493 16.2346 15.7301 16.2291 15.8096 16.2394C15.8891 16.2498 15.9658 16.2758 16.0353 16.3158C16.1047 16.3559 16.1656 16.4094 16.2143 16.4731C16.263 16.5368 16.2986 16.6095 16.3191 16.687C16.3396 16.7646 16.3446 16.8454 16.3337 16.9249C16.3229 17.0043 16.2964 17.0808 16.2558 17.15L14.8444 19.5952C14.7906 19.6877 14.7134 19.7643 14.6205 19.8174C14.5276 19.8705 14.4223 19.8981 14.3154 19.8975Z" fill="white"/>
<path d="M19.0339 21.1626C18.8726 21.1626 18.7179 21.0985 18.6039 20.9845C18.4899 20.8704 18.4258 20.7158 18.4258 20.5545V17.7292C18.4258 17.5679 18.4899 17.4132 18.6039 17.2992C18.7179 17.1852 18.8726 17.1211 19.0339 17.1211C19.1952 17.1211 19.3498 17.1852 19.4639 17.2992C19.5779 17.4132 19.642 17.5679 19.642 17.7292V20.5545C19.642 20.7158 19.5779 20.8704 19.4639 20.9845C19.3498 21.0985 19.1952 21.1626 19.0339 21.1626Z" fill="white"/>
<path d="M23.7532 19.8975C23.6464 19.8976 23.5414 19.8695 23.4488 19.8161C23.3563 19.7628 23.2794 19.6859 23.226 19.5934L21.814 17.15C21.7734 17.0808 21.7469 17.0043 21.7361 16.9249C21.7252 16.8454 21.7302 16.7646 21.7507 16.687C21.7712 16.6095 21.8068 16.5368 21.8555 16.4731C21.9042 16.4094 21.9651 16.3559 22.0345 16.3158C22.104 16.2758 22.1807 16.2498 22.2602 16.2394C22.3397 16.2291 22.4205 16.2346 22.4979 16.2556C22.5753 16.2766 22.6478 16.3127 22.7112 16.3619C22.7745 16.411 22.8276 16.4722 22.8672 16.5419L24.2792 18.9871C24.3326 19.0795 24.3607 19.1843 24.3607 19.291C24.3607 19.3977 24.3327 19.5025 24.2794 19.595C24.2261 19.6874 24.1494 19.7642 24.0571 19.8176C23.9647 19.871 23.8599 19.8992 23.7532 19.8993V19.8975Z" fill="white"/>
<path d="M27.2061 16.4426C27.0993 16.4426 26.9945 16.4145 26.902 16.3611L24.4568 14.9491C24.3183 14.8679 24.2175 14.7352 24.1765 14.5799C24.1354 14.4247 24.1574 14.2595 24.2377 14.1205C24.318 13.9814 24.4501 13.8797 24.605 13.8377C24.76 13.7956 24.9253 13.8165 25.0649 13.8959L27.5101 15.3073C27.6263 15.3741 27.7172 15.4774 27.7687 15.6012C27.8201 15.725 27.8292 15.8623 27.7945 15.9918C27.7598 16.1213 27.6833 16.2357 27.5769 16.3173C27.4705 16.3988 27.3401 16.4429 27.2061 16.4426Z" fill="white"/>
<path d="M28.4711 11.724H25.6477C25.4864 11.724 25.3317 11.66 25.2177 11.5459C25.1036 11.4319 25.0396 11.2772 25.0396 11.1159C25.0396 10.9546 25.1036 10.8 25.2177 10.6859C25.3317 10.5719 25.4864 10.5078 25.6477 10.5078H28.4711C28.6324 10.5078 28.7871 10.5719 28.9011 10.6859C29.0151 10.8 29.0792 10.9546 29.0792 11.1159C29.0792 11.2772 29.0151 11.4319 28.9011 11.5459C28.7871 11.66 28.6324 11.724 28.4711 11.724Z" fill="white"/>
<path d="M24.7621 8.41468C24.6283 8.41468 24.4982 8.3705 24.392 8.28901C24.2858 8.20752 24.2094 8.09327 24.1748 7.96397C24.1401 7.83467 24.1491 7.69755 24.2003 7.57388C24.2516 7.4502 24.3422 7.34689 24.4581 7.27995L26.9027 5.86853C27.0423 5.78917 27.2076 5.76823 27.3626 5.81031C27.5175 5.85238 27.6496 5.95404 27.7299 6.09311C27.8102 6.23218 27.8322 6.39736 27.7911 6.55261C27.7501 6.70785 27.6493 6.84056 27.5108 6.92178L25.0656 8.3338C24.9733 8.38687 24.8686 8.41476 24.7621 8.41468Z" fill="white"/>
<path d="M22.3402 5.99634C22.2335 5.99623 22.1287 5.96805 22.0363 5.91463C21.944 5.86121 21.8673 5.78444 21.814 5.69201C21.7607 5.59959 21.7326 5.49476 21.7327 5.38807C21.7327 5.28138 21.7608 5.17657 21.8141 5.08417L23.2262 2.63958C23.2658 2.56986 23.3188 2.50867 23.3822 2.45954C23.4456 2.4104 23.5181 2.37429 23.5955 2.35328C23.6729 2.33226 23.7537 2.32677 23.8332 2.3371C23.9127 2.34744 23.9894 2.37341 24.0589 2.41351C24.1283 2.45361 24.1891 2.50705 24.2379 2.57075C24.2866 2.63446 24.3222 2.70717 24.3427 2.78471C24.3632 2.86224 24.3682 2.94306 24.3573 3.02252C24.3464 3.10198 24.32 3.1785 24.2794 3.24769L22.8649 5.69228C22.8117 5.78446 22.7353 5.86105 22.6432 5.91441C22.5511 5.96776 22.4466 5.99601 22.3402 5.99634Z" fill="white"/>
</svg>
