<svg width="65" height="65" viewBox="0 0 65 65" fill="none" xmlns="http://www.w3.org/2000/svg">
<path d="M56.2163 63.2445H46.5542C46.3212 63.2445 46.0978 63.1519 45.9331 62.9872C45.7683 62.8225 45.6758 62.5991 45.6758 62.3661V13.1769C45.6758 13.0505 45.703 12.9255 45.7557 12.8106L50.5868 2.27009C50.6569 2.11723 50.7694 1.9877 50.9109 1.89689C51.0525 1.80608 51.2171 1.75781 51.3852 1.75781C51.5534 1.75781 51.718 1.80608 51.8596 1.89689C52.0011 1.9877 52.1136 2.11723 52.1837 2.27009L57.0148 12.8106C57.0675 12.9255 57.0947 13.0505 57.0947 13.1769V62.3661C57.0947 62.5991 57.0022 62.8225 56.8374 62.9872C56.6727 63.1519 56.4493 63.2445 56.2163 63.2445ZM47.4325 61.4877H55.3379V13.3684L51.3852 4.74448L47.4325 13.3684V61.4877Z" fill="white"/>
<path d="M37.3316 63.2445H27.6694C27.4364 63.2445 27.213 63.1519 27.0483 62.9872C26.8836 62.8225 26.791 62.5991 26.791 62.3661V13.1769C26.791 13.0505 26.8183 12.9255 26.8709 12.8106L31.702 2.27009C31.7721 2.11723 31.8846 1.9877 32.0261 1.89689C32.1677 1.80608 32.3323 1.75781 32.5005 1.75781C32.6686 1.75781 32.8333 1.80608 32.9748 1.89689C33.1163 1.9877 33.2288 2.11723 33.2989 2.27009L38.13 12.8106C38.1827 12.9255 38.21 13.0505 38.2099 13.1769V62.3661C38.2099 62.5991 38.1174 62.8225 37.9527 62.9872C37.7879 63.1519 37.5645 63.2445 37.3316 63.2445ZM28.5478 61.4877H36.4532V13.3684L32.5005 4.74448L28.5478 13.3684V61.4877Z" fill="white"/>
<path d="M18.4458 63.2445H8.78365C8.55069 63.2445 8.32727 63.1519 8.16254 62.9872C7.99782 62.8225 7.90527 62.5991 7.90527 62.3661V13.1769C7.90525 13.0505 7.93251 12.9255 7.98521 12.8106L12.8163 2.27009C12.8864 2.11723 12.9989 1.9877 13.1404 1.89689C13.2819 1.80608 13.4466 1.75781 13.6147 1.75781C13.7829 1.75781 13.9475 1.80608 14.0891 1.89689C14.2306 1.9877 14.3431 2.11723 14.4132 2.27009L19.2443 12.8106C19.297 12.9255 19.3242 13.0505 19.3242 13.1769V62.3661C19.3242 62.5991 19.2316 62.8225 19.0669 62.9872C18.9022 63.1519 18.6788 63.2445 18.4458 63.2445ZM9.66203 61.4877H17.5674V13.3684L13.6147 4.74448L9.66203 13.3684V61.4877Z" fill="white"/>
<path d="M46.5545 24.5927H37.3315C37.0985 24.5927 36.8751 24.5002 36.7104 24.3354C36.5457 24.1707 36.4531 23.9473 36.4531 23.7143C36.4531 23.4814 36.5457 23.2579 36.7104 23.0932C36.8751 22.9285 37.0985 22.8359 37.3315 22.8359H46.5545C46.7874 22.8359 47.0109 22.9285 47.1756 23.0932C47.3403 23.2579 47.4329 23.4814 47.4329 23.7143C47.4329 23.9473 47.3403 24.1707 47.1756 24.3354C47.0109 24.5002 46.7874 24.5927 46.5545 24.5927Z" fill="white"/>
<path d="M46.5545 19.3232H37.3315C37.0985 19.3232 36.8751 19.2306 36.7104 19.0659C36.5457 18.9012 36.4531 18.6777 36.4531 18.4448C36.4531 18.2118 36.5457 17.9884 36.7104 17.8237C36.8751 17.6589 37.0985 17.5664 37.3315 17.5664H46.5545C46.7874 17.5664 47.0109 17.6589 47.1756 17.8237C47.3403 17.9884 47.4329 18.2118 47.4329 18.4448C47.4329 18.6777 47.3403 18.9012 47.1756 19.0659C47.0109 19.2306 46.7874 19.3232 46.5545 19.3232Z" fill="white"/>
<path d="M8.78386 24.5934H3.53204C3.06144 24.5927 2.61031 24.4055 2.27755 24.0727C1.94479 23.74 1.75753 23.2888 1.75684 22.8182V19.3416C1.75753 18.871 1.94479 18.4199 2.27755 18.0871C2.61031 17.7544 3.06144 17.5671 3.53204 17.5664H8.78386C9.01682 17.5664 9.24024 17.6589 9.40497 17.8237C9.5697 17.9884 9.66224 18.2118 9.66224 18.4448C9.66224 18.6777 9.5697 18.9012 9.40497 19.0659C9.24024 19.2306 9.01682 19.3232 8.78386 19.3232H3.53204L3.51359 22.8182L8.78386 22.8367C9.01682 22.8367 9.24024 22.9292 9.40497 23.0939C9.5697 23.2587 9.66224 23.4821 9.66224 23.7151C9.66224 23.948 9.5697 24.1714 9.40497 24.3362C9.24024 24.5009 9.01682 24.5934 8.78386 24.5934Z" fill="white"/>
<path d="M27.6687 24.5927H18.4458C18.2128 24.5927 17.9894 24.5002 17.8247 24.3354C17.6599 24.1707 17.5674 23.9473 17.5674 23.7143C17.5674 23.4814 17.6599 23.2579 17.8247 23.0932C17.9894 22.9285 18.2128 22.8359 18.4458 22.8359H27.6687C27.9017 22.8359 28.1251 22.9285 28.2898 23.0932C28.4546 23.2579 28.5471 23.4814 28.5471 23.7143C28.5471 23.9473 28.4546 24.1707 28.2898 24.3354C28.1251 24.5002 27.9017 24.5927 27.6687 24.5927Z" fill="white"/>
<path d="M27.6687 19.3232H18.4458C18.2128 19.3232 17.9894 19.2306 17.8247 19.0659C17.6599 18.9012 17.5674 18.6777 17.5674 18.4448C17.5674 18.2118 17.6599 17.9884 17.8247 17.8237C17.9894 17.6589 18.2128 17.5664 18.4458 17.5664H27.6687C27.9017 17.5664 28.1251 17.6589 28.2898 17.8237C28.4546 17.9884 28.5471 18.2118 28.5471 18.4448C28.5471 18.6777 28.4546 18.9012 28.2898 19.0659C28.1251 19.2306 27.9017 19.3232 27.6687 19.3232Z" fill="white"/>
<path d="M61.4681 24.5934H56.2163C55.9833 24.5934 55.7599 24.5009 55.5952 24.3362C55.4304 24.1714 55.3379 23.948 55.3379 23.7151C55.3379 23.4821 55.4304 23.2587 55.5952 23.0939C55.7599 22.9292 55.9833 22.8367 56.2163 22.8367H61.4681L61.4865 19.3416L56.2163 19.3232C55.9833 19.3232 55.7599 19.2306 55.5952 19.0659C55.4304 18.9012 55.3379 18.6777 55.3379 18.4448C55.3379 18.2118 55.4304 17.9884 55.5952 17.8237C55.7599 17.6589 55.9833 17.5664 56.2163 17.5664H61.4681C61.9387 17.5671 62.3898 17.7544 62.7226 18.0871C63.0553 18.4199 63.2426 18.871 63.2433 19.3416V22.8182C63.2426 23.2888 63.0553 23.74 62.7226 24.0727C62.3898 24.4055 61.9387 24.5927 61.4681 24.5934Z" fill="white"/>
<path d="M46.5545 39.5263H37.3315C37.0985 39.5263 36.8751 39.4337 36.7104 39.269C36.5457 39.1043 36.4531 38.8809 36.4531 38.6479C36.4531 38.4149 36.5457 38.1915 36.7104 38.0268C36.8751 37.8621 37.0985 37.7695 37.3315 37.7695H46.5545C46.7874 37.7695 47.0109 37.8621 47.1756 38.0268C47.3403 38.1915 47.4329 38.4149 47.4329 38.6479C47.4329 38.8809 47.3403 39.1043 47.1756 39.269C47.0109 39.4337 46.7874 39.5263 46.5545 39.5263Z" fill="white"/>
<path d="M46.5545 34.2568H37.3315C37.0985 34.2568 36.8751 34.1642 36.7104 33.9995C36.5457 33.8348 36.4531 33.6113 36.4531 33.3784C36.4531 33.1454 36.5457 32.922 36.7104 32.7573C36.8751 32.5925 37.0985 32.5 37.3315 32.5H46.5545C46.7874 32.5 47.0109 32.5925 47.1756 32.7573C47.3403 32.922 47.4329 33.1454 47.4329 33.3784C47.4329 33.6113 47.3403 33.8348 47.1756 33.9995C47.0109 34.1642 46.7874 34.2568 46.5545 34.2568Z" fill="white"/>
<path d="M8.78386 39.527H3.53204C3.06144 39.5263 2.61031 39.3391 2.27755 39.0063C1.94479 38.6735 1.75753 38.2224 1.75684 37.7518V34.2752C1.75753 33.8046 1.94479 33.3535 2.27755 33.0207C2.61031 32.688 3.06144 32.5007 3.53204 32.5H8.78386C9.01682 32.5 9.24024 32.5925 9.40497 32.7573C9.5697 32.922 9.66224 33.1454 9.66224 33.3784C9.66224 33.6113 9.5697 33.8348 9.40497 33.9995C9.24024 34.1642 9.01682 34.2568 8.78386 34.2568H3.53204L3.51359 37.7518L8.78386 37.7703C9.01682 37.7703 9.24024 37.8628 9.40497 38.0275C9.5697 38.1923 9.66224 38.4157 9.66224 38.6486C9.66224 38.8816 9.5697 39.105 9.40497 39.2698C9.24024 39.4345 9.01682 39.527 8.78386 39.527Z" fill="white"/>
<path d="M27.6687 39.5263H18.4458C18.2128 39.5263 17.9894 39.4337 17.8247 39.269C17.6599 39.1043 17.5674 38.8809 17.5674 38.6479C17.5674 38.4149 17.6599 38.1915 17.8247 38.0268C17.9894 37.8621 18.2128 37.7695 18.4458 37.7695H27.6687C27.9017 37.7695 28.1251 37.8621 28.2898 38.0268C28.4546 38.1915 28.5471 38.4149 28.5471 38.6479C28.5471 38.8809 28.4546 39.1043 28.2898 39.269C28.1251 39.4337 27.9017 39.5263 27.6687 39.5263Z" fill="white"/>
<path d="M27.6687 34.2568H18.4458C18.2128 34.2568 17.9894 34.1642 17.8247 33.9995C17.6599 33.8348 17.5674 33.6113 17.5674 33.3784C17.5674 33.1454 17.6599 32.922 17.8247 32.7573C17.9894 32.5925 18.2128 32.5 18.4458 32.5H27.6687C27.9017 32.5 28.1251 32.5925 28.2898 32.7573C28.4546 32.922 28.5471 33.1454 28.5471 33.3784C28.5471 33.6113 28.4546 33.8348 28.2898 33.9995C28.1251 34.1642 27.9017 34.2568 27.6687 34.2568Z" fill="white"/>
<path d="M61.4681 39.527H56.2163C55.9833 39.527 55.7599 39.4345 55.5952 39.2698C55.4304 39.105 55.3379 38.8816 55.3379 38.6486C55.3379 38.4157 55.4304 38.1923 55.5952 38.0275C55.7599 37.8628 55.9833 37.7703 56.2163 37.7703H61.4681L61.4865 34.2752L56.2163 34.2568C55.9833 34.2568 55.7599 34.1642 55.5952 33.9995C55.4304 33.8348 55.3379 33.6113 55.3379 33.3784C55.3379 33.1454 55.4304 32.922 55.5952 32.7573C55.7599 32.5925 55.9833 32.5 56.2163 32.5H61.4681C61.9387 32.5007 62.3898 32.688 62.7226 33.0207C63.0553 33.3535 63.2426 33.8046 63.2433 34.2752V37.7518C63.2426 38.2224 63.0553 38.6735 62.7226 39.0063C62.3898 39.3391 61.9387 39.5263 61.4681 39.527Z" fill="white"/>
<path d="M46.5545 54.4599H37.3315C37.0985 54.4599 36.8751 54.3673 36.7104 54.2026C36.5457 54.0379 36.4531 53.8145 36.4531 53.5815C36.4531 53.3485 36.5457 53.1251 36.7104 52.9604C36.8751 52.7957 37.0985 52.7031 37.3315 52.7031H46.5545C46.7874 52.7031 47.0109 52.7957 47.1756 52.9604C47.3403 53.1251 47.4329 53.3485 47.4329 53.5815C47.4329 53.8145 47.3403 54.0379 47.1756 54.2026C47.0109 54.3673 46.7874 54.4599 46.5545 54.4599Z" fill="white"/>
<path d="M46.5545 49.1904H37.3315C37.0985 49.1904 36.8751 49.0978 36.7104 48.9331C36.5457 48.7684 36.4531 48.5449 36.4531 48.312C36.4531 48.079 36.5457 47.8556 36.7104 47.6909C36.8751 47.5261 37.0985 47.4336 37.3315 47.4336H46.5545C46.7874 47.4336 47.0109 47.5261 47.1756 47.6909C47.3403 47.8556 47.4329 48.079 47.4329 48.312C47.4329 48.5449 47.3403 48.7684 47.1756 48.9331C47.0109 49.0978 46.7874 49.1904 46.5545 49.1904Z" fill="white"/>
<path d="M8.78386 54.4606H3.53204C3.06144 54.4599 2.61031 54.2727 2.27755 53.9399C1.94479 53.6071 1.75753 53.156 1.75684 52.6854V49.2088C1.75753 48.7382 1.94479 48.2871 2.27755 47.9543C2.61031 47.6215 3.06144 47.4343 3.53204 47.4336H8.78386C9.01682 47.4336 9.24024 47.5261 9.40497 47.6909C9.5697 47.8556 9.66224 48.079 9.66224 48.312C9.66224 48.5449 9.5697 48.7684 9.40497 48.9331C9.24024 49.0978 9.01682 49.1904 8.78386 49.1904H3.53204L3.51359 52.6854L8.78386 52.7039C9.01682 52.7039 9.24024 52.7964 9.40497 52.9611C9.5697 53.1259 9.66224 53.3493 9.66224 53.5822C9.66224 53.8152 9.5697 54.0386 9.40497 54.2034C9.24024 54.3681 9.01682 54.4606 8.78386 54.4606Z" fill="white"/>
<path d="M27.6687 54.4599H18.4458C18.2128 54.4599 17.9894 54.3673 17.8247 54.2026C17.6599 54.0379 17.5674 53.8145 17.5674 53.5815C17.5674 53.3485 17.6599 53.1251 17.8247 52.9604C17.9894 52.7957 18.2128 52.7031 18.4458 52.7031H27.6687C27.9017 52.7031 28.1251 52.7957 28.2898 52.9604C28.4546 53.1251 28.5471 53.3485 28.5471 53.5815C28.5471 53.8145 28.4546 54.0379 28.2898 54.2026C28.1251 54.3673 27.9017 54.4599 27.6687 54.4599Z" fill="white"/>
<path d="M27.6687 49.1904H18.4458C18.2128 49.1904 17.9894 49.0978 17.8247 48.9331C17.6599 48.7684 17.5674 48.5449 17.5674 48.312C17.5674 48.079 17.6599 47.8556 17.8247 47.6909C17.9894 47.5261 18.2128 47.4336 18.4458 47.4336H27.6687C27.9017 47.4336 28.1251 47.5261 28.2898 47.6909C28.4546 47.8556 28.5471 48.079 28.5471 48.312C28.5471 48.5449 28.4546 48.7684 28.2898 48.9331C28.1251 49.0978 27.9017 49.1904 27.6687 49.1904Z" fill="white"/>
<path d="M61.4681 54.4606H56.2163C55.9833 54.4606 55.7599 54.3681 55.5952 54.2034C55.4304 54.0386 55.3379 53.8152 55.3379 53.5822C55.3379 53.3493 55.4304 53.1259 55.5952 52.9611C55.7599 52.7964 55.9833 52.7039 56.2163 52.7039H61.4681L61.4865 49.2088L56.2163 49.1904C55.9833 49.1904 55.7599 49.0978 55.5952 48.9331C55.4304 48.7684 55.3379 48.5449 55.3379 48.312C55.3379 48.079 55.4304 47.8556 55.5952 47.6909C55.7599 47.5261 55.9833 47.4336 56.2163 47.4336H61.4681C61.9387 47.4343 62.3898 47.6215 62.7226 47.9543C63.0553 48.2871 63.2426 48.7382 63.2433 49.2088V52.6854C63.2426 53.156 63.0553 53.6071 62.7226 53.9399C62.3898 54.2727 61.9387 54.4599 61.4681 54.4606Z" fill="white"/>
</svg>
