<svg width="30" height="30" viewBox="0 0 30 30" fill="none" xmlns="http://www.w3.org/2000/svg">
<g clip-path="url(#clip0_4161_275)">
<path d="M24.2604 8.76949L19.3075 8.04978L17.0925 3.56174C16.237 1.82813 13.7631 1.82865 12.9079 3.56168L10.6928 8.04973L5.73996 8.76949C3.8267 9.04746 3.06299 11.4003 4.44685 12.7494L8.0308 16.2428L7.18476 21.1755C6.85799 23.0811 8.85949 24.5344 10.5703 23.6353L15.0002 21.3062L19.4303 23.6353C21.1386 24.5334 23.1425 23.0808 22.8158 21.1755L21.9697 16.2428L25.5537 12.7493C26.9378 11.3998 26.1728 9.0474 24.2604 8.76949ZM24.1575 11.3172L20.1971 15.1776C19.9614 15.4073 19.8539 15.7383 19.9095 16.0627L20.8444 21.5138C20.8914 21.7875 20.6065 21.9942 20.3608 21.8651L15.4655 19.2915C15.1742 19.1384 14.8261 19.1384 14.5348 19.2915L9.63949 21.8651C9.39363 21.9943 9.10892 21.7874 9.15586 21.5138L10.0908 16.0627C10.1464 15.7383 10.0389 15.4073 9.8032 15.1776L5.84279 11.3172C5.64387 11.1233 5.75267 10.7886 6.02754 10.7486L11.5007 9.95332C11.8263 9.90598 12.1079 9.70148 12.2536 9.40635L14.7013 4.4468C14.8242 4.19789 15.1761 4.19772 15.2991 4.44686L17.7468 9.40635C17.8924 9.70148 18.174 9.90603 18.4997 9.95332L23.9728 10.7486C24.2476 10.7886 24.3564 11.1234 24.1575 11.3172Z" fill="#FDD61F"/>
<path d="M7.89463 2.76144L6.69868 1.11536C6.37395 0.668646 5.74864 0.569505 5.30192 0.894232C4.85514 1.21884 4.75606 1.84421 5.08073 2.29099L6.27668 3.93701C6.60153 4.38396 7.22684 4.48269 7.67344 4.15814C8.12024 3.83359 8.2193 3.20822 7.89463 2.76144Z" fill="#FDD61F"/>
<path d="M3.92564 17.5116C3.75508 16.9864 3.19094 16.6987 2.66559 16.8696L0.691211 17.5111C0.165976 17.6818 -0.121426 18.2459 0.0491991 18.7712C0.220117 19.2973 0.785195 19.5837 1.30926 19.4132L3.28363 18.7717C3.80893 18.601 4.09633 18.0368 3.92564 17.5116Z" fill="#FDD61F"/>
<path d="M24.6979 0.894198C24.2511 0.569589 23.6258 0.668553 23.3011 1.11533L22.1051 2.76135C21.7805 3.20812 21.8796 3.83355 22.3263 4.1581C22.7733 4.48283 23.3986 4.38357 23.7231 3.93697L24.919 2.29096C25.2437 1.84418 25.1446 1.21875 24.6979 0.894198Z" fill="#FDD61F"/>
<path d="M29.3091 17.5112L27.3347 16.8696C26.8094 16.6987 26.2453 16.9864 26.0746 17.5117C25.9039 18.0369 26.1913 18.6011 26.7166 18.7717L28.691 19.4133C29.2151 19.5837 29.7801 19.2973 29.9511 18.7712C30.1217 18.246 29.8343 17.6819 29.3091 17.5112Z" fill="#FDD61F"/>
<path d="M15 25.2656C14.4477 25.2656 14 25.7133 14 26.2656V28.2952C14 28.8474 14.4477 29.2951 15 29.2951C15.5522 29.2951 15.9999 28.8474 15.9999 28.2952V26.2656C16 25.7133 15.5523 25.2656 15 25.2656Z" fill="#FDD61F"/>
</g>
<defs>
<clipPath id="clip0_4161_275">
<rect width="30" height="30" fill="white"/>
</clipPath>
</defs>
</svg>
