<svg width="65" height="65" viewBox="0 0 65 65" fill="none" xmlns="http://www.w3.org/2000/svg">
<path d="M32.4999 63.2443C32.3723 63.2443 32.2462 63.2164 32.1305 63.1627C32.0148 63.109 31.9121 63.0307 31.8297 62.9333C28.2738 58.5914 25.0094 54.0188 22.0577 49.2456C15.5182 38.6611 12.1461 29.5699 12.0337 22.2372C11.9923 19.5816 12.4834 16.9446 13.4779 14.482C14.4724 12.0193 15.9501 9.78076 17.8239 7.89855C19.7412 5.95356 22.026 4.40908 24.5454 3.35488C27.0649 2.30069 29.7688 1.75781 32.4999 1.75781C35.231 1.75781 37.9349 2.30069 40.4543 3.35488C42.9738 4.40908 45.2585 5.95356 47.1758 7.89855C49.0496 9.78062 50.5273 12.019 51.5218 14.4815C52.5163 16.9441 53.0074 19.5809 52.9661 22.2363C52.8537 29.5734 49.4816 38.662 42.942 49.2447C39.9904 54.0183 36.726 58.5911 33.1701 62.9333C33.0877 63.0307 32.985 63.109 32.8693 63.1627C32.7535 63.2164 32.6275 63.2443 32.4999 63.2443ZM32.4999 3.51456C30.0002 3.5073 27.5244 4.00102 25.2187 4.96656C22.913 5.9321 20.8242 7.34989 19.0756 9.13618C17.3663 10.8522 16.0181 12.8933 15.1103 15.1388C14.2026 17.3844 13.7538 19.789 13.7904 22.2108C14.0179 37.1854 29.1085 56.7654 32.4999 60.979C35.8913 56.7627 50.9818 37.1854 51.2093 22.2108C51.246 19.789 50.7972 17.3844 49.8894 15.1388C48.9817 12.8933 47.6334 10.8522 45.9241 9.13618C44.1755 7.34989 42.0867 5.9321 39.781 4.96656C37.4753 4.00102 34.9996 3.5073 32.4999 3.51456Z" fill="#2AB939"/>
<path d="M32.4998 37.7711C29.5465 37.7711 26.6594 36.8953 24.2038 35.2546C21.7482 33.6138 19.8343 31.2816 18.7041 28.5531C17.5739 25.8245 17.2781 22.8221 17.8543 19.9255C18.4305 17.0289 19.8527 14.3682 21.941 12.2799C24.0293 10.1915 26.69 8.76935 29.5866 8.19318C32.4833 7.61701 35.4857 7.91272 38.2142 9.04292C40.9428 10.1731 43.2749 12.087 44.9157 14.5427C46.5565 16.9983 47.4323 19.8853 47.4323 22.8387C47.4278 26.7977 45.8532 30.5932 43.0538 33.3926C40.2544 36.1921 36.4588 37.7667 32.4998 37.7711ZM32.4998 9.66301C29.8939 9.66301 27.3465 10.4358 25.1798 11.8835C23.0131 13.3313 21.3243 15.389 20.3271 17.7966C19.3298 20.2041 19.0689 22.8533 19.5773 25.4091C20.0857 27.965 21.3406 30.3126 23.1832 32.1553C25.0259 33.9979 27.3735 35.2528 29.9294 35.7612C32.4852 36.2696 35.1344 36.0087 37.5419 35.0114C39.9495 34.0142 42.0072 32.3254 43.455 30.1587C44.9028 27.992 45.6755 25.4446 45.6755 22.8387C45.6715 19.3455 44.2821 15.9965 41.8121 13.5264C39.342 11.0564 35.993 9.66697 32.4998 9.66301Z" fill="#2AB939"/>
<path d="M31.6694 31.9463C31.4364 31.9463 31.213 31.8537 31.0483 31.689C30.8836 31.5243 30.791 31.3009 30.791 31.0679V14.6088C30.791 14.3759 30.8836 14.1525 31.0483 13.9877C31.213 13.823 31.4364 13.7305 31.6694 13.7305C31.9024 13.7305 32.1258 13.823 32.2905 13.9877C32.4552 14.1525 32.5478 14.3759 32.5478 14.6088V31.0679C32.5478 31.3009 32.4552 31.5243 32.2905 31.689C32.1258 31.8537 31.9024 31.9463 31.6694 31.9463Z" fill="#2AB939"/>
<path d="M32.2675 23.0559C32.0471 23.0559 31.8231 23.0472 31.5982 23.0287C31.3904 23.0119 31.1954 22.9217 31.048 22.7743C30.9006 22.6269 30.8104 22.4319 30.7936 22.2241C30.6734 21.2002 30.7867 20.1624 31.125 19.1885C31.4632 18.2147 32.0176 17.3301 32.7466 16.6011C33.4756 15.8721 34.3602 15.3177 35.334 14.9794C36.3079 14.6412 37.3457 14.5279 38.3696 14.6481C38.5774 14.6649 38.7724 14.7551 38.9198 14.9025C39.0672 15.0499 39.1574 15.2449 39.1742 15.4527C39.2822 16.4757 39.1632 17.5099 38.8257 18.4816C38.4882 19.4533 37.9405 20.3386 37.2216 21.0743C36.5691 21.7175 35.7949 22.2241 34.9443 22.5644C34.0936 22.9046 33.1836 23.0717 32.2675 23.0559ZM37.4385 16.3803C36.1426 16.3998 34.9052 16.9232 33.9887 17.8397C33.0723 18.7562 32.5488 19.9936 32.5293 21.2895C33.8252 21.27 35.0626 20.7465 35.9791 19.8301C36.8956 18.9136 37.4191 17.6762 37.4385 16.3803Z" fill="#2AB939"/>
<path d="M30.9288 27.1953C30.2496 27.2115 29.574 27.0917 28.9418 26.843C28.3096 26.5942 27.7336 26.2216 27.2475 25.7469C26.6777 25.1519 26.255 24.432 26.0131 23.6445C25.7712 22.8571 25.7169 22.024 25.8544 21.2118C25.8794 21.0195 25.9673 20.8408 26.1044 20.7037C26.2415 20.5666 26.4201 20.4787 26.6124 20.4538C27.4245 20.2982 28.2624 20.3438 29.0528 20.5866C29.8432 20.8294 30.5621 21.262 31.1468 21.8467C31.7315 22.4314 32.1641 23.1503 32.4069 23.9407C32.6497 24.7311 32.6953 25.569 32.5397 26.3811C32.515 26.5735 32.4272 26.7524 32.29 26.8897C32.1529 27.027 31.9741 27.115 31.7817 27.14C31.4989 27.1764 31.214 27.1949 30.9288 27.1953ZM27.5567 22.1561C27.544 22.5904 27.6201 23.0227 27.7804 23.4266C27.9408 23.8305 28.182 24.1973 28.4892 24.5046C28.7964 24.8119 29.1632 25.0531 29.567 25.2136C29.9708 25.3741 30.4031 25.4503 30.8374 25.4377C30.8502 25.0033 30.7741 24.571 30.6137 24.1671C30.4534 23.7633 30.2122 23.3965 29.905 23.0892C29.5978 22.7819 29.231 22.5406 28.8272 22.3801C28.4234 22.2197 27.991 22.1434 27.5567 22.1561Z" fill="#2AB939"/>
</svg>
