<svg width="14" height="20" viewBox="0 0 14 20" fill="none" xmlns="http://www.w3.org/2000/svg">
<path d="M6.9004 0C3.0004 0 -0.0996001 3.4 0.000399862 7.3C0.1004 9.9 1.6004 12.1 3.7004 13.2C5.1004 13.9 6.0004 15.3 6.0004 16.8V17C6.0004 18.7 7.3004 20 9.0004 20C13.0004 20 14.0004 15 14.0004 7C14.0004 7 14.0004 0 6.9004 0ZM9.0004 18C8.4004 18 8.0004 17.6 8.0004 17V16.8C8.0004 14.6 6.7004 12.5 4.7004 11.4C3.1004 10.6 2.1004 9 2.0004 7.2C2.0004 5.9 2.5004 4.5 3.4004 3.5C4.3004 2.5 5.6004 2 6.8004 2C11.7004 2 12.0004 6.2 12.0004 7C12.0004 16.9 10.3004 18 9.0004 18ZM10.8004 5.6L3.3004 8.3C3.1004 8 3.0004 7.6 3.0004 7.1C3.0004 6.4 3.2004 5.8 3.5004 5.1L8.7004 3.2C9.9004 3.8 10.5004 4.7 10.8004 5.6ZM7.9004 13.1L10.7004 12.1C10.6004 13.6 10.3004 14.7 10.1004 15.4L8.8004 15.9C8.8004 14.9 8.5004 14 7.9004 13.1ZM11.0004 7.2C11.0004 8.4 11.0004 9.5 10.9004 10.4L6.9004 11.9C6.4004 11.4 5.8004 10.9 5.1004 10.6C4.7004 10.4 4.3004 10.1 4.0004 9.8L11.0004 7.2Z" fill="#1F4E3D"/>
</svg>
