<svg width="24" height="24" viewBox="0 0 24 24" fill="none" xmlns="http://www.w3.org/2000/svg">
<g clip-path="url(#clip0_4155_85)">
<path d="M12.3912 0.996094C9.52716 3.09773 7.31794 6.81933 7.53909 10.2909C7.83722 9.95109 8.16825 9.64017 8.52998 9.36689C9.05245 6.29081 10.8279 3.20967 12.3912 0.996094ZM2.69011 1.06561C3.82327 2.67037 5.06723 4.73077 5.86486 6.91434C6.23883 7.20586 6.58223 7.5338 6.88486 7.89591C6.93862 7.65506 7.00039 7.41606 7.07006 7.17933C6.30553 4.89033 4.64827 2.27864 2.69011 1.06561ZM21.677 1.56923C19.4569 3.48469 18.4256 6.2827 18.1615 8.98528C18.2951 9.15783 18.4226 9.33493 18.544 9.51628C18.7652 9.02816 19.0277 8.55979 19.3285 8.11627C19.7693 5.70666 20.619 3.35639 21.677 1.56923ZM17.3612 1.743C14.3222 2.42653 12.3105 5.43675 11.8974 8.15423C12.0367 8.23261 12.2129 8.3933 12.3317 8.55056C13.3914 5.43197 15.204 3.35986 17.3612 1.743ZM0.808594 6.02597C3.23569 7.16798 5.76914 8.67412 6.76336 10.8981C6.65686 10.3197 6.64012 9.70505 6.69792 9.07261C5.35744 7.07892 2.99686 6.09839 0.808594 6.02597ZM23.1237 7.31456C21.5109 7.27697 19.5174 8.41266 19.0865 10.4423C19.1399 10.657 19.6969 11.0914 20.0715 11.2378C20.1077 9.18305 21.8141 8.3213 23.1237 7.31456ZM14.9539 7.4168C15.9401 8.42278 17.2469 9.55013 17.8579 11.4541C18.0567 11.3376 18.2625 11.2325 18.4757 11.1404C17.7356 9.66558 16.4109 7.96012 14.9539 7.4168ZM11.5196 8.83031C9.76823 9.00047 8.51841 10.1955 7.61841 11.5808C6.93262 12.6364 6.53489 13.9097 6.46739 15.1558C7.68548 12.6329 9.3952 10.0578 11.748 9.17761L11.5196 8.83031ZM13.0162 9.4568C12.912 9.5858 12.7778 9.67772 12.6465 9.77639C14.103 11.0118 14.892 12.5304 15.2747 14.141C15.4137 13.9088 15.5623 13.6825 15.7202 13.4628C15.2941 11.8772 14.2145 10.1728 13.0162 9.4568ZM11.6445 10.1145C11.4892 10.1803 11.3368 10.2528 11.1876 10.3315L11.1182 11.6031C11.7979 12.1382 12.3097 12.6829 12.7126 13.353L12.8397 11.0251C12.5142 10.6971 12.1216 10.3931 11.6445 10.1145ZM6.00488 11.2437C3.35184 12.0321 1.76794 14.4635 1.34109 16.9229C2.7345 14.8949 4.1273 12.8243 6.25641 11.9457C6.18127 11.6966 6.09727 11.463 6.00488 11.2438V11.2437ZM9.50822 11.6893C9.32559 11.9239 9.16495 12.1158 9.00136 12.3527C11.0536 13.3222 11.8222 15.0446 12.7917 16.7575C12.6898 14.5 11.4847 12.4274 9.50822 11.6893V11.6893ZM19.1191 11.7985C17.7537 12.2754 16.6631 13.386 15.8664 14.8015C15.345 15.7278 14.9556 16.778 14.6973 17.833C15.632 16.5449 16.292 15.5758 16.9386 14.7619C17.724 13.7731 18.5054 13.0142 19.6871 12.2492C19.5513 12.0119 19.3349 11.8164 19.1191 11.7985V11.7985ZM20.1772 12.9349C19.9359 13.0894 19.7146 13.2418 19.5088 13.3948C20.6053 15.3674 21.3313 17.5465 22.1069 19.657C22.0365 17.3398 21.455 14.9921 20.1772 12.9349ZM8.16192 13.7627C7.68455 14.6573 7.23014 15.6134 6.64036 16.5298L6.71944 17.8235C7.28433 17.878 7.81472 17.7363 8.39381 17.5571L8.16192 13.7627ZM18.845 13.9362C18.268 14.4832 17.8341 14.978 17.4111 15.528C17.8145 15.8131 18.3311 15.9044 18.9359 15.9139L19.2211 14.6692C19.1011 14.4222 18.9756 14.1778 18.845 13.9362ZM10.9225 15.1878L10.8108 17.2336L10.8362 17.1958C11.2739 17.4895 11.6988 17.4877 12.1924 17.4128C11.7172 16.6058 11.3384 15.8466 10.9225 15.1878ZM17.1077 16.3366L16.503 18.9755C17.0587 19.2127 17.5673 19.4155 18.1321 19.421L18.7436 16.7527C18.1737 16.7291 17.6067 16.6281 17.1077 16.3366ZM10.763 18.1109L10.6423 20.3209C11.2108 20.5344 11.7633 20.6047 12.3205 20.5352L12.4465 18.227C11.9265 18.312 11.346 18.3562 10.763 18.1109ZM8.44673 18.4229C7.93406 18.5763 7.38009 18.7088 6.77142 18.6742L6.95409 21.663C7.60983 21.6677 8.20706 21.6431 8.63241 21.462L8.44673 18.4229ZM16.311 19.813L15.7335 22.3332C16.2681 22.5229 16.813 22.661 17.3687 22.7521L17.9402 20.2585C17.3326 20.22 16.8005 20.021 16.311 19.813ZM10.5945 21.1962L10.4876 23.1551H12.1775L12.274 21.3877C11.7127 21.4359 11.1492 21.37 10.5945 21.1962ZM8.68645 22.3453C8.14777 22.5163 7.56839 22.5253 7.00598 22.5135L7.04517 23.1551H8.73595L8.68645 22.3453Z" fill="#1F4E3D"/>
</g>
<defs>
<clipPath id="clip0_4155_85">
<rect width="24" height="24" fill="white"/>
</clipPath>
</defs>
</svg>
