<svg width="24" height="24" viewBox="0 0 24 24" fill="none" xmlns="http://www.w3.org/2000/svg">
<path d="M17.5 5H20.032C20.1589 4.99998 20.2811 5.04822 20.3737 5.13493C20.4664 5.22165 20.5226 5.34037 20.531 5.467L20.9645 11.967C20.969 12.0353 20.9595 12.1039 20.9364 12.1684C20.9133 12.2329 20.8773 12.2919 20.8304 12.3419C20.7836 12.3919 20.727 12.4317 20.6641 12.4589C20.6013 12.4861 20.5335 12.5001 20.465 12.5H16M15.5 15.5L17.5 2.5H3.5L6 5L7.5 15.5M15.5 15.5H7.5M15.5 15.5L17.5 21.5H5.5L7.5 15.5M10.5 18.5H12.5" stroke="#1F4E3D" stroke-width="2" stroke-linecap="round" stroke-linejoin="round"/>
</svg>
