<svg width="20" height="20" viewBox="0 0 20 20" fill="none" xmlns="http://www.w3.org/2000/svg">
<path d="M5 17.6604V19.0004C5 19.2656 5.10536 19.5199 5.29289 19.7075C5.48043 19.895 5.73478 20.0004 6 20.0004H14C14.2652 20.0004 14.5196 19.895 14.7071 19.7075C14.8946 19.5199 15 19.2656 15 19.0004V17.6604C16.5202 16.7827 17.7825 15.5204 18.6602 14.0002C19.5379 12.4801 20 10.7557 20 9.00038C20 8.73516 19.8946 8.48081 19.7071 8.29327C19.5196 8.10573 19.2652 8.00038 19 8.00038C18.9817 7.3881 18.8066 6.79077 18.4914 6.26552C18.1763 5.74027 17.7316 5.30466 17.2 5.00038C17.0725 4.12932 16.6354 3.33339 15.9686 2.75851C15.3019 2.18362 14.4503 1.86831 13.57 1.87038C13.2324 1.86979 12.8962 1.9135 12.57 2.00038C11.8817 1.34323 10.9666 0.976562 10.015 0.976562C9.06336 0.976562 8.14831 1.34323 7.46 2.00038C7.13379 1.9135 6.79758 1.86979 6.46 1.87038C5.57623 1.86348 4.71981 2.1766 4.04892 2.75192C3.37802 3.32724 2.93795 4.12589 2.81 5.00038C2.27652 5.30342 1.82987 5.73848 1.51291 6.26382C1.19596 6.78915 1.01934 7.38713 1 8.00038C0.734784 8.00038 0.48043 8.10573 0.292893 8.29327C0.105357 8.48081 0 8.73516 0 9.00038C4.45922e-05 10.7557 0.462128 12.4801 1.33981 14.0002C2.21749 15.5204 3.47985 16.7827 5 17.6604ZM4.11 6.66038L4.94 6.40038L4.78 5.50038C4.78261 5.285 4.82762 5.07225 4.91246 4.87428C4.9973 4.6763 5.1203 4.49698 5.27445 4.34654C5.4286 4.19611 5.61087 4.07751 5.81086 3.99753C6.01084 3.91754 6.22463 3.87773 6.44 3.88038C6.72879 3.87872 7.01366 3.94736 7.27 4.08038L8.08 4.53038L8.58 3.76038C8.73637 3.52731 8.9477 3.33632 9.19535 3.20426C9.44299 3.07219 9.71934 3.00311 10 3.00311C10.2807 3.00311 10.557 3.07219 10.8047 3.20426C11.0523 3.33632 11.2636 3.52731 11.42 3.76038L11.92 4.53038L12.73 4.08038C12.9863 3.94736 13.2712 3.87872 13.56 3.88038C13.9925 3.87494 14.4099 4.03956 14.7222 4.33882C15.0346 4.63807 15.2169 5.04801 15.23 5.48038L15.07 6.33038L15.89 6.61038C16.1925 6.70504 16.4598 6.88795 16.6576 7.13563C16.8554 7.3833 16.9746 7.68444 17 8.00038H3C3.0254 7.68444 3.14465 7.3833 3.34243 7.13563C3.54022 6.88795 3.80751 6.70504 4.11 6.61038V6.66038ZM17.94 10.0004C17.7732 11.3096 17.285 12.5572 16.519 13.632C15.7531 14.7068 14.7331 15.5754 13.55 16.1604C13.3836 16.2442 13.2439 16.3729 13.1467 16.532C13.0495 16.691 12.9987 16.874 13 17.0604V18.0004H7V17.0604C7.0013 16.874 6.95049 16.691 6.85331 16.532C6.75612 16.3729 6.61644 16.2442 6.45 16.1604C5.26691 15.5754 4.24693 14.7068 3.48096 13.632C2.71499 12.5572 2.22684 11.3096 2.06 10.0004H17.94Z" fill="#1F4E3D"/>
</svg>
