<svg width="20" height="16" viewBox="0 0 20 16" fill="none" xmlns="http://www.w3.org/2000/svg">
<path d="M5 11V11.01M15 13C15 13.5304 15.2107 14.0391 15.5858 14.4142C15.9609 14.7893 16.4696 15 17 15C17.5304 15 18.0391 14.7893 18.4142 14.4142C18.7893 14.0391 19 13.5304 19 13C19 12.4696 18.7893 11.9609 18.4142 11.5858C18.0391 11.2107 17.5304 11 17 11C16.4696 11 15.9609 11.2107 15.5858 11.5858C15.2107 11.9609 15 12.4696 15 13ZM15 13H8.5M1 11C1 12.0609 1.42143 13.0783 2.17157 13.8284C2.92172 14.5786 3.93913 15 5 15C6.06087 15 7.07828 14.5786 7.82843 13.8284C8.57857 13.0783 9 12.0609 9 11C9 9.93913 8.57857 8.92172 7.82843 8.17157C7.07828 7.42143 6.06087 7 5 7C3.93913 7 2.92172 7.42143 2.17157 8.17157C1.42143 8.92172 1 9.93913 1 11Z" stroke="#1F4E3D" stroke-width="2" stroke-linecap="round" stroke-linejoin="round"/>
<path d="M18 11.2V7C18 6.73478 17.8946 6.48043 17.7071 6.29289C17.5196 6.10536 17.2652 6 17 6H11L9 1H3V7.5" stroke="#1F4E3D" stroke-width="2" stroke-linecap="round" stroke-linejoin="round"/>
<path d="M16 1H15C14.7348 1 14.4804 1.10536 14.2929 1.29289C14.1054 1.48043 14 1.73478 14 2V6" stroke="#1F4E3D" stroke-width="2" stroke-linecap="round" stroke-linejoin="round"/>
</svg>
