<svg width="21" height="19" viewBox="0 0 21 19" fill="none" xmlns="http://www.w3.org/2000/svg">
<path d="M10 0H12V5H10V0ZM20 4.3L18.6 2.9L15 6.4L16.4 7.8C16.4 7.8 19.9 4.3 20 4.3ZM16.5 12C15.5 12 14.7 12.4 14.1 13H7.4L3.7 1H0V3H2.3L5 12H4.5C2.6 12 1 13.6 1 15.5C1 17.4 2.6 19 4.5 19C5.9 19 7.1 18.2 7.7 17H13.4C14 18.2 15.2 19 16.6 19C18.5 19 20.1 17.4 20.1 15.5C20.1 13.6 18.4 12 16.5 12ZM4.5 17C3.7 17 3 16.3 3 15.5C3 14.7 3.7 14 4.5 14C5.3 14 6 14.7 6 15.5C6 16.3 5.3 17 4.5 17ZM16.5 17C15.7 17 15 16.3 15 15.5C15 14.7 15.7 14 16.5 14C17.3 14 18 14.7 18 15.5C18 16.3 17.3 17 16.5 17ZM7.5 10L8.1 12H13L12.6 11.1C12.3 10.4 11.5 10 10.8 10H7.5Z" fill="#1F4E3D"/>
</svg>
