<svg width="22" height="16" viewBox="0 0 22 16" fill="none" xmlns="http://www.w3.org/2000/svg">
<path d="M6.87519 0.5C6.38645 0.502735 5.91184 0.664274 5.52291 0.960266C5.13398 1.25626 4.85181 1.67066 4.71894 2.141L3.73419 5.5385L2.23419 5.04725L1.76544 6.45275L2.86794 6.82775L2.65644 7.03925C2.44814 7.24426 2.28282 7.48874 2.17014 7.75841C2.05746 8.02807 1.99968 8.31749 2.00019 8.60975V10.25H1.39044L1.27344 10.8597L0.523437 14.6097L0.335938 15.5H21.6652L21.4777 14.609L20.7277 10.859L20.6099 10.25H20.0002V8.609C20.0002 8.012 19.7654 7.4615 19.3439 7.03925L19.1332 6.8285L20.2342 6.4535L19.7654 5.0465L18.2654 5.53925L17.2814 2.141C17.1486 1.67066 16.8664 1.25626 16.4775 0.960266C16.0885 0.664274 15.6139 0.502735 15.1252 0.5H6.87519ZM6.87519 2H15.1252C15.2858 1.99854 15.4423 2.05082 15.5698 2.14853C15.6972 2.24625 15.7884 2.38378 15.8287 2.53925L16.7414 5.75H5.25819L6.17244 2.53925C6.21272 2.3839 6.30375 2.24647 6.43107 2.14877C6.55839 2.05107 6.71471 1.99871 6.87519 2ZM4.57794 7.25H17.4217L18.2894 8.09375C18.3577 8.16102 18.4115 8.24144 18.4477 8.33014C18.484 8.41883 18.5018 8.51396 18.5002 8.60975V10.25H17.0002V8.75H14.0002V10.25H8.00019V8.75H5.00019V10.25H3.50019V8.609C3.50019 8.41025 3.57069 8.234 3.71094 8.09375L4.57794 7.25ZM2.60919 11.75H19.3904L19.8359 14H2.16519L2.60919 11.75Z" fill="#1F4E3D"/>
</svg>
