<svg width="21" height="21" viewBox="0 0 21 21" fill="none" xmlns="http://www.w3.org/2000/svg">
<path d="M8.5 16.0497L7.43 14.9997L20.07 2.34969L18.66 0.929688L6 13.5797L4.95 12.4997C4.17 11.7297 2.9 11.7297 2.12 12.4997L0 14.6397L0.71 15.3397L2.83 13.2197L3.54 13.9297L1.41 16.0497L2.12 16.7597L4.24 14.6397L4.95 15.3397L2.83 17.4597L3.54 18.1697L5.66 16.0497L6.36 16.7597L4.24 18.8797L4.95 19.5897L7.07 17.4597L7.78 18.1697L5.66 20.2897L6.36 20.9997L8.5 18.8797C9.27 18.0997 9.27 16.8297 8.5 16.0497Z" fill="#1F4E3D"/>
</svg>
