<svg width="50" height="44" viewBox="0 0 50 44" fill="none" xmlns="http://www.w3.org/2000/svg">
<path d="M29.022 23.7291H41.6904C41.4552 26.7477 40.2047 29.5593 38.1855 31.6093C36.1662 33.6593 33.525 34.7987 30.7828 34.8029C30.5383 34.8029 30.3038 34.9102 30.1309 35.1012C29.9581 35.2922 29.8609 35.5513 29.8609 35.8214V42.3769C29.8609 42.647 29.9581 42.9061 30.1309 43.0971C30.3038 43.2881 30.5383 43.3954 30.7828 43.3954C41.1078 43.3954 49.5061 34.1163 49.5061 22.7105V1.09668C49.5061 0.826546 49.409 0.567471 49.2361 0.376454C49.0632 0.185437 48.8287 0.078125 48.5842 0.078125H29.022C28.7775 0.078125 28.5431 0.185437 28.3702 0.376454C28.1973 0.567471 28.1002 0.826546 28.1002 1.09668V22.7105C28.1002 22.9807 28.1973 23.2397 28.3702 23.4307C28.5431 23.6218 28.7775 23.7291 29.022 23.7291ZM29.9439 2.11524H47.6623V22.7105C47.6623 32.6517 40.586 40.8001 31.7047 41.3298V36.8033C38.3293 36.2798 43.5729 30.1582 43.5729 22.7105C43.5729 22.4404 43.4758 22.1813 43.3029 21.9903C43.13 21.7993 42.8955 21.692 42.651 21.692H29.9439V2.11524ZM1.375 23.7291H14.0453C13.8105 26.7479 12.56 29.5598 10.5407 31.6099C8.52141 33.6599 5.87995 34.7992 3.13763 34.8029C2.89313 34.8029 2.65865 34.9102 2.48576 35.1012C2.31288 35.2922 2.21575 35.5513 2.21575 35.8214V42.3769C2.21575 42.647 2.31288 42.9061 2.48576 43.0971C2.65865 43.2881 2.89313 43.3954 3.13763 43.3954C13.4626 43.3954 21.8609 34.1163 21.8609 22.7105V1.09668C21.8609 0.826546 21.7638 0.567471 21.5909 0.376454C21.418 0.185437 21.1835 0.078125 20.939 0.078125H1.375C1.1305 0.078125 0.896021 0.185437 0.723136 0.376454C0.550251 0.567471 0.453125 0.826546 0.453125 1.09668V22.7105C0.453125 22.9807 0.550251 23.2397 0.723136 23.4307C0.896021 23.6218 1.1305 23.7291 1.375 23.7291ZM2.29688 2.11524H20.0172V22.7105C20.0172 32.6517 12.939 40.8001 4.0595 41.3298V36.8033C10.6841 36.2798 15.9259 30.1582 15.9259 22.7105C15.9259 22.4404 15.8288 22.1813 15.6559 21.9903C15.483 21.7993 15.2485 21.692 15.004 21.692H2.29688V2.11524Z" fill="#2AB939"/>
</svg>
