<svg width="68" height="50" viewBox="0 0 68 50" fill="none" xmlns="http://www.w3.org/2000/svg">
<g opacity="0.5">
<mask id="path-1-inside-1_3961_1153" fill="white">
<path d="M14.5714 0.571428C22.6161 0.571428 29.1429 7.09821 29.1429 15.1429V29.7143C29.1429 40.4911 20.3393 49.1429 9.71429 49.1429C6.98214 49.1429 4.85714 47.0179 4.85714 44.2857C4.85714 41.7054 6.98214 39.4286 9.71429 39.4286C15.0268 39.4286 19.4286 35.1786 19.4286 29.7143V28.9554C17.7589 29.4107 16.2411 29.7143 14.5714 29.7143C6.375 29.7143 0 23.3393 0 15.1429C0 7.09821 6.375 0.571428 14.5714 0.571428ZM68 15.1429V29.7143C68 40.4911 59.1964 49.1429 48.5714 49.1429C45.8393 49.1429 43.7143 47.0179 43.7143 44.2857C43.7143 41.7054 45.8393 39.4286 48.5714 39.4286C53.8839 39.4286 58.2857 35.1786 58.2857 29.7143V28.9554C56.6161 29.4107 55.0982 29.7143 53.4286 29.7143C45.2321 29.7143 38.8571 23.3393 38.8571 15.1429C38.8571 7.09821 45.2321 0.571428 53.4286 0.571428C61.4732 0.571428 68 7.09821 68 15.1429Z"/>
</mask>
<path d="M19.4286 28.9554H21.4286V26.3369L18.9023 27.0258L19.4286 28.9554ZM58.2857 28.9554H60.2857V26.3369L57.7595 27.0258L58.2857 28.9554ZM14.5714 2.57143C21.5115 2.57143 27.1429 8.20278 27.1429 15.1429H31.1429C31.1429 5.99364 23.7206 -1.42857 14.5714 -1.42857V2.57143ZM27.1429 15.1429V29.7143H31.1429V15.1429H27.1429ZM27.1429 29.7143C27.1429 39.3764 19.2449 47.1429 9.71429 47.1429V51.1429C21.4337 51.1429 31.1429 41.6058 31.1429 29.7143H27.1429ZM9.71429 47.1429C8.08671 47.1429 6.85714 45.9133 6.85714 44.2857H2.85714C2.85714 48.1224 5.87757 51.1429 9.71429 51.1429V47.1429ZM6.85714 44.2857C6.85714 42.7692 8.12704 41.4286 9.71429 41.4286V37.4286C5.83724 37.4286 2.85714 40.6416 2.85714 44.2857H6.85714ZM9.71429 41.4286C16.1109 41.4286 21.4286 36.3035 21.4286 29.7143H17.4286C17.4286 34.0537 13.9427 37.4286 9.71429 37.4286V41.4286ZM21.4286 29.7143V28.9554H17.4286V29.7143H21.4286ZM18.9023 27.0258C17.3112 27.4598 15.9875 27.7143 14.5714 27.7143V31.7143C16.4947 31.7143 18.2067 31.3616 19.9548 30.8849L18.9023 27.0258ZM14.5714 27.7143C7.47957 27.7143 2 22.2347 2 15.1429H-2C-2 24.4439 5.27043 31.7143 14.5714 31.7143V27.7143ZM2 15.1429C2 8.18914 7.49316 2.57143 14.5714 2.57143V-1.42857C5.25684 -1.42857 -2 6.00728 -2 15.1429H2ZM66 15.1429V29.7143H70V15.1429H66ZM66 29.7143C66 39.3764 58.102 47.1429 48.5714 47.1429V51.1429C60.2908 51.1429 70 41.6058 70 29.7143H66ZM48.5714 47.1429C46.9439 47.1429 45.7143 45.9133 45.7143 44.2857H41.7143C41.7143 48.1224 44.7347 51.1429 48.5714 51.1429V47.1429ZM45.7143 44.2857C45.7143 42.7692 46.9842 41.4286 48.5714 41.4286V37.4286C44.6944 37.4286 41.7143 40.6416 41.7143 44.2857H45.7143ZM48.5714 41.4286C54.9681 41.4286 60.2857 36.3035 60.2857 29.7143H56.2857C56.2857 34.0537 52.7998 37.4286 48.5714 37.4286V41.4286ZM60.2857 29.7143V28.9554H56.2857V29.7143H60.2857ZM57.7595 27.0258C56.1683 27.4598 54.8446 27.7143 53.4286 27.7143V31.7143C55.3518 31.7143 57.0639 31.3616 58.812 30.8849L57.7595 27.0258ZM53.4286 27.7143C46.3367 27.7143 40.8571 22.2347 40.8571 15.1429H36.8571C36.8571 24.4439 44.1276 31.7143 53.4286 31.7143V27.7143ZM40.8571 15.1429C40.8571 8.18914 46.3503 2.57143 53.4286 2.57143V-1.42857C44.114 -1.42857 36.8571 6.00728 36.8571 15.1429H40.8571ZM53.4286 2.57143C60.3686 2.57143 66 8.20278 66 15.1429H70C70 5.99364 62.5778 -1.42857 53.4286 -1.42857V2.57143Z" fill="#FDD61F" mask="url(#path-1-inside-1_3961_1153)"/>
</g>
</svg>
