<svg width="65" height="65" viewBox="0 0 65 65" fill="none" xmlns="http://www.w3.org/2000/svg">
<path d="M35.8541 25.2619C35.7104 25.2619 35.5689 25.2265 35.442 25.159C35.3151 25.0915 35.2067 24.9939 35.1263 24.8748C35.046 24.7557 34.996 24.6186 34.981 24.4757C34.9659 24.3328 34.9861 24.1883 35.0399 24.055C39.4897 13.0094 37.7145 6.53313 34.8422 4.34421C34.1821 3.8016 33.3541 3.50497 32.4996 3.50497C31.6451 3.50497 30.8171 3.8016 30.1569 4.34421C27.2846 6.53313 25.5094 13.0094 29.9593 24.055C30.0024 24.1621 30.024 24.2766 30.0228 24.3919C30.0217 24.5073 29.9978 24.6213 29.9525 24.7275C29.9073 24.8337 29.8416 24.9299 29.7592 25.0106C29.6768 25.0914 29.5793 25.1552 29.4723 25.1982C29.3652 25.2413 29.2507 25.2629 29.1353 25.2617C29.02 25.2606 28.9059 25.2367 28.7998 25.1915C28.6936 25.1462 28.5974 25.0805 28.5166 24.9981C28.4359 24.9157 28.3721 24.8182 28.329 24.7112C23.5164 12.7652 25.5674 5.63367 29.0924 2.94759C30.0577 2.17006 31.26 1.74609 32.4996 1.74609C33.7391 1.74609 34.9414 2.17006 35.9068 2.94759C39.4317 5.63367 41.4828 12.7617 36.6701 24.7112C36.6047 24.874 36.492 25.0134 36.3465 25.1116C36.2011 25.2098 36.0296 25.2621 35.8541 25.2619Z" fill="#2AB939"/>
<path d="M12.1829 39.5034C7.55908 39.5034 4.50583 37.9548 2.94759 35.909C2.17006 34.9437 1.74609 33.7414 1.74609 32.5018C1.74609 31.2622 2.17006 30.06 2.94759 29.0946C5.63367 25.5688 12.7626 23.5186 24.7112 28.3313C24.8182 28.3743 24.9157 28.4381 24.9981 28.5189C25.0805 28.5996 25.1462 28.6958 25.1915 28.802C25.2367 28.9082 25.2606 29.0222 25.2617 29.1376C25.2629 29.2529 25.2413 29.3674 25.1982 29.4745C25.1552 29.5815 25.0914 29.679 25.0106 29.7614C24.9299 29.8438 24.8337 29.9095 24.7275 29.9548C24.6213 30 24.5073 30.0239 24.3919 30.025C24.2766 30.0262 24.1621 30.0046 24.055 29.9615C13.0094 25.5117 6.53401 27.2869 4.34421 30.1592C3.8016 30.8193 3.50497 31.6473 3.50497 32.5018C3.50497 33.3563 3.8016 34.1843 4.34421 34.8444C6.53313 37.7167 13.0094 39.4928 24.055 35.0421C24.1621 34.999 24.2766 34.9774 24.3919 34.9786C24.5073 34.9797 24.6213 35.0036 24.7275 35.0488C24.8337 35.0941 24.9299 35.1598 25.0106 35.2422C25.0914 35.3246 25.1552 35.4221 25.1982 35.5291C25.2413 35.6362 25.2629 35.7507 25.2617 35.866C25.2606 35.9814 25.2367 36.0955 25.1915 36.2016C25.1462 36.3078 25.0805 36.404 24.9981 36.4847C24.9157 36.5655 24.8182 36.6293 24.7112 36.6723C20.7518 38.4001 16.5005 39.3608 12.1829 39.5034Z" fill="#2AB939"/>
<path d="M32.4996 63.2541C31.2623 63.2411 30.0641 62.8185 29.0924 62.0525C25.5674 59.3664 23.5164 52.2383 28.329 40.2889C28.3721 40.1818 28.4359 40.0843 28.5166 40.0019C28.5974 39.9195 28.6936 39.8538 28.7998 39.8086C28.9059 39.7634 29.02 39.7395 29.1353 39.7383C29.2507 39.7372 29.3652 39.7587 29.4723 39.8018C29.5793 39.8449 29.6768 39.9087 29.7592 39.9894C29.8416 40.0702 29.9073 40.1664 29.9525 40.2726C29.9978 40.3787 30.0217 40.4927 30.0228 40.6081C30.024 40.7235 30.0024 40.838 29.9593 40.945C25.5094 51.9906 27.2846 58.4669 30.1569 60.6558C30.8171 61.1985 31.6451 61.4951 32.4996 61.4951C33.3541 61.4951 34.1821 61.1985 34.8422 60.6558C37.7145 58.4669 39.4897 51.9906 35.0399 40.945C34.9528 40.7288 34.9553 40.4869 35.0466 40.2726C35.138 40.0582 35.3107 39.8888 35.5269 39.8018C35.7431 39.7148 35.985 39.7172 36.1994 39.8086C36.4138 39.8999 36.5831 40.0727 36.6701 40.2889C41.4828 52.2348 39.4317 59.3664 35.9068 62.0525C34.9351 62.8185 33.7369 63.2411 32.4996 63.2541Z" fill="#2AB939"/>
<path d="M52.8172 39.5034C48.4995 39.3612 44.2482 38.4005 40.2889 36.6723C40.0727 36.5853 39.8999 36.416 39.8086 36.2016C39.7172 35.9872 39.7148 35.7453 39.8018 35.5291C39.8888 35.3129 40.0582 35.1402 40.2726 35.0488C40.4869 34.9575 40.7288 34.9551 40.945 35.0421C51.9915 39.4919 58.4669 37.7167 60.6558 34.8444C61.1985 34.1843 61.4951 33.3563 61.4951 32.5018C61.4951 31.6473 61.1985 30.8193 60.6558 30.1592C58.4669 27.2869 51.9915 25.5117 40.945 29.9615C40.838 30.0046 40.7235 30.0262 40.6081 30.025C40.4927 30.0239 40.3787 30 40.2726 29.9548C40.1664 29.9095 40.0702 29.8438 39.9894 29.7614C39.9087 29.679 39.8449 29.5815 39.8018 29.4745C39.7587 29.3674 39.7372 29.2529 39.7383 29.1376C39.7395 29.0222 39.7634 28.9082 39.8086 28.802C39.8538 28.6958 39.9195 28.5996 40.0019 28.5189C40.0843 28.4381 40.1818 28.3743 40.2889 28.3313C52.2348 23.5186 59.3664 25.5688 62.0525 29.0946C62.83 30.06 63.254 31.2622 63.254 32.5018C63.254 33.7414 62.83 34.9437 62.0525 35.909C60.4942 37.9548 57.4401 39.5034 52.8172 39.5034Z" fill="#2AB939"/>
<path d="M40.607 30.0136C40.4045 30.0136 40.2083 29.9437 40.0514 29.8156C39.8946 29.6876 39.7868 29.5093 39.7463 29.3109C39.7058 29.1125 39.7351 28.9063 39.8292 28.727C39.9233 28.5477 40.0764 28.4064 40.2627 28.3271C51.2213 23.6638 54.5469 17.8305 54.0629 14.2511C53.9802 13.3999 53.6043 12.604 52.9996 11.9993C52.395 11.3946 51.599 11.0188 50.7479 10.9361C47.1755 10.4521 41.3352 13.7785 36.6719 24.7363C36.6267 24.8424 36.561 24.9386 36.4786 25.0193C36.3962 25.1001 36.2987 25.1638 36.1917 25.2068C36.0847 25.2499 35.9702 25.2715 35.8549 25.2703C35.7395 25.2691 35.6256 25.2453 35.5194 25.2001C35.4133 25.1548 35.3171 25.0892 35.2364 25.0068C35.1557 24.9244 35.0919 24.8269 35.0489 24.7199C35.0058 24.6129 34.9842 24.4984 34.9854 24.3831C34.9866 24.2677 35.0104 24.1537 35.0557 24.0476C40.1002 12.1895 46.5879 8.59871 50.9833 9.19512C52.2163 9.32777 53.3669 9.87827 54.2438 10.7552C55.1207 11.6321 55.6712 12.7826 55.8038 14.0157C56.3967 18.4076 52.8059 24.8988 40.9513 29.9433C40.8425 29.9899 40.7254 30.0138 40.607 30.0136Z" fill="#2AB939"/>
<path d="M50.0513 55.8635C45.7077 55.8635 39.755 51.9916 35.0557 40.9486C34.9643 40.7343 34.9619 40.4924 35.0489 40.2763C35.1358 40.0602 35.3051 39.8875 35.5194 39.7962C35.7338 39.7048 35.9756 39.7024 36.1917 39.7894C36.4078 39.8764 36.5805 40.0456 36.6719 40.2599C41.3352 51.2203 47.1729 54.5459 50.7479 54.0619C51.599 53.9792 52.395 53.6033 52.9996 52.9987C53.6043 52.394 53.9802 51.598 54.0629 50.7469C54.5469 47.1675 51.2213 41.3342 40.2627 36.6709C40.0484 36.5796 39.8791 36.4069 39.7921 36.1907C39.7051 35.9746 39.7076 35.7328 39.7989 35.5185C39.8902 35.3041 40.0629 35.1349 40.2791 35.0479C40.4952 34.9609 40.737 34.9634 40.9513 35.0547C52.8094 40.0992 56.3967 46.5895 55.8038 50.9823C55.6712 52.2153 55.1207 53.3659 54.2438 54.2428C53.3669 55.1197 52.2163 55.6702 50.9833 55.8028C50.6744 55.8442 50.363 55.8645 50.0513 55.8635Z" fill="#2AB939"/>
<path d="M14.9479 55.8652C14.6362 55.8656 14.3248 55.8448 14.016 55.8029C12.7829 55.6702 11.6324 55.1197 10.7555 54.2428C9.87857 53.3659 9.32807 52.2153 9.19543 50.9823C8.60252 46.5904 12.1933 40.0992 24.0479 35.0547C24.154 35.0095 24.268 34.9856 24.3834 34.9844C24.4987 34.9833 24.6132 35.0048 24.7202 35.0479C24.8272 35.091 24.9247 35.1547 25.0071 35.2354C25.0895 35.3162 25.1551 35.4123 25.2004 35.5185C25.2456 35.6246 25.2694 35.7386 25.2706 35.8539C25.2718 35.9693 25.2502 36.0837 25.2071 36.1907C25.1641 36.2977 25.1004 36.3952 25.0196 36.4776C24.9389 36.56 24.8427 36.6257 24.7366 36.6709C13.7779 41.336 10.4524 47.1693 10.9364 50.7487C11.0191 51.5998 11.3949 52.3958 11.9996 53.0004C12.6043 53.6051 13.4002 53.9809 14.2514 54.0637C17.8308 54.5476 23.665 51.2212 28.3274 40.2635C28.4187 40.0491 28.5914 39.8799 28.8075 39.7929C28.9146 39.7498 29.029 39.7283 29.1444 39.7294C29.2597 39.7306 29.3737 39.7545 29.4798 39.7997C29.5859 39.8449 29.6821 39.9106 29.7629 39.993C29.8436 40.0753 29.9073 40.1728 29.9504 40.2798C29.9935 40.3869 30.015 40.5013 30.0139 40.6166C30.0127 40.732 29.9888 40.846 29.9436 40.9521C25.2452 51.9942 19.2915 55.8652 14.9479 55.8652Z" fill="#2AB939"/>
<path d="M24.3923 30.0137C24.2739 30.014 24.1568 29.9901 24.048 29.9434C12.1899 24.8989 8.60257 18.4086 9.19547 14.0158C9.32811 12.7828 9.87862 11.6322 10.7555 10.7553C11.6324 9.87839 12.783 9.32789 14.016 9.19525C18.4079 8.59795 24.8991 12.1923 29.9436 24.0477C30.035 24.2621 30.0374 24.5039 29.9504 24.72C29.8635 24.9361 29.6942 25.1089 29.4799 25.2002C29.2655 25.2915 29.0237 25.2939 28.8076 25.207C28.5915 25.12 28.4188 24.9507 28.3274 24.7364C23.6641 13.7786 17.8308 10.4522 14.2514 10.9362C13.4003 11.0189 12.6043 11.3948 11.9997 11.9994C11.395 12.6041 11.0191 13.4001 10.9364 14.2512C10.4524 17.8306 13.778 23.6639 24.7366 28.3272C24.9229 28.4066 25.076 28.5478 25.1701 28.7271C25.2642 28.9064 25.2935 29.1127 25.253 29.311C25.2125 29.5094 25.1047 29.6877 24.9479 29.8157C24.791 29.9438 24.5948 30.0137 24.3923 30.0137Z" fill="#2AB939"/>
<path d="M32.5001 42.1603C30.5891 42.1603 28.721 41.5936 27.132 40.5319C25.5431 39.4702 24.3047 37.9612 23.5734 36.1957C22.8421 34.4301 22.6507 32.4874 23.0236 30.6131C23.3964 28.7388 24.3166 27.0172 25.6679 25.6659C27.0192 24.3146 28.7408 23.3944 30.6151 23.0216C32.4893 22.6488 34.4321 22.8401 36.1976 23.5714C37.9631 24.3027 39.4722 25.5412 40.5338 27.1301C41.5955 28.719 42.1622 30.5871 42.1622 32.4981C42.1592 35.0597 41.1403 37.5156 39.3289 39.3269C37.5175 41.1383 35.0617 42.1572 32.5001 42.1603ZM32.5001 24.5927C30.9365 24.5927 29.4081 25.0563 28.108 25.925C26.808 26.7937 25.7948 28.0283 25.1964 29.4728C24.5981 30.9174 24.4415 32.5069 24.7466 34.0404C25.0516 35.5739 25.8045 36.9825 26.9101 38.0881C28.0157 39.1937 29.4243 39.9466 30.9578 40.2516C32.4913 40.5566 34.0808 40.4001 35.5253 39.8017C36.9698 39.2034 38.2045 38.1901 39.0732 36.8901C39.9418 35.5901 40.4055 34.0616 40.4055 32.4981C40.4029 30.4022 39.5692 28.393 38.0872 26.911C36.6052 25.429 34.5959 24.5953 32.5001 24.5927Z" fill="#2AB939"/>
</svg>
