<svg width="26" height="24" viewBox="0 0 26 24" fill="none" xmlns="http://www.w3.org/2000/svg">
<path d="M25.5102 4.64365C24.9555 3.98499 24.2708 3.65565 23.4562 3.65565H6.55616L5.46416 1.05565C5.41216 0.847654 5.29516 0.687321 5.11316 0.574654C4.93116 0.461987 4.72749 0.405655 4.50216 0.405655H1.25216C0.922823 0.405655 0.65849 0.505322 0.459156 0.704655C0.259823 0.903988 0.160156 1.16832 0.160156 1.49765C0.160156 1.82699 0.259823 2.08699 0.459156 2.27765C0.65849 2.46832 0.922823 2.56365 1.25216 2.56365H3.74816L5.25616 6.25566L9.26016 16.1097C9.46816 16.647 9.79749 17.0543 10.2482 17.3317C10.6988 17.609 11.2015 17.7477 11.7562 17.7477H12.1982L21.8182 16.0057C22.2688 15.9017 22.6675 15.6937 23.0142 15.3817C23.3608 15.0697 23.6122 14.697 23.7682 14.2637V14.1597L25.8482 6.90565C26.0042 6.52432 26.0562 6.13432 26.0042 5.73565C25.9522 5.33699 25.7875 4.97299 25.5102 4.64365ZM21.9482 13.5097C21.8615 13.6657 21.7488 13.813 21.6102 13.9517L11.9642 15.6937C11.7908 15.6937 11.6738 15.6763 11.6132 15.6417C11.5525 15.607 11.4875 15.5117 11.4182 15.3557L7.51816 5.81365H23.4562C23.6642 5.81365 23.7682 5.85699 23.7682 5.94366C23.8548 6.01299 23.8982 6.15166 23.8982 6.35966L21.9482 13.5097ZM9.05216 19.4637C8.51482 19.4637 8.03816 19.6717 7.62216 20.0877C7.20616 20.5037 6.99816 20.9847 6.99816 21.5307C6.99816 22.0767 7.20616 22.5577 7.62216 22.9737C8.03816 23.3897 8.51482 23.5977 9.05216 23.5977C9.39882 23.5977 9.73249 23.5023 10.0532 23.3117C10.3738 23.121 10.6295 22.8653 10.8202 22.5447C11.0108 22.224 11.1062 21.886 11.1062 21.5307C11.1062 21.1753 11.0108 20.8373 10.8202 20.5167C10.6295 20.196 10.3738 19.9403 10.0532 19.7497C9.73249 19.559 9.39882 19.4637 9.05216 19.4637ZM21.4022 19.4637C20.8648 19.4637 20.3882 19.6717 19.9722 20.0877C19.5562 20.5037 19.3482 20.9847 19.3482 21.5307C19.3482 22.0767 19.5562 22.5577 19.9722 22.9737C20.3882 23.3897 20.8648 23.5977 21.4022 23.5977C21.7488 23.5977 22.0825 23.5023 22.4032 23.3117C22.7238 23.121 22.9795 22.8653 23.1702 22.5447C23.3608 22.224 23.4562 21.886 23.4562 21.5307C23.4562 21.1753 23.3608 20.8373 23.1702 20.5167C22.9795 20.196 22.7238 19.9403 22.4032 19.7497C22.0825 19.559 21.7488 19.4637 21.4022 19.4637Z" fill="white"/>
</svg>
