<svg width="65" height="65" viewBox="0 0 65 65" fill="none" xmlns="http://www.w3.org/2000/svg">
<g clip-path="url(#clip0_4066_10286)">
<path d="M54.8722 6.48557H64.0524C64.576 6.48557 65.0003 6.06118 65.0003 5.53771C65.0003 5.01423 64.576 4.58984 64.0524 4.58984H54.8722C54.3486 4.58984 53.9243 5.01423 53.9243 5.53771C53.9243 6.06118 54.3486 6.48557 54.8722 6.48557Z" fill="#2AB939"/>
<path d="M14.9122 6.92587H18.8114C19.5027 7.76062 20.5465 8.29332 21.7125 8.29332H27.1298L31.6652 12.8287C32.7073 13.8708 34.0928 14.4447 35.5664 14.4447H36.6179C37.1415 14.4447 37.5658 14.0203 37.5658 13.4968C37.5658 12.9734 37.1415 12.549 36.6179 12.549H35.5664C34.5991 12.549 33.6897 12.1722 33.0057 11.4883L28.1927 6.67526C28.0149 6.49744 27.7739 6.39759 27.5224 6.39759H21.7123C20.6812 6.39759 19.8423 5.55867 19.8423 4.52752C19.8423 3.49637 20.6812 2.65745 21.7123 2.65745H37.353C38.9374 2.65745 40.4851 3.1013 41.8289 3.94111L45.6676 6.34022C45.8182 6.43437 45.9923 6.48429 46.17 6.48429H50.8324C51.356 6.48429 51.7802 6.0599 51.7802 5.53643C51.7802 5.01295 51.356 4.58856 50.8324 4.58856H46.442L42.8337 2.33353C41.1883 1.30529 39.2932 0.761719 37.3531 0.761719H21.7125C19.636 0.761719 17.9466 2.45107 17.9466 4.52765C17.9466 4.69814 17.9592 4.86572 17.9812 5.03027H14.9122C14.3886 5.03027 13.9644 5.45466 13.9644 5.97813C13.9644 6.50161 14.3887 6.92587 14.9122 6.92587Z" fill="#2AB939"/>
<path d="M3.83958 18.2612H6.41069C6.08956 18.8167 5.90479 19.4605 5.90479 20.1469C5.90479 21.9667 7.19704 23.4901 8.91204 23.8484C8.56184 24.4216 8.35963 25.0948 8.35963 25.8143C8.35963 27.8994 10.0561 29.5957 12.1411 29.5957H28.7776C29.3012 29.5957 29.7255 29.1713 29.7255 28.6479C29.7255 28.6405 29.7254 28.6321 29.7253 28.6241C29.7154 28.1091 29.2949 27.6947 28.7775 27.6947C28.7431 27.6947 28.709 27.6966 28.6754 27.7001H12.141C11.1011 27.7001 10.2552 26.8541 10.2552 25.8144C10.2552 24.7746 11.1011 23.9286 12.141 23.9286H20.7141C21.2377 23.9286 21.662 23.5042 21.662 22.9808C21.662 22.4573 21.2377 22.0329 20.7141 22.0329H9.68639C8.64652 22.0329 7.80052 21.1869 7.80052 20.1472C7.80052 19.1074 8.64652 18.2614 9.68639 18.2614H20.7141C21.2377 18.2614 21.662 17.837 21.662 17.3136C21.662 16.7901 21.2377 16.3657 20.7141 16.3657H3.83958C2.79971 16.3657 1.95383 15.5197 1.95383 14.4799C1.95383 13.4402 2.79971 12.5942 3.83958 12.5942H20.7141C21.2377 12.5942 21.662 12.1698 21.662 11.6463C21.662 11.1229 21.2377 10.6985 20.7141 10.6985H7.90491C6.86504 10.6985 6.01916 9.85247 6.01916 8.81272C6.01916 7.77298 6.86504 6.92698 7.90491 6.92698H10.873C11.3966 6.92698 11.8209 6.50259 11.8209 5.97911C11.8209 5.45564 11.3966 5.03125 10.873 5.03125H7.90491C5.81986 5.03125 4.12343 6.72767 4.12343 8.81272C4.12343 9.49923 4.3082 10.143 4.62934 10.6985H3.83958C1.75453 10.6985 0.0581055 12.3949 0.0581055 14.4799C0.0581055 16.565 1.75453 18.2612 3.83958 18.2612Z" fill="#2AB939"/>
<path d="M64.052 24.8672H49.1938C48.9816 24.8672 48.7756 24.9383 48.6088 25.0693L47.8994 25.6257C46.1939 26.9639 44.0605 27.7009 41.8926 27.7009H40.3416C40.308 27.6974 40.2741 27.6955 40.2395 27.6955C39.722 27.6955 39.3014 28.1103 39.2918 28.6254C39.2916 28.6332 39.2915 28.6416 39.2915 28.6488C39.2915 29.1723 39.7158 29.5967 40.2394 29.5967H41.8926C44.4829 29.5967 47.0318 28.7161 49.0696 27.1173L49.5212 26.7629H64.0521C64.5757 26.7629 65 26.3385 65 25.8151C65 25.2916 64.5756 24.8672 64.052 24.8672Z" fill="#2AB939"/>
<path d="M24.2925 18.9803C24.2925 20.923 25.873 22.5036 27.8158 22.5036C29.7585 22.5036 31.3392 20.923 31.3392 18.9803C31.3392 17.0376 29.7585 15.457 27.8158 15.457C25.873 15.457 24.2925 17.0376 24.2925 18.9803ZM29.4434 18.9803C29.4434 19.8777 28.7133 20.6079 27.8158 20.6079C26.9183 20.6079 26.1882 19.8777 26.1882 18.9803C26.1882 18.0829 26.9183 17.3528 27.8158 17.3528C28.7132 17.3526 29.4434 18.0829 29.4434 18.9803Z" fill="#2AB939"/>
<path d="M34.5087 25.7539C32.9164 25.7539 31.6211 27.0493 31.6211 28.6415C31.6211 30.2336 32.9164 31.5289 34.5087 31.5289C36.101 31.5289 37.3962 30.2336 37.3962 28.6415C37.3962 27.0493 36.1008 25.7539 34.5087 25.7539ZM34.5087 29.6332C33.9618 29.6332 33.5168 29.1883 33.5168 28.6415C33.5168 28.0946 33.9618 27.6496 34.5087 27.6496C35.0555 27.6496 35.5005 28.0946 35.5005 28.6415C35.5005 29.1883 35.0555 29.6332 34.5087 29.6332Z" fill="#2AB939"/>
<path d="M59.9275 62.3471H58.7646L49.5135 54.4706C49.1148 54.1311 48.5166 54.1792 48.1773 54.5779C47.838 54.9765 47.886 55.5746 48.2846 55.914L55.8403 62.3471H5.44769L19.1177 50.7083C20.8941 49.1959 23.1572 48.3629 25.4902 48.3629H35.7977C38.1308 48.3629 40.3939 49.1959 42.1702 50.7083L45.2071 53.2938C45.6059 53.6334 46.2041 53.5852 46.5433 53.1865C46.8826 52.7879 46.8346 52.1897 46.436 51.8504L43.3992 49.2649C41.2803 47.4608 38.5806 46.4672 35.7977 46.4672H29.3322V43.0794H31.2836C34.3426 43.0794 36.8312 40.5907 36.8312 37.5316V36.4184C36.8312 35.5609 36.1336 34.8633 35.2761 34.8633H32.9842C30.4578 34.8633 28.3218 36.5615 27.6541 38.8758C26.9317 38.2508 25.9915 37.8714 24.9635 37.8714H23.06C22.1827 37.8714 21.4688 38.5852 21.4688 39.4628V40.3979C21.4688 42.669 23.3163 44.5166 25.5874 44.5166H27.4363V46.467H25.4901C22.7072 46.467 20.0075 47.4607 17.8886 49.2648L2.52347 62.3471H0.947865C0.424264 62.3471 0 62.7714 0 63.2949C0 63.8184 0.424264 64.2428 0.947865 64.2428H59.9275C60.4511 64.2428 60.8754 63.8184 60.8754 63.2949C60.8754 62.7714 60.451 62.3471 59.9275 62.3471ZM29.3322 40.4112C29.3322 38.3974 30.9705 36.7591 32.9843 36.7591H34.9355V37.5316C34.9355 39.5454 33.2972 41.1836 31.2836 41.1836H29.3322V40.4112ZM27.1865 42.621H25.5877C24.362 42.621 23.3647 41.6238 23.3647 40.3981V39.7673H24.9636C26.1892 39.7673 27.1865 40.7644 27.1865 41.9902V42.621Z" fill="#2AB939"/>
<path d="M22.541 54.2288C22.541 55.8994 23.9001 57.2585 25.5706 57.2585C27.2412 57.2585 28.6003 55.8995 28.6003 54.2288C28.6003 52.5582 27.2412 51.1992 25.5706 51.1992C23.9001 51.1992 22.541 52.5582 22.541 54.2288ZM26.7045 54.2288C26.7045 54.8541 26.196 55.3627 25.5706 55.3627C24.9453 55.3627 24.4367 54.8541 24.4367 54.2288C24.4367 53.6036 24.9453 53.0949 25.5706 53.0949C26.196 53.0949 26.7045 53.6035 26.7045 54.2288Z" fill="#2AB939"/>
<path d="M31.8774 56.3108C31.8774 58.2958 33.4922 59.9107 35.4772 59.9107C37.4621 59.9107 39.077 58.2958 39.077 56.3108C39.077 54.3258 37.4621 52.7109 35.4772 52.7109C33.4922 52.7109 31.8774 54.3258 31.8774 56.3108ZM37.1814 56.3108C37.1814 57.2505 36.417 58.0149 35.4773 58.0149C34.5377 58.0149 33.7733 57.2505 33.7733 56.3108C33.7733 55.3712 34.5378 54.6067 35.4773 54.6067C36.417 54.6067 37.1814 55.3712 37.1814 56.3108Z" fill="#2AB939"/>
</g>
<defs>
<clipPath id="clip0_4066_10286">
<rect width="65" height="65" fill="white"/>
</clipPath>
</defs>
</svg>
