<svg width="65" height="65" viewBox="0 0 65 65" fill="none" xmlns="http://www.w3.org/2000/svg">
<g clip-path="url(#clip0_4066_10302)">
<path d="M30.5996 34.8968C30.5827 34.6446 30.4664 34.4096 30.2762 34.2432C30.0859 34.0769 29.8364 33.9928 29.5854 34.0098L23.2428 34.4346C21.3456 34.5616 19.6106 35.4136 18.3493 36.8335V33.8963H21.7413C25.706 33.8963 28.9316 30.6707 28.9316 26.706V25.054C28.9316 24.5278 28.505 24.1012 27.9788 24.1012H23.634C21.546 24.1012 19.664 24.9966 18.3493 26.4228V23.1256H21.0091C24.1548 23.1256 26.7139 20.5664 26.7139 17.4207V16.2057C26.7139 15.2904 25.9692 14.5457 25.0539 14.5457H22.1486C20.6902 14.5457 19.3587 15.0967 18.3493 16.0004V13.4983C20.4187 13.0586 21.9763 11.2174 21.9763 9.01879C21.9763 7.40439 20.2096 3.66313 18.7275 0.808976C18.4685 0.309845 17.9585 0 17.3966 0C16.8346 0 16.3247 0.309845 16.0655 0.808722C14.5834 3.66301 12.8166 7.40439 12.8166 9.01854C12.8166 11.2172 14.3743 13.0583 16.4437 13.498V16.0022C15.4341 15.0978 14.1033 14.5454 12.6444 14.5454H9.73903C8.82372 14.5454 8.07902 15.2901 8.07902 16.2054V17.4204C8.07902 20.5661 10.6382 23.1253 13.7839 23.1253H16.4437V26.4235C15.1292 24.9968 13.2473 24.101 11.1589 24.101H6.81411C6.28792 24.101 5.86133 24.5276 5.86133 25.0537V26.7057C5.86133 30.6705 9.08694 33.8961 13.0517 33.8961H16.4438V37.4498C15.0224 35.9806 12.9895 35.121 10.7956 35.268L4.45311 35.6928C3.92806 35.728 3.53094 36.1821 3.56613 36.7071L3.77676 39.852C4.03084 43.6453 7.19827 46.5624 10.9463 46.562C11.1068 46.562 11.2692 46.5567 11.4315 46.5457L16.9997 46.1729C18.1536 52.9412 21.0811 59.3417 25.5261 64.6583C25.7145 64.8836 25.9851 64.9999 26.2576 64.9999C26.4732 64.9999 26.6899 64.9271 26.8683 64.7781C27.272 64.4405 27.3256 63.8396 26.9881 63.436C22.8021 58.4294 20.0297 52.412 18.9099 46.045L24.117 45.6962C24.1671 45.6929 24.2165 45.6881 24.266 45.683L24.3125 45.6783C24.8364 45.629 25.2211 45.1645 25.1718 44.6406C25.1227 44.1167 24.6577 43.7321 24.1341 43.7813L24.0743 43.7871C24.046 43.7899 24.0178 43.793 23.9896 43.7949L18.6293 44.1539C18.6021 43.9332 18.4508 41.9618 18.4508 41.9618C18.3564 40.5534 18.8161 39.1925 19.7454 38.1299C20.6746 37.0672 21.962 36.4301 23.3704 36.3357L28.7624 35.9745L28.9093 38.1687C29.015 39.7455 28.4164 41.2738 27.2672 42.3619C26.8851 42.7237 26.8685 43.3267 27.2303 43.7089C27.5921 44.091 28.1952 44.1075 28.5773 43.7457C30.1404 42.2658 30.9543 40.1867 30.8106 38.0415L30.5996 34.8968ZM23.6342 26.0067H27.0262V26.7059C27.0262 29.6199 24.6554 31.9906 21.7414 31.9906H18.3494V31.2914C18.3494 28.3773 20.72 26.0067 23.6342 26.0067ZM22.1486 16.451H24.8084V17.4204C24.8084 19.5154 23.104 21.2198 21.0091 21.2198H18.3493V20.2503C18.3494 18.1553 20.0537 16.451 22.1486 16.451ZM14.7222 9.01854C14.7222 8.17501 15.7596 5.6124 17.3965 2.38818C19.0334 5.61215 20.0707 8.17488 20.0707 9.01854C20.0707 10.4932 18.8711 11.6928 17.3965 11.6928C15.922 11.6928 14.7222 10.4932 14.7222 9.01854ZM13.784 21.2198C11.6891 21.2198 9.98472 19.5154 9.98472 17.4204V16.451H12.6445C14.7395 16.451 16.4438 18.1553 16.4438 20.2503V21.2198H13.784ZM13.0517 31.9906C10.1377 31.9906 7.76689 29.6199 7.76689 26.7059V26.0067H11.1589C14.0729 26.0067 16.4437 28.3774 16.4437 31.2914V31.9906H13.0517ZM16.696 44.2835L11.3041 44.6445C8.39547 44.8381 5.87276 42.6322 5.67801 39.7247L5.53103 37.5305L10.9229 37.1695C13.678 36.985 16.0846 38.9551 16.4974 41.6338C16.532 42.3061 16.696 44.2835 16.696 44.2835Z" fill="#2AB939"/>
<path d="M60.5471 35.6929L55.5423 35.3577C55.0179 35.3231 54.5631 35.7197 54.528 36.2446C54.493 36.7695 54.89 37.2238 55.415 37.2589L59.4692 37.5304L59.3222 39.7246C59.1274 42.6321 56.6051 44.8387 53.6961 44.6444L48.3042 44.2833C48.3042 44.2833 48.4676 42.3137 48.5022 41.6454C48.784 39.8157 50.024 38.2312 51.7599 37.5347C52.2482 37.3388 52.4853 36.784 52.2892 36.2957C52.0932 35.8074 51.5383 35.5701 51.0502 35.7663C50.0947 36.1497 49.2499 36.7316 48.5565 37.4528V33.8962H51.9487C55.9134 33.8962 59.139 30.6706 59.139 26.7059V25.0539C59.139 24.5277 58.7124 24.1011 58.1862 24.1011H53.8411C51.753 24.1011 49.8709 24.9967 48.5564 26.423V23.1253H51.2162C54.3619 23.1253 56.921 20.5661 56.921 17.4204V16.2054C56.921 15.2901 56.1763 14.5454 55.261 14.5454H52.3557C50.8974 14.5454 49.5661 15.0964 48.5564 15.9999V13.498C50.6258 13.0583 52.1834 11.2172 52.1834 9.01854C52.1834 8.78593 52.1515 8.52067 52.086 8.20753C51.9781 7.69252 51.4732 7.36285 50.9581 7.47033C50.4431 7.57818 50.1131 8.08316 50.2209 8.59817C50.2706 8.83484 50.278 8.96315 50.278 9.01854C50.278 10.4932 49.0784 11.6928 47.6037 11.6928C46.1291 11.6928 44.9294 10.4932 44.9294 9.01854C44.9294 8.175 45.9668 5.61227 47.6036 2.38831C47.9808 3.13148 48.4345 4.05276 48.8644 4.99512C49.0829 5.47393 49.6484 5.68481 50.1268 5.46656C50.6056 5.24818 50.8166 4.68299 50.5982 4.20419C50.0028 2.899 49.365 1.63726 48.9347 0.808595C48.6754 0.309845 48.1655 0 47.6036 0C47.0417 0 46.5316 0.309845 46.2725 0.808722C44.7903 3.66301 43.0237 7.40427 43.0237 9.01854C43.0237 11.2172 44.5812 13.0583 46.6508 13.498V16.0019C45.6411 15.0978 44.3104 14.5454 42.8515 14.5454H39.9461C39.0308 14.5454 38.2861 15.2901 38.2861 16.2054V17.4204C38.2861 20.5661 40.8453 23.1253 43.991 23.1253H46.6508V26.4227C45.3361 24.9966 43.454 24.101 41.366 24.101H37.0212C36.495 24.101 36.0684 24.5276 36.0684 25.0537V26.7057C36.0684 30.6705 39.294 33.8961 43.2588 33.8961H46.6508V36.8332C45.3896 35.4133 43.6546 34.5615 41.7573 34.4343L35.4147 34.0095C35.1632 33.9931 34.9142 34.0766 34.7239 34.2429C34.5336 34.4093 34.4173 34.6443 34.4004 34.8965L34.1898 38.0412C34.0615 39.9576 34.687 41.8091 35.9513 43.255C37.2156 44.7008 38.9672 45.5677 40.8835 45.696L46.0903 46.0447C44.9705 52.4117 42.1981 58.429 38.0121 63.4358C37.6746 63.8395 37.7283 64.4404 38.1319 64.7778C38.3103 64.9268 38.527 64.9996 38.7426 64.9996C39.0151 64.9996 39.2855 64.8834 39.474 64.658C43.9191 59.3415 46.8466 52.9409 48.0004 46.1726L53.5686 46.5455C53.7314 46.5563 53.8932 46.5617 54.0539 46.5617C57.8015 46.5617 60.9692 43.6448 61.2234 39.8517L61.434 36.7069C61.4692 36.1821 61.0721 35.7281 60.5471 35.6929ZM53.8411 26.0067H57.2332V26.7059C57.2332 29.6199 54.8624 31.9906 51.9484 31.9906H48.5564V31.2914C48.5564 28.3773 50.9271 26.0067 53.8411 26.0067ZM52.3557 16.451H55.0155V17.4204C55.0155 19.5154 53.3111 21.2197 51.2162 21.2197H48.5564V20.2503C48.5564 18.1553 50.2607 16.451 52.3557 16.451ZM43.991 21.2197C41.896 21.2197 40.1917 19.5154 40.1917 17.4204V16.451H42.8515C44.9465 16.451 46.6508 18.1553 46.6508 20.2503V21.2197H43.991ZM43.2588 31.9906C40.3448 31.9906 37.974 29.6199 37.974 26.7059V26.0067H41.366C44.28 26.0067 46.6508 28.3774 46.6508 31.2914V31.9906H43.2588ZM41.011 43.795C39.6025 43.7007 38.3151 43.0635 37.3858 42.0008C36.4565 40.9382 35.9968 39.5773 36.0912 38.1687L36.238 35.9747L41.63 36.3358C43.0385 36.4301 44.3259 37.0673 45.255 38.13C46.1843 39.1927 46.6441 40.5535 46.5497 41.962C46.5497 41.962 46.3984 43.9335 46.3712 44.1541L41.011 43.795Z" fill="#2AB939"/>
</g>
<defs>
<clipPath id="clip0_4066_10302">
<rect width="65" height="65" fill="white"/>
</clipPath>
</defs>
</svg>
