<svg width="65" height="65" viewBox="0 0 65 65" fill="none" xmlns="http://www.w3.org/2000/svg">
<path d="M31.0902 29.6211H30.1121C29.5899 29.6211 29.1665 30.0445 29.1665 30.5667C29.1665 31.0889 29.5899 31.5123 30.1121 31.5123H31.0902C31.6124 31.5123 32.0358 31.0889 32.0358 30.5667C32.0358 30.0445 31.6124 29.6211 31.0902 29.6211Z" fill="#2AB939"/>
<path d="M52.0785 29.8599C52.6009 29.8599 53.0241 29.4366 53.0241 28.9143C53.0241 28.3921 52.6009 27.9688 52.0785 27.9688H51.1004C50.578 27.9688 50.1548 28.3921 50.1548 28.9143C50.1548 29.4366 50.578 29.8599 51.1004 29.8599H52.0785Z" fill="#2AB939"/>
<path d="M12.7957 27.9688C12.2735 27.9688 11.8501 28.3921 11.8501 28.9143C11.8501 29.4366 12.2735 29.8599 12.7957 29.8599H13.7738C14.296 29.8599 14.7194 29.4366 14.7194 28.9143C14.7194 28.3921 14.296 27.9688 13.7738 27.9688H12.7957Z" fill="#2AB939"/>
<path d="M64.4667 43.2348L62.3016 42.1848C61.3321 41.7147 60.3379 41.3231 59.3273 41.0064L61.8806 32.4886C62.6145 30.04 62.1602 27.4597 60.6342 25.4091C60.0595 24.6369 59.369 23.9889 58.5951 23.4808L60.9811 19.1187C61.6113 17.9666 61.5755 16.6118 60.8852 15.4946C60.3096 14.563 59.3832 13.9659 58.3297 13.8206C58.2891 12.9374 58.0044 12.0699 57.4852 11.3244C56.598 10.05 55.141 9.28906 53.5882 9.28906C52.0353 9.28906 50.5784 10.05 49.6911 11.3244C49.172 12.0701 48.8873 12.9377 48.8468 13.8209C47.7947 13.9664 46.8666 14.5632 46.2913 15.4946C45.6009 16.6118 45.5651 17.9665 46.1953 19.1187L48.5348 23.3957C47.8753 23.8069 47.2714 24.3135 46.7486 24.9102C46.4046 25.3031 46.444 25.9004 46.8369 26.2445C47.2296 26.5886 47.8271 26.5491 48.1712 26.1563C49.3475 24.8133 50.9791 24.0737 52.7654 24.0737H54.2105C56.1629 24.0737 57.9512 24.972 59.1168 26.5382C59.4501 26.986 59.714 27.4677 59.9113 27.9699H55.8276C55.3053 27.9699 54.882 28.3933 54.882 28.9155C54.882 29.4377 55.3053 29.8611 55.8276 29.8611H60.3222C60.3578 30.5528 60.2755 31.2559 60.0687 31.9456L59.6047 33.4936H57.326C56.8036 33.4936 56.3804 33.917 56.3804 34.4392C56.3804 34.9614 56.8036 35.3848 57.326 35.3848H59.0379L57.4983 40.5209C54.8379 39.9387 52.0987 39.8708 49.4176 40.3192L47.9653 35.4744H53.0075C53.5298 35.4744 53.9531 35.051 53.9531 34.5288C53.9531 34.0066 53.5298 33.5832 53.0075 33.5832H47.3983L46.9074 31.9456C46.6502 31.0875 46.5826 30.2088 46.7064 29.334C46.7796 28.8169 46.4199 28.3384 45.9028 28.2651C45.3865 28.1917 44.9072 28.5515 44.8339 29.0687C44.6713 30.2161 44.7593 31.3669 45.0956 32.4886L47.5617 40.7151C46.3191 41.0381 45.096 41.4728 43.9077 42.0236C41.9776 42.918 39.9758 43.574 37.9384 43.9935L40.8922 34.1399C41.6261 31.6914 41.1719 29.1109 39.6458 27.0604C39.071 26.2881 38.3806 25.6402 37.6067 25.1321L39.9926 20.77C40.6228 19.6179 40.587 18.2632 39.8968 17.1458C39.3213 16.2142 38.3951 15.6178 37.3412 15.4723C37.3007 14.5891 37.016 13.7214 36.497 12.9758C35.6096 11.7013 34.1526 10.9403 32.5997 10.9403C31.0468 10.9403 29.5899 11.7012 28.7027 12.9756C28.1835 13.7214 27.8988 14.5891 27.8584 15.4724C26.8047 15.618 25.8784 16.2142 25.3029 17.1458C24.6126 18.263 24.5768 19.6179 25.2069 20.77L27.5424 25.0398C26.7084 25.5612 25.9649 26.2393 25.3537 27.0605C23.8276 29.1111 23.3733 31.6914 24.1074 34.14L27.0593 43.9872C25.8731 43.7422 24.6958 43.4187 23.5348 43.0121C23.0417 42.8396 22.5025 43.0992 22.3298 43.5921C22.1572 44.085 22.4168 44.6244 22.9097 44.7971C26.0433 45.8945 29.2856 46.4402 32.5191 46.4401C36.6808 46.44 40.8273 45.5357 44.7027 43.7397C50.0544 41.2595 56.1682 41.3129 61.4761 43.8867L63.6413 44.9367C64.1116 45.1648 64.6769 44.9683 64.9046 44.4985C65.1328 44.0283 64.9366 43.4627 64.4667 43.2348ZM57.0062 18.4841L58.0401 15.6905C58.5493 15.7544 58.9989 16.0395 59.2764 16.4887C59.6045 17.0196 59.6215 17.6637 59.3219 18.2112L56.8988 22.6412C56.7886 22.6022 56.6778 22.5651 56.5657 22.531V20.9442C56.5657 20.1018 56.7138 19.2741 57.0062 18.4841ZM47.8546 18.2112C47.555 17.6637 47.5722 17.0196 47.9002 16.4887C48.1776 16.0397 48.6282 15.7551 49.1367 15.6908L50.1704 18.4842C50.4627 19.2741 50.611 20.1018 50.611 20.9442V22.4791C50.4894 22.5131 50.3685 22.549 50.249 22.5886L47.8546 18.2112ZM52.7657 22.1825C52.6775 22.1825 52.5899 22.1866 52.5021 22.1895V20.9441C52.5021 19.8769 52.3144 18.8284 51.944 17.8277L50.9085 15.0292C50.5793 14.1397 50.7012 13.1832 51.2431 12.4049C51.785 11.6266 52.6397 11.1801 53.5882 11.1801C54.5367 11.1801 55.3914 11.6266 55.9333 12.4049C56.4752 13.1832 56.5972 14.1397 56.268 15.0292L55.2324 17.8277C54.8621 18.8285 54.6744 19.877 54.6744 20.9441V22.1957C54.5207 22.1871 54.3661 22.1823 54.2107 22.1823H52.7657V22.1825ZM36.018 20.1353L37.0517 17.3415C37.5608 17.4052 38.0107 17.691 38.2879 18.14C38.6161 18.6709 38.633 19.3148 38.3334 19.8625L35.9103 24.2924C35.8001 24.2535 35.6892 24.2164 35.5771 24.1822V22.5955C35.5773 21.753 35.7256 20.9253 36.018 20.1353ZM30.255 14.0564C30.7969 13.2781 31.6517 12.8316 32.6001 12.8316C33.5485 12.8316 34.4033 13.2781 34.9452 14.0564C35.4871 14.8347 35.6091 15.7912 35.2798 16.6807L34.2443 19.4789C33.8739 20.4798 33.6861 21.5282 33.6861 22.5955V23.8471C33.5325 23.8385 33.3779 23.8337 33.2224 23.8337H31.7774C31.6892 23.8337 31.6017 23.8385 31.5139 23.8413V22.5955C31.5139 21.5285 31.3261 20.4799 30.9558 19.4791L29.9203 16.6807C29.5911 15.7911 29.7131 14.8347 30.255 14.0564ZM26.8664 19.8625C26.5668 19.3149 26.5838 18.6709 26.9119 18.14C27.1894 17.6908 27.6387 17.4058 28.1483 17.3419L29.1821 20.1354C29.4745 20.9256 29.6227 21.7533 29.6227 22.5955V24.1262C29.5003 24.16 29.3791 24.1968 29.2589 24.2363L26.8664 19.8625ZM29.1376 44.3333L26.9769 37.1258H32.0192C32.5416 37.1258 32.9648 36.7024 32.9648 36.1802C32.9648 35.658 32.5416 35.2346 32.0192 35.2346H26.4101L25.9191 33.5968C25.3586 31.7267 25.7056 29.7558 26.8712 28.1895C28.0368 26.6233 29.8251 25.7249 31.7774 25.7249H33.2224C35.1748 25.7249 36.9632 26.6233 38.1288 28.1895C38.4622 28.6374 38.7261 29.1191 38.9234 29.6213H34.8396C34.3173 29.6213 33.894 30.0447 33.894 30.5669C33.894 31.0891 34.3173 31.5125 34.8396 31.5125H39.3343C39.3698 32.2042 39.2875 32.9073 39.0807 33.5968L38.6166 35.1448H36.3379C35.8155 35.1448 35.3923 35.5682 35.3923 36.0904C35.3923 36.6127 35.8155 37.036 36.3379 37.036H38.0498L35.8608 44.3381C33.6322 44.6177 31.376 44.6166 29.1376 44.3333Z" fill="#2AB939"/>
<path d="M19.092 43.2316C19.5793 43.4192 20.1265 43.1759 20.3141 42.6886C20.5016 42.2012 20.2585 41.654 19.7711 41.4665C18.9669 41.1572 18.1478 40.9 17.3191 40.6916L19.778 32.4889C20.1101 31.3811 20.2005 30.2455 20.0467 29.1136C19.9763 28.5961 19.5003 28.2343 18.9824 28.3039C18.465 28.3742 18.1025 28.8507 18.1728 29.3681C18.29 30.2309 18.2205 31.0981 17.9665 31.9456L17.4755 33.5834H11.8663C11.3439 33.5834 10.9207 34.0067 10.9207 34.529C10.9207 35.0512 11.3439 35.4746 11.8663 35.4746H16.9086L15.4592 40.3096C12.7778 39.8831 10.0336 39.9666 7.38564 40.5548L5.83587 35.3848H7.5479C8.07013 35.3848 8.4935 34.9614 8.4935 34.4392C8.4935 33.917 8.07013 33.4936 7.5479 33.4936H5.26876L4.80466 31.9456C4.59802 31.2561 4.51556 30.5528 4.55124 29.8612H9.04586C9.56808 29.8612 9.99146 29.4379 9.99146 28.9156C9.99146 28.3934 9.56808 27.97 9.04586 27.97H4.96214C5.15945 27.4679 5.42346 26.9861 5.75669 26.5383C6.9223 24.972 8.71061 24.0737 10.663 24.0737H12.1081C13.9043 24.0737 15.542 24.8201 16.7193 26.1755C17.0618 26.5698 17.659 26.6119 18.0534 26.2693C18.4476 25.9269 18.4896 25.3297 18.1472 24.9353C17.6193 24.3276 17.0078 23.8123 16.3392 23.3955L18.6785 19.1187C19.3087 17.9666 19.2728 16.6118 18.5825 15.4946C18.0072 14.5632 17.0793 13.9675 16.027 13.8215C15.9865 12.9381 15.7019 12.0703 15.1827 11.3244C14.2953 10.05 12.8385 9.28906 11.2855 9.28906C9.73261 9.28906 8.27564 10.05 7.38841 11.3245C6.86922 12.0703 6.58453 12.9381 6.54406 13.8214C5.49129 13.9672 4.56398 14.5632 3.98855 15.4947C3.29826 16.6119 3.26246 17.9666 3.8926 19.1187L6.27866 23.4811C5.50478 23.9892 4.81424 24.6371 4.23957 25.4094C2.7135 27.46 2.25924 30.0404 2.99328 32.4889L5.55887 41.0477C4.58377 41.3565 3.6272 41.7347 2.69838 42.185L0.533209 43.235C0.0633099 43.463 -0.13287 44.0286 0.0949559 44.4985C0.258355 44.8355 0.595492 45.0316 0.946498 45.0316C1.08493 45.0316 1.22551 45.0011 1.3584 44.9367L3.52357 43.8867C8.37915 41.5323 14.0539 41.2936 19.092 43.2316ZM14.7034 18.4843L15.7372 15.6906C16.2469 15.7544 16.696 16.0396 16.9735 16.4888C17.3016 17.0198 17.3186 17.6638 17.019 18.2113L14.6248 22.5886C14.5051 22.549 14.3843 22.5126 14.2627 22.4786V20.9442C14.2628 20.1022 14.4111 19.2744 14.7034 18.4843ZM8.94045 12.4054C9.48235 11.627 10.337 11.1806 11.2855 11.1806C12.2339 11.1806 13.0886 11.6271 13.6305 12.4054C14.1724 13.1837 14.2944 14.1402 13.9654 15.0297L12.9299 17.8281C12.5594 18.8289 12.3717 19.8775 12.3717 20.9445V22.1899C12.284 22.187 12.1963 22.1829 12.1082 22.1829H10.663C10.5075 22.1829 10.3531 22.1875 10.1994 22.1962V20.9446C10.1994 19.8775 10.0116 18.8289 9.64121 17.8282L8.60571 15.0298C8.27665 14.1401 8.39856 13.1837 8.94045 12.4054ZM5.55181 18.2115C5.25224 17.6639 5.26927 17.02 5.59733 16.489C5.87483 16.0397 6.32417 15.7546 6.83379 15.6908L7.86752 18.4844C8.15977 19.2744 8.30804 20.1022 8.30804 20.9445V22.5312C8.19595 22.5654 8.085 22.6024 7.97481 22.6414L5.55181 18.2115Z" fill="#2AB939"/>
<path d="M53.753 49.324C50.3758 49.1951 46.9719 49.8778 43.9077 51.2979C36.6578 54.6575 28.3418 54.6576 21.092 51.2979C17.9465 49.8401 14.4509 49.1622 10.983 49.3371C10.4614 49.3633 10.06 49.8075 10.0862 50.3291C10.1125 50.8507 10.5586 51.2525 11.0783 51.2259C14.2406 51.0658 17.4286 51.6844 20.297 53.0137C24.1746 54.8107 28.3372 55.7092 32.5 55.7092C36.6628 55.7092 40.8254 54.8107 44.703 53.0137C47.4974 51.7187 50.6015 51.0963 53.681 51.2138C54.2027 51.2318 54.6421 50.8267 54.6619 50.3049C54.6817 49.783 54.2748 49.3439 53.753 49.324Z" fill="#2AB939"/>
</svg>
