<svg width="65" height="65" viewBox="0 0 65 65" fill="none" xmlns="http://www.w3.org/2000/svg">
<path d="M47.9546 16.5783C48.325 16.9485 48.9254 16.9485 49.2956 16.5783L57.783 8.09077C58.2966 7.57719 58.2966 6.74146 57.783 6.22789L55.1228 3.56772C54.6092 3.05427 53.7735 3.05427 53.2601 3.56772L37.0806 19.7474C35.7385 18.9339 34.1694 18.4647 32.5002 18.4647C30.831 18.4647 29.262 18.9339 27.9199 19.7474L26.0771 17.9046L28.3404 15.6412C28.586 15.3959 28.7211 15.0695 28.7211 14.7225C28.7211 14.3754 28.586 14.0492 28.3407 13.8041L25.372 10.8354C25.0017 10.4652 24.4012 10.4652 24.031 10.8354C23.6607 11.2059 23.6607 11.8062 24.031 12.1765L26.577 14.7225L24.7362 16.5634L12.1499 3.97736L13.9909 2.13636L21.1735 9.31895C21.5438 9.68915 22.1443 9.68915 22.5145 9.31895C22.8848 8.9485 22.8848 8.34819 22.5145 7.97786L14.9222 0.38575C14.6734 0.136928 14.3427 0 13.9908 0C13.6389 0 13.308 0.137055 13.0595 0.38575L10.3992 3.04592C10.1504 3.29474 10.0133 3.6255 10.0133 3.97736C10.0133 4.32923 10.1504 4.65998 10.3992 4.9088L26.398 20.9076C24.8281 22.397 23.7958 24.454 23.6449 26.7595L23.3845 30.7403L22.4725 29.8283C22.2272 29.5829 21.9009 29.4476 21.5539 29.4476C21.207 29.4476 20.8808 29.5828 20.6357 29.8281L7.21721 43.2465C6.70364 43.7601 6.70364 44.5958 7.21721 45.1094L9.87726 47.7693C10.1261 48.0183 10.4568 48.1553 10.8088 48.1553C11.1607 48.1553 11.4914 48.0184 11.7403 47.7696L23.0076 36.5023L22.7477 40.4736L20.3133 46.0957C20.2041 46.3477 20.1488 46.6147 20.1488 46.8896V51.786C20.1488 52.5443 20.5736 53.2051 21.1977 53.5433V56.7173C21.1977 57.2411 21.6222 57.6656 22.1459 57.6656C22.6696 57.6656 23.0942 57.2411 23.0942 56.7173V53.7833H41.906V63.1034H36.2102V62.0503C36.2102 59.9697 34.5175 58.277 32.4369 58.277C30.3563 58.277 28.6636 59.9697 28.6636 62.0503V63.1034H23.0942V60.7584C23.0942 60.2346 22.6696 59.8101 22.1459 59.8101C21.6222 59.8101 21.1977 60.2346 21.1977 60.7584V63.1034H20.2949C19.7712 63.1034 19.3467 63.5278 19.3467 64.0516C19.3467 64.5754 19.7712 64.9999 20.2949 64.9999H44.9637C45.4874 64.9999 45.912 64.5754 45.912 64.0516C45.912 63.5278 45.4874 63.1034 44.9637 63.1034H43.8024V53.5433C44.4265 53.2051 44.8513 52.5443 44.8513 51.786V46.8896C44.8513 46.6147 44.7959 46.3477 44.6868 46.096L44.2779 45.1516L50.0779 50.9515C50.3267 51.2004 50.6574 51.3373 51.0093 51.3373C51.3612 51.3373 51.692 51.2002 51.9406 50.9515L54.6009 48.2914C54.8497 48.0425 54.9868 47.7118 54.9868 47.3599C54.9868 47.0081 54.8497 46.6773 54.6009 46.4285L41.805 33.6325L41.3554 26.7595C41.2046 24.454 40.1722 22.3969 38.6023 20.9076L40.2644 19.2455L42.5278 21.509C42.7731 21.7544 43.0994 21.8897 43.4464 21.8897C43.7934 21.8897 44.1196 21.7545 44.3648 21.5092L46.4382 19.4358C46.8085 19.0654 46.8085 18.4651 46.4382 18.0947C46.0679 17.7245 45.4674 17.7245 45.0972 18.0947L43.4465 19.7456L41.6056 17.9046L54.1918 5.31845L56.0328 7.15945L47.9549 15.2373C47.5843 15.6075 47.5843 16.2078 47.9546 16.5783ZM30.5602 62.0503C30.5602 61.0154 31.4022 60.1735 32.437 60.1735C33.4719 60.1735 34.3138 61.0154 34.3138 62.0503V63.1034H30.5602V62.0503ZM32.5002 20.3612C33.6455 20.3612 34.7314 20.6409 35.6907 21.1371L34.2637 22.5641C33.7431 22.2671 33.1414 22.0965 32.5002 22.0965C31.8591 22.0965 31.2574 22.2671 30.7367 22.5641L29.3098 21.1371C30.2689 20.6409 31.355 20.3612 32.5002 20.3612ZM30.8245 25.6688C30.8245 24.7448 31.5761 23.9931 32.5001 23.9931C33.4241 23.9931 34.1757 24.7448 34.1757 25.6688C34.1757 26.5927 33.4241 27.3444 32.5001 27.3444C31.5761 27.3444 30.8245 26.5926 30.8245 25.6688ZM27.7378 22.2475L29.3956 23.9051C29.0986 24.4259 28.9281 25.0275 28.9281 25.6686C28.9281 26.3098 29.0988 26.9115 29.3956 27.4321L25.229 31.5988L25.5375 26.8832C25.6571 25.0529 26.4831 23.421 27.7378 22.2475ZM10.8088 46.0191L8.96782 44.1781L21.5539 31.592L23.2197 33.2577L23.1952 33.6326L10.8088 46.0191ZM42.9468 46.85C42.9523 46.8625 42.9551 46.8759 42.9551 46.8897V51.7861C42.9551 51.8416 42.9099 51.8869 42.8544 51.8869H22.146C22.0905 51.8869 22.0454 51.8418 22.0454 51.7861V46.8897C22.0454 46.8759 22.0482 46.8624 22.0536 46.8498L24.5535 41.0765C24.5967 40.9766 24.6224 40.8702 24.6296 40.7616L25.0413 34.4688L30.7367 28.7734C31.2574 29.0704 31.8591 29.2409 32.5002 29.2409C33.1414 29.2409 33.7431 29.0702 34.2637 28.7734L38.9233 33.433L36.6595 35.6966C36.1535 36.2029 36.1535 37.0268 36.6597 37.5332L40.6332 41.5068L42.9468 46.85ZM51.0095 49.2011L38.4234 36.6149L40.2644 34.7739L52.8505 47.3601L51.0095 49.2011ZM39.463 26.8833L39.7715 31.5989L35.6048 27.4323C35.9018 26.9115 36.0724 26.3099 36.0724 25.6688C36.0724 25.0276 35.9017 24.4259 35.6048 23.9053L37.2625 22.2476C38.5172 23.421 39.3432 25.0529 39.463 26.8833Z" fill="#2AB939"/>
</svg>
