<svg width="65" height="65" viewBox="0 0 65 65" fill="none" xmlns="http://www.w3.org/2000/svg">
<path d="M63.4465 1.51333C62.4708 0.537426 61.1733 0 59.7933 0C58.4133 0 57.116 0.537426 56.1401 1.5132L43.443 14.2103C42.6008 15.0526 42.5864 16.4117 43.3957 17.2744L35.3341 25.3362L27.6382 24.7528C24.1859 24.4908 20.8036 25.7449 18.356 28.1923L6.10447 40.444C5.73145 40.8171 5.73145 41.4218 6.10447 41.7948C6.29091 41.9812 6.53543 42.0745 6.77982 42.0745C7.0242 42.0745 7.26872 41.9812 7.45516 41.7948L19.7067 29.5431C21.76 27.4898 24.5991 26.4379 27.4938 26.6576L33.5532 27.1168L28.5843 32.0859C27.0041 33.666 25.8502 35.6385 25.247 37.7903C25.1023 38.3068 25.2479 38.8632 25.6272 39.2423C25.9095 39.5246 26.2899 39.6774 26.6791 39.6774C26.8127 39.6774 26.9473 39.6594 27.0794 39.6224C29.2311 39.0194 31.2035 37.8653 32.7837 36.2853L37.83 31.239L38.302 37.4657C38.5214 40.3612 37.4696 43.1995 35.4163 45.2529L34.0663 46.6032C33.6933 46.9762 33.6934 47.581 34.0663 47.9539C34.2528 48.1404 34.4972 48.2336 34.7416 48.2336C34.986 48.2336 35.2305 48.1404 35.4171 47.9538L36.7672 46.6035C39.2147 44.1559 40.4684 40.7728 40.2068 37.3213L39.6108 29.4581L41.7639 27.3049C42.137 26.9318 42.137 26.3271 41.7639 25.9541C41.3909 25.5812 40.7861 25.5812 40.4132 25.9541L31.433 34.9345C30.2746 36.0929 28.8694 36.9828 27.3324 37.5372C27.8868 36.0001 28.7767 34.5948 29.935 33.4367L44.744 18.6278L46.2419 20.1257L43.2915 23.0759C42.9185 23.4491 42.9185 24.0538 43.2915 24.4268C43.478 24.6132 43.7225 24.7064 43.9669 24.7064C44.2113 24.7064 44.4558 24.6132 44.6422 24.4268L47.5926 21.4764L47.6327 21.5165C48.049 21.9328 48.6024 22.1619 49.191 22.1619C49.7797 22.1619 50.3331 21.9327 50.7493 21.5165L63.4463 8.81952C64.4222 7.84362 64.9595 6.54615 64.9595 5.16617C64.9595 3.78618 64.4224 2.48897 63.4465 1.51333ZM56.6849 12.8796L52.0801 8.27483L54.7159 5.63902L59.3207 10.2438L56.6849 12.8796ZM52.6983 16.8663L48.0935 12.2615L50.7293 9.62565L55.3341 14.2305L52.6983 16.8663ZM49.3987 20.1658C49.3276 20.237 49.2466 20.2519 49.1911 20.2519C49.1357 20.2519 49.0547 20.237 48.9837 20.1658L44.7939 15.9762C44.6795 15.8618 44.6795 15.6755 44.7939 15.5612L46.7426 13.6124L51.3475 18.2172L49.3987 20.1658ZM62.0958 7.46869L60.6715 8.893L56.0667 4.2882L57.4909 2.86389C58.1059 2.24891 58.9236 1.91028 59.7933 1.91028C60.663 1.91028 61.4807 2.24891 62.0957 2.86402C62.7107 3.47888 63.0494 4.29661 63.0494 5.16629C63.0494 6.03598 62.7108 6.85371 62.0958 7.46869Z" fill="#2AB939"/>
<path d="M31.1832 49.486L18.724 61.9454C17.8678 62.8015 16.6879 63.2076 15.4862 63.0588L15.4652 63.0562L15.4531 62.9834C15.2462 61.743 15.6536 60.4715 16.5429 59.5824L27.1714 48.9539C27.7814 48.3439 28.1173 47.533 28.1173 46.6701C28.1173 45.8073 27.7814 44.9964 27.1714 44.3863C25.9121 43.1271 23.8631 43.1273 22.6039 44.3863L11.8598 55.1303C11.0254 55.9648 9.87771 56.3735 8.70607 56.2533C8.58674 55.0812 8.99477 53.9337 9.82906 53.0995L20.573 42.3557C21.8322 41.0965 21.8322 39.0475 20.573 37.7881C19.3136 36.529 17.2648 36.529 16.0055 37.7881L5.29991 48.4937C4.44958 49.344 3.2298 49.7587 2.03664 49.6041L2.00913 49.6005L1.99869 49.5357C1.80053 48.3031 2.20933 47.0401 3.09213 46.1574L4.57706 44.6726C4.95007 44.2996 4.95007 43.6948 4.57706 43.3219C4.20404 42.9488 3.59925 42.9489 3.22636 43.3218L1.74144 44.8066C0.426397 46.1216 -0.182473 48.0029 0.112729 49.8387L0.128903 49.9398C0.258675 50.7472 0.915557 51.3848 1.72692 51.4903L1.79072 51.4986C3.5669 51.7293 5.38383 51.1112 6.6506 49.8448L17.3562 39.1392C17.8706 38.6247 18.7075 38.6248 19.222 39.139C19.7365 39.6536 19.7365 40.4906 19.222 41.005L8.47811 51.7488C7.22165 53.0053 6.61418 54.7388 6.81158 56.5048C6.90875 57.3748 7.58435 58.0506 8.45442 58.1476C10.2203 58.3459 11.9537 57.7378 13.2104 56.4812L23.9543 45.7374C24.4688 45.2228 25.3058 45.223 25.8203 45.7374C26.0695 45.9865 26.2068 46.3179 26.2068 46.6703C26.2068 47.0227 26.0695 47.354 25.8203 47.6031L15.1919 58.2316C13.8674 59.5561 13.2604 61.4499 13.5685 63.2977L13.5867 63.4065C13.7213 64.2138 14.3824 64.8475 15.1944 64.9477L15.2517 64.9548C15.4946 64.9848 15.7368 64.9997 15.9772 64.9997C17.5095 64.9997 18.9723 64.3984 20.0744 63.2963L32.5336 50.8371C32.9067 50.464 32.9067 49.8593 32.5336 49.4863C32.161 49.1131 31.5562 49.1131 31.1832 49.486Z" fill="#2AB939"/>
</svg>
