<svg width="65" height="55" viewBox="0 0 65 55" fill="none" xmlns="http://www.w3.org/2000/svg">
<path d="M56.9597 30.4358C57.4851 30.4358 57.9109 30.0099 57.9109 29.4845V24.0114H62.5238C63.8892 24.0114 65 22.9005 65 21.5352V17.2544C65 15.8889 63.8891 14.7781 62.5238 14.7781H57.9109V12.7674C57.9109 12.242 57.4851 11.8161 56.9597 11.8161C56.4342 11.8161 56.0085 12.242 56.0085 12.7674V14.7781H49.8952V5.38252C49.8952 5.36971 49.9007 5.35753 49.9103 5.34891L52.9216 2.66035C52.9388 2.64513 52.9646 2.645 52.9818 2.66035L55.9934 5.34916C56.0029 5.35766 56.0083 5.36984 56.0083 5.38265V8.7136C56.0083 9.23894 56.4341 9.66483 56.9596 9.66483C57.485 9.66483 57.9108 9.23894 57.9108 8.7136V5.38252C57.9108 4.82827 57.6736 4.29875 57.2603 3.9298L54.2487 1.24111C53.5094 0.581341 52.3943 0.581087 51.6547 1.24111L48.6434 3.92967C48.2299 4.29875 47.9928 4.82827 47.9928 5.38252V14.778H44.27V5.38252C44.27 4.82827 44.0328 4.29875 43.6195 3.9298L40.6079 1.24111C39.8687 0.581341 38.7536 0.581087 38.014 1.24111L35.0026 3.92967C34.5892 4.29875 34.352 4.82827 34.352 5.38252V14.778H30.6291V5.38252C30.6291 4.8284 30.3921 4.29888 29.9787 3.9298L26.9671 1.24111C26.2278 0.581341 25.1127 0.581087 24.3732 1.24111L21.3618 3.92967C20.9484 4.29875 20.7112 4.82827 20.7112 5.38252V14.778H16.9883V5.38252C16.9883 4.8284 16.7513 4.29888 16.338 3.9298L13.3264 1.24111C12.5871 0.581214 11.472 0.58096 10.7324 1.24111L7.7212 3.92967C7.30773 4.29875 7.07056 4.82827 7.07056 5.38252V14.778H2.47624C1.11091 14.7779 0 15.8888 0 17.2543V21.535C0 22.9005 1.11091 24.0113 2.47624 24.0113H7.07056V37.2798H2.47624C1.11091 37.2798 0 38.3907 0 39.7562V44.037C0 45.4024 1.11091 46.5132 2.47624 46.5132H7.07056V52.1874C7.07056 53.3254 7.99643 54.2513 9.13448 54.2513H14.9244C16.0626 54.2513 16.9883 53.3254 16.9883 52.1874V46.5132H20.7112V52.1874C20.7112 53.3254 21.6372 54.2513 22.7753 54.2513H28.5651C29.7033 54.2513 30.629 53.3254 30.629 52.1874V46.5132H34.3519V52.1874C34.3519 53.3254 35.2778 54.2513 36.4159 54.2513H42.2057C43.3439 54.2513 44.2698 53.3254 44.2698 52.1874V46.5132H47.9928V52.1874C47.9928 53.3254 48.9187 54.2513 50.0568 54.2513H55.8466C56.9848 54.2513 57.9107 53.3254 57.9107 52.1874V46.5132H62.5235C63.889 46.5132 64.9997 45.4023 64.9997 44.037V39.7562C64.9997 38.3907 63.8888 37.2799 62.5235 37.2799H57.9109V33.5384C57.9109 33.0131 57.4851 32.5872 56.9597 32.5872C56.4342 32.5872 56.0085 33.0131 56.0085 33.5384V37.2799H49.8952V24.0114H56.0085V29.4845C56.0085 30.0099 56.4342 30.4358 56.9597 30.4358ZM36.2546 5.38252C36.2546 5.36971 36.26 5.35753 36.2697 5.34891L39.281 2.66035C39.2981 2.64513 39.324 2.645 39.3411 2.66035L42.3527 5.34916C42.3622 5.35766 42.3677 5.36984 42.3677 5.38265V14.7781H36.2546V5.38252ZM22.6138 5.38252C22.6138 5.36971 22.6192 5.35753 22.6289 5.34891L25.6402 2.66035C25.6574 2.64513 25.6832 2.645 25.7003 2.66035L28.7118 5.34891C28.7213 5.35741 28.7268 5.36971 28.7268 5.38252V14.778H22.6138V5.38252ZM8.97302 5.38252C8.97302 5.36971 8.97847 5.35753 8.98811 5.34891L11.9995 2.66035C12.0165 2.64513 12.0422 2.645 12.0594 2.66035L15.071 5.34891C15.0806 5.35741 15.086 5.36971 15.086 5.38252V14.778H8.97302V5.38252ZM1.90246 21.535V17.2543C1.90246 16.9378 2.1598 16.6805 2.47624 16.6805H62.5238C62.8402 16.6805 63.0975 16.9379 63.0975 17.2543V21.535C63.0975 21.8515 62.8402 22.1088 62.5238 22.1088H2.47624C2.1598 22.109 1.90246 21.8515 1.90246 21.535ZM36.2546 37.2798V24.0114H42.3677V37.2799H36.2546V37.2798ZM30.6292 37.2798V24.0114H34.3521V37.2799H30.6292V37.2798ZM22.6138 37.2798V24.0114H28.7268V37.2799H22.6138V37.2798ZM8.97302 24.0114H15.086V28.0145C15.086 28.5398 15.5118 28.9657 16.0372 28.9657C16.5627 28.9657 16.9885 28.5398 16.9885 28.0145V24.0114H20.7113V37.2799H16.9885V32.0682C16.9885 31.5429 16.5627 31.117 16.0372 31.117C15.5118 31.117 15.086 31.5429 15.086 32.0682V37.2799H8.97302V24.0114ZM15.086 52.1875C15.086 52.2765 15.0136 52.349 14.9246 52.349H9.13448C9.04544 52.349 8.97302 52.2765 8.97302 52.1875V46.5134H15.086V52.1875ZM28.7268 52.1875C28.7268 52.2765 28.6544 52.349 28.5653 52.349H22.7755C22.6863 52.349 22.6139 52.2765 22.6139 52.1875V46.5134H28.7269V52.1875H28.7268ZM42.3677 52.1875C42.3677 52.2765 42.2953 52.349 42.2061 52.349H36.4163C36.3271 52.349 36.2547 52.2765 36.2547 52.1875V46.5134H42.3678L42.3677 52.1875ZM56.0085 52.1875C56.0085 52.2765 55.936 52.349 55.8469 52.349H50.057C49.9679 52.349 49.8955 52.2765 49.8955 52.1875V46.5134H56.0085V52.1875ZM63.0975 39.7562V44.037C63.0975 44.3534 62.8402 44.6108 62.5238 44.6108H2.47624C2.1598 44.6108 1.90246 44.3533 1.90246 44.037V39.7562C1.90246 39.4397 2.1598 39.1824 2.47624 39.1824H62.5238C62.8402 39.1823 63.0975 39.4397 63.0975 39.7562ZM47.9928 37.2798H44.27V24.0114H47.9928V37.2798Z" fill="#2AB939"/>
<path d="M12.0294 20.3468C12.5548 20.3468 12.9806 19.9209 12.9806 19.3955V18.8536C12.9806 18.3282 12.5548 17.9023 12.0294 17.9023C11.5039 17.9023 11.0781 18.3282 11.0781 18.8536V19.3955C11.0781 19.9209 11.5039 20.3468 12.0294 20.3468Z" fill="#2AB939"/>
<path d="M12.0294 40.4023C11.5039 40.4023 11.0781 40.8282 11.0781 41.3536V41.8955C11.0781 42.4209 11.5039 42.8468 12.0294 42.8468C12.5548 42.8468 12.9806 42.4209 12.9806 41.8955V41.3536C12.9806 40.8282 12.5547 40.4023 12.0294 40.4023Z" fill="#2AB939"/>
<path d="M25.6705 20.3468C26.1959 20.3468 26.6217 19.9209 26.6217 19.3955V18.8536C26.6217 18.3282 26.1959 17.9023 25.6705 17.9023C25.145 17.9023 24.7192 18.3282 24.7192 18.8536V19.3955C24.7192 19.9209 25.1451 20.3468 25.6705 20.3468Z" fill="#2AB939"/>
<path d="M25.6705 40.4023C25.145 40.4023 24.7192 40.8282 24.7192 41.3536V41.8955C24.7192 42.4209 25.145 42.8468 25.6705 42.8468C26.1959 42.8468 26.6217 42.4209 26.6217 41.8955V41.3536C26.6217 40.8282 26.1959 40.4023 25.6705 40.4023Z" fill="#2AB939"/>
<path d="M39.3111 20.3468C39.8366 20.3468 40.2623 19.9209 40.2623 19.3955V18.8536C40.2623 18.3282 39.8366 17.9023 39.3111 17.9023C38.7856 17.9023 38.3599 18.3282 38.3599 18.8536V19.3955C38.3599 19.9209 38.7858 20.3468 39.3111 20.3468Z" fill="#2AB939"/>
<path d="M39.3111 40.4023C38.7856 40.4023 38.3599 40.8282 38.3599 41.3536V41.8955C38.3599 42.4209 38.7856 42.8468 39.3111 42.8468C39.8366 42.8468 40.2623 42.4209 40.2623 41.8955V41.3536C40.2623 40.8282 39.8366 40.4023 39.3111 40.4023Z" fill="#2AB939"/>
<path d="M52.9517 20.3468C53.4772 20.3468 53.9029 19.9209 53.9029 19.3955V18.8536C53.9029 18.3282 53.4772 17.9023 52.9517 17.9023C52.4263 17.9023 52.0005 18.3282 52.0005 18.8536V19.3955C52.0005 19.9209 52.4263 20.3468 52.9517 20.3468Z" fill="#2AB939"/>
<path d="M52.9517 40.4023C52.4263 40.4023 52.0005 40.8282 52.0005 41.3536V41.8955C52.0005 42.4209 52.4263 42.8468 52.9517 42.8468C53.4772 42.8468 53.9029 42.4209 53.9029 41.8955V41.3536C53.9029 40.8282 53.4772 40.4023 52.9517 40.4023Z" fill="#2AB939"/>
</svg>
