<svg width="65" height="65" viewBox="0 0 65 65" fill="none" xmlns="http://www.w3.org/2000/svg">
<path d="M37.1643 45.5421C35.6726 45.5459 34.1935 45.2691 32.8041 44.7261L33.4435 43.0905C34.6294 43.553 35.8915 43.7887 37.1643 43.7853C39.3379 43.7852 41.4565 43.1017 43.2203 41.8315C44.9842 40.5613 46.3041 38.7688 46.9934 36.7074L47.1453 36.2559L47.6056 36.1364C50.0541 35.5102 52.1894 34.011 53.61 31.9207C55.0306 29.8304 55.6385 27.2931 55.3194 24.7861C55.0003 22.279 53.7761 19.9749 51.8773 18.3071C49.9784 16.6393 47.5355 15.7228 45.0082 15.7299C44.9011 15.7299 44.7922 15.7387 44.6824 15.7466L43.6037 15.7985L43.4966 15.0035C43.104 12.0715 41.7414 9.35514 39.626 7.28728C37.5106 5.21941 34.764 3.91897 31.8237 3.59312C28.8835 3.26727 25.9188 3.93476 23.4019 5.48925C20.8851 7.04375 18.9608 9.39581 17.9357 12.1708L17.7768 12.5976L17.3376 12.7145C15.2885 13.2548 13.4545 14.4106 12.0828 16.0259C10.7112 17.6412 9.86797 19.6384 9.6669 21.7479C9.46584 23.8575 9.9166 25.9779 10.9584 27.8233C12.0002 29.6686 13.5829 31.1501 15.493 32.0678L15.8443 32.2382L15.9532 32.6168C16.5781 34.7774 17.8862 36.6774 19.6816 38.0322C21.4771 39.3869 23.6631 40.1234 25.9123 40.1313C26.7416 40.1282 27.5674 40.0247 28.3718 39.823L28.8926 39.6947L29.244 40.1014C29.4949 40.3985 29.7645 40.6793 30.0512 40.942L28.883 42.2543C28.6599 42.0558 28.4526 41.845 28.2681 41.6456C25.353 42.2311 22.3244 41.7217 19.7613 40.2146C17.1982 38.7076 15.2805 36.3087 14.3748 33.4767C12.2412 32.3645 10.487 30.6423 9.33588 28.5294C8.18475 26.4165 7.68882 24.0088 7.91128 21.613C8.13374 19.2172 9.06451 16.9419 10.585 15.0771C12.1054 13.2123 14.1467 11.8425 16.4487 11.1422C17.6633 8.13563 19.8193 5.60346 22.5937 3.92485C25.368 2.24624 28.6115 1.51152 31.8384 1.8307C35.0653 2.14988 38.102 3.50578 40.4937 5.69538C42.8855 7.88498 44.5036 10.7904 45.1057 13.9767C48.0101 13.995 50.8113 15.0556 52.9996 16.9653C55.1878 18.8751 56.6176 21.507 57.0288 24.3822C57.4399 27.2574 56.805 30.1846 55.2397 32.6311C53.6743 35.0775 51.2826 36.8807 48.4998 37.7122C47.6292 40.0142 46.0783 41.9965 44.0533 43.3952C42.0283 44.7939 39.6254 45.5428 37.1643 45.5421Z" fill="white"/>
<path d="M31.2959 63.2432C30.5785 63.2425 29.8907 62.9573 29.3833 62.4501C28.876 61.9429 28.5905 61.2552 28.5896 60.5378V36.855L22.3645 30.6299C22.1131 30.3788 21.9136 30.0806 21.7775 29.7523C21.6413 29.424 21.5713 29.0721 21.5713 28.7168C21.5713 28.3614 21.6413 28.0095 21.7775 27.6813C21.9136 27.353 22.1131 27.0548 22.3645 26.8037C22.8797 26.3117 23.5648 26.0371 24.2772 26.0371C24.9896 26.0371 25.6746 26.3117 26.1898 26.8037L28.5896 29.2034V23.306C28.6024 22.5968 28.8931 21.9209 29.3991 21.4239C29.9052 20.9269 30.5861 20.6484 31.2954 20.6484C32.0047 20.6484 32.6857 20.9269 33.1917 21.4239C33.6978 21.9209 33.9885 22.5968 34.0013 23.306V32.8583L39.4235 27.4361C39.6747 27.1849 39.973 26.9856 40.3012 26.8496C40.6295 26.7136 40.9813 26.6437 41.3366 26.6437C41.6919 26.6437 42.0437 26.7136 42.372 26.8496C42.7002 26.9856 42.9985 27.1849 43.2497 27.4361C43.5009 27.6873 43.7002 27.9856 43.8362 28.3138C43.9722 28.6421 44.0421 28.9939 44.0421 29.3492C44.0421 29.7045 43.9722 30.0563 43.8362 30.3846C43.7002 30.7128 43.5009 31.0111 43.2497 31.2623L34.0013 40.5099V60.5369C34.0006 61.2543 33.7153 61.9421 33.2082 62.4495C32.701 62.9568 32.0132 63.2423 31.2959 63.2432ZM24.2776 27.7681C24.0899 27.768 23.9064 27.8236 23.7503 27.9278C23.5942 28.0321 23.4725 28.1803 23.4006 28.3537C23.3288 28.5271 23.31 28.7179 23.3467 28.902C23.3833 29.0861 23.4738 29.2552 23.6065 29.3879L30.089 35.8703C30.2537 36.035 30.3463 36.2584 30.3463 36.4913V60.5378C30.3538 60.7845 30.4571 61.0186 30.6343 61.1905C30.8115 61.3623 31.0486 61.4584 31.2954 61.4584C31.5423 61.4584 31.7794 61.3623 31.9565 61.1905C32.1337 61.0186 32.237 60.7845 32.2445 60.5378V40.1462C32.2446 39.9142 32.3365 39.6915 32.5001 39.527L42.0077 30.0203C42.102 29.9338 42.1778 29.8292 42.2306 29.7127C42.2834 29.5961 42.3121 29.4701 42.315 29.3422C42.3179 29.2143 42.2948 29.0872 42.2473 28.9684C42.1997 28.8496 42.1286 28.7417 42.0383 28.6511C41.9479 28.5606 41.8402 28.4892 41.7215 28.4413C41.6029 28.3934 41.4758 28.3701 41.3479 28.3726C41.22 28.3751 41.0939 28.4035 40.9772 28.456C40.8606 28.5085 40.7557 28.5841 40.669 28.6781L33.7474 35.5997C33.6246 35.7226 33.4681 35.8062 33.2977 35.8401C33.1273 35.8739 32.9508 35.8565 32.7903 35.7901C32.6298 35.7236 32.4926 35.6111 32.3961 35.4666C32.2996 35.3222 32.2481 35.1524 32.248 34.9787V23.306C32.2405 23.0593 32.1372 22.8252 31.9601 22.6533C31.7829 22.4814 31.5458 22.3853 31.2989 22.3853C31.0521 22.3853 30.815 22.4814 30.6378 22.6533C30.4606 22.8252 30.3574 23.0593 30.3498 23.306V31.3238C30.3498 31.4975 30.2983 31.6673 30.2018 31.8117C30.1052 31.9561 29.9681 32.0687 29.8076 32.1351C29.6471 32.2016 29.4705 32.219 29.3002 32.1851C29.1298 32.1512 28.9733 32.0676 28.8505 31.9448L24.9461 28.0457C24.8585 27.9576 24.7543 27.8878 24.6396 27.8401C24.5249 27.7925 24.4018 27.768 24.2776 27.7681Z" fill="white"/>
</svg>
