<svg width="65" height="65" viewBox="0 0 65 65" fill="none" xmlns="http://www.w3.org/2000/svg">
<path d="M50.5341 40.2536H47.0004C46.3248 40.2536 45.6769 39.9852 45.1992 39.5075C44.7215 39.0298 44.4531 38.3819 44.4531 37.7063V4.30072C44.4543 3.62589 44.7232 2.97911 45.2008 2.50235C45.6783 2.02558 46.3256 1.75781 47.0004 1.75781H50.5341C50.7671 1.75781 50.9905 1.85036 51.1552 2.01508C51.32 2.17981 51.4125 2.40323 51.4125 2.63619V39.3752C51.4125 39.4906 51.3898 39.6048 51.3457 39.7114C51.3015 39.818 51.2368 39.9148 51.1552 39.9964C51.0737 40.0779 50.9768 40.1426 50.8703 40.1868C50.7637 40.2309 50.6495 40.2536 50.5341 40.2536ZM47.0004 3.51457C46.7915 3.51457 46.5911 3.59725 46.443 3.74456C46.2948 3.89186 46.211 4.09182 46.2099 4.30072V37.7107C46.2099 37.9204 46.2932 38.1215 46.4414 38.2697C46.5897 38.418 46.7908 38.5013 47.0004 38.5013H49.6558V3.51457H47.0004Z" fill="#2AB939"/>
<path d="M18 40.2536H14.4663C14.2333 40.2536 14.0099 40.1611 13.8452 39.9964C13.6804 39.8316 13.5879 39.6082 13.5879 39.3752V2.63619C13.5879 2.40323 13.6804 2.17981 13.8452 2.01508C14.0099 1.85036 14.2333 1.75781 14.4663 1.75781H18C18.674 1.75897 19.3202 2.02726 19.7968 2.50389C20.2734 2.98053 20.5417 3.62665 20.5429 4.30072V37.7107C20.5417 38.3848 20.2734 39.0309 19.7968 39.5075C19.3202 39.9842 18.674 40.2525 18 40.2536ZM15.3446 38.4969H18C18.2089 38.4957 18.4088 38.4119 18.5561 38.2638C18.7035 38.1156 18.7861 37.9152 18.7861 37.7063V4.30072C18.785 4.09257 18.7018 3.89328 18.5546 3.7461C18.4074 3.59892 18.2081 3.51572 18 3.51457H15.3446V38.4969Z" fill="#2AB939"/>
<path d="M42.1266 38.1708C41.0428 38.1697 40.0038 37.7386 39.2376 36.9722C38.4713 36.2057 38.0404 35.1666 38.0395 34.0829V7.92914C38.0316 7.38732 38.1314 6.84932 38.3333 6.34644C38.5351 5.84355 38.8349 5.38582 39.2153 4.99985C39.5956 4.61389 40.0489 4.30739 40.5488 4.09819C41.0487 3.88898 41.5852 3.78125 42.127 3.78125C42.6689 3.78125 43.2054 3.88898 43.7053 4.09819C44.2051 4.30739 44.6584 4.61389 45.0388 4.99985C45.4191 5.38582 45.7189 5.84355 45.9208 6.34644C46.1227 6.84932 46.2225 7.38732 46.2146 7.92914V34.0829C46.2134 35.1667 45.7823 36.2058 45.0159 36.9722C44.2496 37.7386 43.2104 38.1697 42.1266 38.1708ZM42.1266 5.59793C41.5087 5.59886 40.9164 5.84479 40.4795 6.28181C40.0427 6.71882 39.797 7.31123 39.7963 7.92914V34.0829C39.8081 34.6932 40.0589 35.2745 40.4947 35.702C40.9305 36.1294 41.5166 36.3688 42.127 36.3688C42.7375 36.3688 43.3236 36.1294 43.7594 35.702C44.1952 35.2745 44.446 34.6932 44.4578 34.0829V7.92914C44.4569 7.31115 44.211 6.71874 43.774 6.28175C43.337 5.84477 42.7446 5.59886 42.1266 5.59793Z" fill="#2AB939"/>
<path d="M35.7086 38.1708C34.6249 38.1697 33.5858 37.7386 32.8196 36.9722C32.0533 36.2057 31.6225 35.1666 31.6215 34.0829V7.92914C31.6136 7.38732 31.7134 6.84932 31.9153 6.34644C32.1172 5.84355 32.417 5.38582 32.7973 4.99985C33.1777 4.61389 33.631 4.30739 34.1308 4.09819C34.6307 3.88898 35.1672 3.78125 35.7091 3.78125C36.2509 3.78125 36.7874 3.88898 37.2873 4.09819C37.7872 4.30739 38.2405 4.61389 38.6208 4.99985C39.0012 5.38582 39.301 5.84355 39.5028 6.34644C39.7047 6.84932 39.8045 7.38732 39.7966 7.92914V34.0829C39.7954 35.1667 39.3644 36.2058 38.598 36.9722C37.8316 37.7386 36.7925 38.1697 35.7086 38.1708ZM35.7086 5.59793C35.0907 5.59886 34.4984 5.84479 34.0615 6.28181C33.6247 6.71882 33.379 7.31123 33.3783 7.92914V34.0829C33.3901 34.6932 33.6409 35.2745 34.0767 35.702C34.5125 36.1294 35.0986 36.3688 35.7091 36.3688C36.3195 36.3688 36.9056 36.1294 37.3414 35.702C37.7772 35.2745 38.028 34.6932 38.0398 34.0829V7.92914C38.0389 7.31115 37.793 6.71874 37.356 6.28175C36.919 5.84477 36.3266 5.59886 35.7086 5.59793Z" fill="#2AB939"/>
<path d="M29.2915 38.1708C28.2077 38.1697 27.1686 37.7386 26.4022 36.9722C25.6358 36.2058 25.2047 35.1667 25.2036 34.0829V7.92914C25.1956 7.38732 25.2955 6.84932 25.4973 6.34644C25.6992 5.84355 25.999 5.38582 26.3794 4.99985C26.7597 4.61389 27.213 4.30739 27.7129 4.09819C28.2127 3.88898 28.7492 3.78125 29.2911 3.78125C29.833 3.78125 30.3695 3.88898 30.8693 4.09819C31.3692 4.30739 31.8225 4.61389 32.2028 4.99985C32.5832 5.38582 32.883 5.84355 33.0849 6.34644C33.2867 6.84932 33.3866 7.38732 33.3786 7.92914V34.0829C33.3777 35.1666 32.9468 36.2057 32.1806 36.9722C31.4143 37.7386 30.3753 38.1697 29.2915 38.1708ZM29.2915 5.59793C28.6735 5.59886 28.0811 5.84477 27.6441 6.28175C27.2072 6.71874 26.9613 7.31115 26.9603 7.92914V34.0829C26.9722 34.6932 27.2229 35.2745 27.6588 35.702C28.0946 36.1294 28.6807 36.3688 29.2911 36.3688C29.9015 36.3688 30.4876 36.1294 30.9234 35.702C31.3593 35.2745 31.61 34.6932 31.6219 34.0829V7.92914C31.6212 7.31123 31.3755 6.71882 30.9386 6.28181C30.5018 5.84479 29.9094 5.59886 29.2915 5.59793Z" fill="#2AB939"/>
<path d="M22.8726 38.1708C21.7888 38.1697 20.7496 37.7386 19.9832 36.9722C19.2169 36.2058 18.7858 35.1667 18.7846 34.0829V7.92914C18.7767 7.38732 18.8765 6.84932 19.0784 6.34644C19.2802 5.84355 19.5801 5.38582 19.9604 4.99985C20.3408 4.61389 20.7941 4.30739 21.2939 4.09819C21.7938 3.88898 22.3303 3.78125 22.8722 3.78125C23.414 3.78125 23.9505 3.88898 24.4504 4.09819C24.9503 4.30739 25.4035 4.61389 25.7839 4.99985C26.1642 5.38582 26.4641 5.84355 26.6659 6.34644C26.8678 6.84932 26.9676 7.38732 26.9597 7.92914V34.0829C26.9588 35.1666 26.5279 36.2057 25.7616 36.9722C24.9954 37.7386 23.9564 38.1697 22.8726 38.1708ZM22.8726 5.59793C22.2546 5.59886 21.6622 5.84477 21.2252 6.28175C20.7882 6.71874 20.5423 7.31115 20.5414 7.92914V34.0829C20.5532 34.6932 20.804 35.2745 21.2398 35.702C21.6756 36.1294 22.2617 36.3688 22.8722 36.3688C23.4826 36.3688 24.0687 36.1294 24.5045 35.702C24.9403 35.2745 25.1911 34.6932 25.2029 34.0829V7.92914C25.2024 7.31123 24.9565 6.71882 24.5197 6.28181C24.0828 5.84479 23.4905 5.59886 22.8726 5.59793Z" fill="#2AB939"/>
<path d="M45.5768 61.3776H38.1861C37.9531 61.3776 37.7297 61.2851 37.565 61.1204C37.4003 60.9557 37.3077 60.7322 37.3077 60.4993V54.9154C37.3077 54.6825 37.4003 54.459 37.565 54.2943C37.7297 54.1296 37.9531 54.037 38.1861 54.037H42.8924V49.4089H29.065C27.2873 49.4068 25.583 48.6996 24.3261 47.4425C23.0692 46.1854 22.3622 44.481 22.3604 42.7033V37.2495C22.3604 37.0165 22.4529 36.7931 22.6176 36.6284C22.7824 36.4636 23.0058 36.3711 23.2387 36.3711C23.4717 36.3711 23.6951 36.4636 23.8598 36.6284C24.0246 36.7931 24.1171 37.0165 24.1171 37.2495V42.7033C24.1183 44.0153 24.6399 45.2732 25.5675 46.201C26.4952 47.1288 27.753 47.6507 29.065 47.6521H43.2166C43.5961 47.6569 43.9587 47.8097 44.2271 48.078C44.4956 48.3463 44.6486 48.7088 44.6536 49.0883V54.3585C44.6481 54.7378 44.4949 55.1 44.2266 55.368C43.9582 55.636 43.5958 55.7888 43.2166 55.7938H39.0645V59.6209H45.5768C46.4 59.62 47.1892 59.2925 47.7714 58.7104C48.3535 58.1283 48.6809 57.3391 48.6818 56.5158V47.6547C48.6807 46.6341 48.2747 45.6556 47.5529 44.934C46.8311 44.2124 45.8525 43.8066 44.8319 43.8057H30.2166C29.6678 43.8048 29.1417 43.5863 28.7536 43.1983C28.3656 42.8102 28.1472 42.2842 28.1462 41.7354V37.2679C28.1462 37.035 28.2388 36.8115 28.4035 36.6468C28.5682 36.4821 28.7916 36.3895 29.0246 36.3895C29.2576 36.3895 29.481 36.4821 29.6457 36.6468C29.8104 36.8115 29.903 37.035 29.903 37.2679V41.7354C29.9052 41.8178 29.939 41.8963 29.9973 41.9546C30.0556 42.013 30.1341 42.0467 30.2166 42.0489H44.8319C46.3182 42.0506 47.7432 42.6417 48.7943 43.6926C49.8454 44.7435 50.4367 46.1684 50.4386 47.6547V56.5158C50.4372 57.8048 49.9245 59.0406 49.0131 59.9521C48.1016 60.8636 46.8658 61.3763 45.5768 61.3776Z" fill="#2AB939"/>
<path d="M37.8387 63.2413H35.135C34.8096 63.2413 34.4975 63.1124 34.267 62.8827C34.0365 62.653 33.9064 62.3414 33.9053 62.016V53.3157C33.9053 52.9895 34.0348 52.6767 34.2655 52.4461C34.4961 52.2155 34.8089 52.0859 35.135 52.0859H37.8387C38.164 52.0871 38.4757 52.2172 38.7054 52.4477C38.935 52.6782 39.064 52.9903 39.064 53.3157V62.0169C39.0626 62.3414 38.933 62.6521 38.7035 62.8815C38.474 63.1108 38.1631 63.2402 37.8387 63.2413ZM35.662 61.4846H37.3028V53.8427H35.662V61.4846Z" fill="#2AB939"/>
<path d="M34.7836 61.7211C34.7505 61.7211 34.7173 61.7193 34.6844 61.7158L25.0477 60.6152C24.8332 60.5908 24.6353 60.4883 24.4916 60.3273C24.3478 60.1662 24.2685 59.9579 24.2686 59.7421V55.5926C24.2685 55.3768 24.3478 55.1685 24.4916 55.0074C24.6353 54.8464 24.8332 54.7439 25.0477 54.7195L34.6888 53.6189C34.8117 53.6049 34.9363 53.6171 35.0542 53.6546C35.1721 53.6921 35.2808 53.7541 35.3731 53.8365C35.4654 53.919 35.5393 54.02 35.5898 54.1329C35.6403 54.2459 35.6664 54.3683 35.6664 54.492V60.8427C35.6664 61.0757 35.5738 61.2991 35.4091 61.4638C35.2444 61.6285 35.021 61.7211 34.788 61.7211H34.7836ZM26.0209 58.9586L33.9052 59.858V55.4767L26.0209 56.377V58.9586Z" fill="#2AB939"/>
<path d="M25.1474 61.6376H22.2338C22.0009 61.6376 21.7775 61.5451 21.6127 61.3803C21.448 61.2156 21.3555 60.9922 21.3555 60.7592V54.5737C21.3555 54.3407 21.448 54.1173 21.6127 53.9526C21.7775 53.7879 22.0009 53.6953 22.2338 53.6953H25.1474C25.3804 53.6953 25.6038 53.7879 25.7685 53.9526C25.9333 54.1173 26.0258 54.3407 26.0258 54.5737V60.7592C26.0258 60.9922 25.9333 61.2156 25.7685 61.3803C25.6038 61.5451 25.3804 61.6376 25.1474 61.6376ZM23.1122 59.8808H24.269V55.4521H23.1122V59.8808Z" fill="#2AB939"/>
</svg>
