<svg width="40" height="40" viewBox="0 0 40 40" fill="none" xmlns="http://www.w3.org/2000/svg">
<path d="M9.95828 15.0132C9.29436 15.0151 8.63667 14.8852 8.02328 14.6312C7.40989 14.3771 6.85297 14.0039 6.38477 13.5332C4.57666 11.7246 2.1772 3.51105 1.90963 2.58024C1.88302 2.48748 1.88173 2.38929 1.90588 2.29586C1.93003 2.20244 1.97876 2.11718 2.04699 2.04895C2.11523 1.98071 2.20048 1.93199 2.29391 1.90783C2.38734 1.88368 2.48553 1.88497 2.57828 1.91159C3.50909 2.18186 11.7226 4.57861 13.5313 6.38726C14.2379 7.09393 14.7192 7.99428 14.9141 8.97446C15.1091 9.95464 15.009 10.9706 14.6266 11.8939C14.2441 12.8172 13.5965 13.6064 12.7655 14.1616C11.9346 14.7168 10.9577 15.0132 9.95828 15.0132ZM3.23071 3.23267C4.11396 6.13969 5.93342 11.557 7.14963 12.7689C7.89453 13.5138 8.90483 13.9323 9.95828 13.9323C10.4799 13.9323 10.9964 13.8295 11.4783 13.6299C11.9602 13.4303 12.3981 13.1377 12.7669 12.7689C13.1358 12.4 13.4283 11.9622 13.628 11.4803C13.8276 10.9984 13.9303 10.4818 13.9303 9.96024C13.9303 9.43862 13.8276 8.92211 13.628 8.44021C13.4283 7.9583 13.1358 7.52042 12.7669 7.15159C11.5529 5.93753 6.13774 4.11645 3.23071 3.23267Z" fill="#1F4E3D"/>
<path d="M18.6506 17.321C17.3111 17.3195 16.0268 16.7867 15.0796 15.8395C14.1323 14.8924 13.5994 13.6082 13.5977 12.2686C13.5977 9.71077 17.709 2.20645 18.1777 1.35942C18.2286 1.28032 18.2987 1.21526 18.3813 1.17021C18.4639 1.12517 18.5565 1.10156 18.6506 1.10156C18.7447 1.10156 18.8373 1.12517 18.92 1.17021C19.0026 1.21526 19.0726 1.28032 19.1236 1.35942C19.5923 2.20645 23.7041 9.71077 23.7041 12.2686C23.7023 13.6082 23.1692 14.8924 22.2219 15.8395C21.2745 16.7867 19.9902 17.3195 18.6506 17.321ZM18.6506 2.75347C17.2198 5.43401 14.6787 10.5508 14.6787 12.267C14.6787 13.3207 15.0973 14.3312 15.8424 15.0763C16.5875 15.8214 17.598 16.24 18.6517 16.24C19.7054 16.24 20.716 15.8214 21.461 15.0763C22.2061 14.3312 22.6247 13.3207 22.6247 12.267C22.6231 10.5508 20.0814 5.43401 18.6506 2.7551V2.75347Z" fill="#1F4E3D"/>
<path d="M12.2701 23.7041C9.71224 23.7041 2.20791 19.5923 1.36088 19.1236C1.2764 19.0769 1.20597 19.0083 1.15693 18.9252C1.1079 18.842 1.08203 18.7472 1.08203 18.6506C1.08203 18.5541 1.1079 18.4593 1.15693 18.3761C1.20597 18.2929 1.2764 18.2244 1.36088 18.1777C2.20791 17.709 9.71224 13.5977 12.2701 13.5977C12.9338 13.5977 13.591 13.7284 14.2042 13.9824C14.8174 14.2364 15.3745 14.6086 15.8438 15.078C16.3131 15.5473 16.6854 16.1044 16.9394 16.7176C17.1934 17.3308 17.3241 17.988 17.3241 18.6517C17.3241 19.3154 17.1934 19.9726 16.9394 20.5858C16.6854 21.199 16.3131 21.7562 15.8438 22.2255C15.3745 22.6948 14.8174 23.0671 14.2042 23.321C13.591 23.575 12.9338 23.7058 12.2701 23.7058V23.7041ZM2.75656 18.6506C5.4371 20.0814 10.5533 22.6231 12.2701 22.6231C12.7918 22.6231 13.3084 22.5203 13.7905 22.3206C14.2725 22.121 14.7105 21.8283 15.0794 21.4594C15.4483 21.0905 15.741 20.6525 15.9406 20.1705C16.1403 19.6885 16.243 19.1718 16.243 18.6501C16.243 18.1284 16.1403 17.6117 15.9406 17.1297C15.741 16.6477 15.4483 16.2097 15.0794 15.8408C14.7105 15.4718 14.2725 15.1792 13.7905 14.9795C13.3084 14.7799 12.7918 14.6771 12.2701 14.6771C10.5517 14.6787 5.43548 17.2198 2.75656 18.6506Z" fill="#1F4E3D"/>
<path d="M25.5754 24.2479C24.2357 24.2465 22.9513 23.7136 22.004 22.7663C21.0567 21.819 20.5239 20.5346 20.5225 19.1949C20.5225 16.6366 24.6338 9.13277 25.1025 8.2852C25.1534 8.2061 25.2235 8.14104 25.3061 8.096C25.3887 8.05095 25.4813 8.02734 25.5754 8.02734C25.6695 8.02734 25.7622 8.05095 25.8448 8.096C25.9274 8.14104 25.9974 8.2061 26.0484 8.2852C26.5176 9.13277 30.6289 16.6366 30.6289 19.1949C30.6275 20.5347 30.0946 21.8192 29.1472 22.7665C28.1998 23.7139 26.9152 24.2466 25.5754 24.2479ZM25.5754 9.68034C24.1446 12.3609 21.6035 17.4776 21.6035 19.1938C21.6035 20.2475 22.0221 21.2581 22.7672 22.0032C23.5123 22.7482 24.5228 23.1668 25.5765 23.1668C26.6302 23.1668 27.6408 22.7482 28.3858 22.0032C29.1309 21.2581 29.5495 20.2475 29.5495 19.1938C29.5479 17.4776 27.0068 12.3609 25.5754 9.68034Z" fill="#1F4E3D"/>
<path d="M19.1944 30.6299C16.6361 30.6299 9.13228 26.5186 8.28471 26.0494C8.20023 26.0026 8.1298 25.9341 8.08076 25.8509C8.03172 25.7678 8.00586 25.673 8.00586 25.5764C8.00586 25.4799 8.03172 25.3851 8.08076 25.3019C8.1298 25.2187 8.20023 25.1502 8.28471 25.1034C9.13228 24.6348 16.6361 20.5234 19.1944 20.5234C20.5349 20.5234 21.8204 21.0559 22.7682 22.0037C23.716 22.9516 24.2485 24.2371 24.2485 25.5775C24.2485 26.9179 23.716 28.2034 22.7682 29.1512C21.8204 30.0991 20.5349 30.6315 19.1944 30.6315V30.6299ZM9.68093 25.5764C12.3615 27.0072 17.4782 29.5488 19.1944 29.5488C20.2481 29.5488 21.2587 29.1303 22.0038 28.3852C22.7488 27.6401 23.1674 26.6296 23.1674 25.5759C23.1674 24.5222 22.7488 23.5116 22.0038 22.7666C21.2587 22.0215 20.2481 21.6029 19.1944 21.6029C17.4771 21.6045 12.3604 24.1456 9.67985 25.5764H9.68093Z" fill="#1F4E3D"/>
<path d="M32.5047 31.1737C31.1649 31.1723 29.8805 30.6394 28.9331 29.6922C27.9857 28.7449 27.4527 27.4605 27.4512 26.1207C27.4512 23.5629 31.5631 16.0585 32.0317 15.211C32.0827 15.1319 32.1527 15.0668 32.2353 15.0218C32.318 14.9767 32.4106 14.9531 32.5047 14.9531C32.5988 14.9531 32.6914 14.9767 32.774 15.0218C32.8567 15.0668 32.9267 15.1319 32.9777 15.211C33.4463 16.0585 37.5577 23.5629 37.5577 26.1207C37.5562 27.4604 37.0234 28.7448 36.0761 29.6921C35.1288 30.6394 33.8444 31.1723 32.5047 31.1737ZM32.5047 16.6061C31.0733 19.2867 28.5323 24.4034 28.5323 26.1196C28.5323 27.1733 28.9508 28.1839 29.6959 28.9289C30.441 29.674 31.4515 30.0926 32.5052 30.0926C33.5589 30.0926 34.5695 29.674 35.3145 28.9289C36.0596 28.1839 36.4782 27.1733 36.4782 26.1196C36.4766 24.4034 33.9355 19.2867 32.5047 16.6061Z" fill="#1F4E3D"/>
<path d="M26.1216 37.5557C23.5638 37.5557 16.0595 33.4444 15.2124 32.9757C15.128 32.929 15.0575 32.8604 15.0085 32.7773C14.9595 32.6941 14.9336 32.5993 14.9336 32.5027C14.9336 32.4062 14.9595 32.3114 15.0085 32.2282C15.0575 32.145 15.128 32.0765 15.2124 32.0298C16.0595 31.5611 23.5638 27.4492 26.1216 27.4492C27.4621 27.4492 28.7476 27.9817 29.6954 28.9295C30.6432 29.8773 31.1757 31.1629 31.1757 32.5033C31.1757 33.8437 30.6432 35.1292 29.6954 36.077C28.7476 37.0248 27.4621 37.5573 26.1216 37.5573V37.5557ZM16.6081 32.5027C19.2887 33.9335 24.4049 36.4746 26.1216 36.4746C27.1753 36.4746 28.1859 36.056 28.931 35.311C29.676 34.5659 30.0946 33.5553 30.0946 32.5017C30.0946 31.448 29.676 30.4374 28.931 29.6923C28.1859 28.9473 27.1753 28.5287 26.1216 28.5287C24.4043 28.5303 19.2887 31.0719 16.6081 32.5027Z" fill="#1F4E3D"/>
<path d="M38.3785 38.9185C38.2352 38.9185 38.0977 38.8615 37.9964 38.7601L28.851 29.6153C28.7525 29.5133 28.698 29.3768 28.6992 29.2351C28.7005 29.0933 28.7573 28.9578 28.8575 28.8575C28.9578 28.7573 29.0933 28.7005 29.2351 28.6992C29.3768 28.698 29.5133 28.7525 29.6153 28.851L38.7607 37.9958C38.8363 38.0714 38.8877 38.1677 38.9086 38.2726C38.9294 38.3774 38.9187 38.4861 38.8778 38.5848C38.8369 38.6836 38.7676 38.768 38.6788 38.8274C38.5899 38.8868 38.4854 38.9185 38.3785 38.9185Z" fill="#1F4E3D"/>
</svg>
