<svg width="65" height="65" viewBox="0 0 65 65" fill="none" xmlns="http://www.w3.org/2000/svg">
<path d="M16.1834 24.3945C15.1046 24.3975 14.0358 24.1865 13.0391 23.7737C12.0423 23.3609 11.1373 22.7544 10.3765 21.9895C7.43829 19.0505 3.53917 5.7035 3.10438 4.19093C3.06113 4.0402 3.05902 3.88064 3.09827 3.72882C3.13753 3.57701 3.2167 3.43846 3.32758 3.32758C3.43846 3.2167 3.57701 3.13753 3.72882 3.09827C3.88064 3.05902 4.0402 3.06113 4.19093 3.10438C5.7035 3.54356 19.0505 7.43829 21.9895 10.3773C23.1378 11.5257 23.9199 12.9888 24.2367 14.5815C24.5535 16.1743 24.3909 17.8253 23.7694 19.3257C23.148 20.826 22.0955 22.1084 20.7452 23.0107C19.3949 23.9129 17.8074 24.3945 16.1834 24.3945ZM5.25113 5.25113C6.6864 9.97505 9.64302 18.7782 11.6194 20.7475C12.8298 21.9579 14.4716 22.638 16.1834 22.638C17.0311 22.638 17.8704 22.471 18.6535 22.1467C19.4366 21.8223 20.1481 21.3468 20.7475 20.7475C21.3468 20.1481 21.8223 19.4366 22.1467 18.6535C22.471 17.8704 22.638 17.0311 22.638 16.1834C22.638 15.3358 22.471 14.4965 22.1467 13.7134C21.8223 12.9303 21.3468 12.2187 20.7475 11.6194C18.7746 9.64654 9.97505 6.68728 5.25113 5.25113Z" fill="#2AB939"/>
<path d="M30.3078 28.1457C28.131 28.1432 26.0441 27.2774 24.5048 25.7382C22.9655 24.1991 22.0995 22.1123 22.0967 19.9355C22.0967 15.779 28.7776 3.5845 29.5392 2.20808C29.622 2.07954 29.7358 1.97383 29.8701 1.90062C30.0043 1.82742 30.1548 1.78906 30.3078 1.78906C30.4607 1.78906 30.6112 1.82742 30.7455 1.90062C30.8797 1.97383 30.9935 2.07954 31.0763 2.20808C31.8379 3.5845 38.5197 15.779 38.5197 19.9355C38.5167 22.1124 37.6505 24.1992 36.1111 25.7383C34.5716 27.2774 32.4846 28.1432 30.3078 28.1457ZM30.3078 4.47342C27.9827 8.8293 23.8534 17.144 23.8534 19.9329C23.8534 21.6451 24.5336 23.2873 25.7444 24.498C26.9551 25.7088 28.5973 26.389 30.3095 26.389C32.0218 26.389 33.6639 25.7088 34.8747 24.498C36.0854 23.2873 36.7656 21.6451 36.7656 19.9329C36.763 17.144 32.6328 8.8293 30.3078 4.47605V4.47342Z" fill="#2AB939"/>
<path d="M19.9384 38.5207C15.7819 38.5207 3.58737 31.8389 2.21095 31.0773C2.07366 31.0014 1.95922 30.89 1.87953 30.7548C1.79984 30.6197 1.75781 30.4656 1.75781 30.3087C1.75781 30.1518 1.79984 29.9978 1.87953 29.8626C1.95922 29.7275 2.07366 29.6161 2.21095 29.5402C3.58737 28.7786 15.7819 22.0977 19.9384 22.0977C21.0169 22.0977 22.0849 22.3101 23.0813 22.7228C24.0777 23.1356 24.9831 23.7405 25.7457 24.5031C26.5084 25.2658 27.1133 26.1711 27.5261 27.1676C27.9388 28.164 28.1512 29.232 28.1512 30.3105C28.1512 31.389 27.9388 32.457 27.5261 33.4534C27.1133 34.4498 26.5084 35.3552 25.7457 36.1178C24.9831 36.8805 24.0777 37.4854 23.0813 37.8982C22.0849 38.3109 21.0169 38.5233 19.9384 38.5233V38.5207ZM4.47892 30.3087C8.8348 32.6338 17.1486 36.7639 19.9384 36.7639C20.7862 36.7639 21.6257 36.5969 22.409 36.2725C23.1923 35.9481 23.904 35.4725 24.5035 34.873C25.103 34.2735 25.5786 33.5618 25.903 32.7785C26.2275 31.9952 26.3945 31.1557 26.3945 30.3079C26.3945 29.46 26.2275 28.6205 25.903 27.8372C25.5786 27.0539 25.103 26.3422 24.5035 25.7427C23.904 25.1432 23.1923 24.6677 22.409 24.3432C21.6257 24.0188 20.7862 23.8518 19.9384 23.8518C17.146 23.8544 8.83216 27.9837 4.47892 30.3087Z" fill="#2AB939"/>
<path d="M41.5597 39.4014C39.3827 39.399 37.2955 38.5332 35.7562 36.9938C34.2168 35.4545 33.351 33.3673 33.3486 31.1903C33.3486 27.0329 40.0296 14.8393 40.7911 13.462C40.874 13.3334 40.9878 13.2277 41.122 13.1545C41.2563 13.0813 41.4068 13.043 41.5597 13.043C41.7126 13.043 41.8631 13.0813 41.9974 13.1545C42.1317 13.2277 42.2454 13.3334 42.3283 13.462C43.0907 14.8393 49.7717 27.0329 49.7717 31.1903C49.7694 33.3674 48.9034 35.4548 47.3638 36.9941C45.8243 38.5335 43.7369 39.3993 41.5597 39.4014ZM41.5597 15.7291C39.2346 20.085 35.1054 28.3997 35.1054 31.1885C35.1054 32.9008 35.7856 34.5429 36.9963 35.7537C38.2071 36.9644 39.8492 37.6446 41.5615 37.6446C43.2737 37.6446 44.9159 36.9644 46.1266 35.7537C47.3374 34.5429 48.0176 32.9008 48.0176 31.1885C48.0149 28.3997 43.8857 20.085 41.5597 15.7291Z" fill="#2AB939"/>
<path d="M31.1902 49.7746C27.0329 49.7746 14.8392 43.0937 13.4619 42.3312C13.3246 42.2553 13.2102 42.1439 13.1305 42.0088C13.0508 41.8736 13.0088 41.7195 13.0088 41.5626C13.0088 41.4057 13.0508 41.2517 13.1305 41.1165C13.2102 40.9814 13.3246 40.87 13.4619 40.7941C14.8392 40.0325 27.0329 33.3516 31.1902 33.3516C33.3684 33.3516 35.4574 34.2168 36.9976 35.757C38.5378 37.2973 39.4031 39.3862 39.4031 41.5644C39.4031 43.7426 38.5378 45.8315 36.9976 47.3718C35.4574 48.912 33.3684 49.7772 31.1902 49.7772V49.7746ZM15.7308 41.5626C20.0867 43.8877 28.4014 48.0178 31.1902 48.0178C32.9025 48.0178 34.5446 47.3377 35.7554 46.1269C36.9661 44.9162 37.6463 43.274 37.6463 41.5618C37.6463 39.8495 36.9661 38.2074 35.7554 36.9966C34.5446 35.7859 32.9025 35.1057 31.1902 35.1057C28.3996 35.1083 20.0849 39.2376 15.729 41.5626H15.7308Z" fill="#2AB939"/>
<path d="M52.8194 50.6553C50.6423 50.653 48.555 49.7871 47.0155 48.2478C45.476 46.7085 44.61 44.6213 44.6074 42.4442C44.6074 38.2877 51.2892 26.0932 52.0508 24.7159C52.1337 24.5873 52.2474 24.4816 52.3817 24.4084C52.516 24.3352 52.6665 24.2969 52.8194 24.2969C52.9723 24.2969 53.1228 24.3352 53.2571 24.4084C53.3913 24.4816 53.5051 24.5873 53.588 24.7159C54.3495 26.0932 61.0305 38.2877 61.0305 42.4442C61.0281 44.6212 60.1623 46.7084 58.6229 48.2477C57.0836 49.7871 54.9964 50.653 52.8194 50.6553ZM52.8194 26.983C50.4934 31.3389 46.3642 39.6536 46.3642 42.4424C46.3642 44.1547 47.0444 45.7968 48.2551 47.0076C49.4659 48.2183 51.108 48.8985 52.8203 48.8985C54.5325 48.8985 56.1747 48.2183 57.3854 47.0076C58.5962 45.7968 59.2763 44.1547 59.2763 42.4424C59.2737 39.6536 55.1444 31.3389 52.8194 26.983Z" fill="#2AB939"/>
<path d="M42.4481 61.0285C38.2917 61.0285 26.0971 54.3476 24.7207 53.586C24.5834 53.51 24.469 53.3987 24.3893 53.2635C24.3096 53.1284 24.2676 52.9743 24.2676 52.8174C24.2676 52.6605 24.3096 52.5065 24.3893 52.3713C24.469 52.2362 24.5834 52.1248 24.7207 52.0488C26.0971 51.2873 38.2917 44.6055 42.4481 44.6055C44.6263 44.6055 46.7153 45.4707 48.2555 47.011C49.7957 48.5512 50.661 50.6401 50.661 52.8183C50.661 54.9965 49.7957 57.0855 48.2555 58.6257C46.7153 60.1659 44.6263 61.0311 42.4481 61.0311V61.0285ZM26.9887 52.8174C31.3446 55.1425 39.6584 59.2718 42.4481 59.2718C44.1604 59.2718 45.8025 58.5916 47.0133 57.3808C48.224 56.1701 48.9042 54.5279 48.9042 52.8157C48.9042 51.1034 48.224 49.4613 47.0133 48.2505C45.8025 47.0398 44.1604 46.3596 42.4481 46.3596C39.6575 46.3622 31.3446 50.4924 26.9887 52.8174Z" fill="#2AB939"/>
<path d="M62.3656 63.2431C62.1326 63.243 61.9093 63.1505 61.7446 62.9857L46.8833 48.1253C46.7233 47.9597 46.6348 47.7378 46.6368 47.5075C46.6388 47.2772 46.7311 47.0568 46.894 46.894C47.0568 46.7311 47.2772 46.6388 47.5075 46.6368C47.7378 46.6348 47.9597 46.7233 48.1253 46.8833L62.9866 61.7437C63.1094 61.8665 63.193 62.023 63.2269 62.1934C63.2608 62.3638 63.2434 62.5403 63.1769 62.7008C63.1105 62.8613 62.9979 62.9985 62.8535 63.095C62.7091 63.1915 62.5393 63.2431 62.3656 63.2431Z" fill="#2AB939"/>
</svg>
